<svg xmlns="http://www.w3.org/2000/svg" width="200" height="38" viewBox="0 0 200 38">
  <path fill="#00A2D3" fill-rule="evenodd" d="M195.68741,24.4375691 C197.899956,24.4375691 198.995812,22.3801105 200,19.2183425 L199.470822,19.079779 C198.545803,21.9266298 197.533282,23.0267403 196.749932,23.0267403 C196.049918,23.0267403 195.824913,22.241547 195.824913,21.2212155 C195.824913,18.2316022 197.145774,15.5820994 197.145774,12.7352486 C197.145774,10.480442 196.16242,8.7001105 194.145711,8.7001105 C190.86231,8.7001105 189.320611,12.961989 188.424759,15.359558 L188.283089,15.3301657 C188.483093,14.5953591 188.591429,13.3230939 188.591429,12.5672928 C188.591429,10.3376796 187.66641,8.7001105 185.649701,8.7001105 C182.395467,8.7001105 180.824601,12.961989 179.928749,15.359558 L179.787079,15.3301657 C180.037084,14.3728177 180.295423,13.0711602 180.295423,12.0298343 C180.295423,10.3376796 179.703744,8.67071823 177.766203,8.67071823 C176.699515,8.64552486 175.886998,8.9520442 175.245318,9.48950276 C174.624471,10.0269613 174.291131,10.5098343 173.953624,11.1018785 L174.378633,11.4125967 C174.853643,10.5098343 175.52449,9.77502762 176.282839,9.77502762 C177.232859,9.77502762 177.262026,11.2446409 177.262026,11.8366851 C177.262026,15.5107182 175.83283,20.6543646 174.88281,23.4508287 C175.186983,23.9001105 175.9995,24.4669613 176.562012,24.4669613 C177.766203,24.4669613 178.241213,23.2240884 178.524553,22.2919337 C179.057897,20.5955801 181.695452,10.2537017 184.216338,10.2537017 C185.224692,10.2830939 185.42053,11.4377901 185.42053,12.4833149 C185.42053,15.6660773 184.387175,20.2092818 183.291319,23.4760221 C183.907998,24.160442 184.387175,24.4669613 185.195525,24.4669613 C185.787204,24.4669613 186.291381,24.0134807 186.824726,22.7454144 C187.52474,21.0826519 190.045626,10.2830939 192.712348,10.2830939 C193.641534,10.2830939 193.91654,11.2656354 193.91654,12.4833149 C193.91654,15.3889503 192.629013,17.920884 192.629013,20.599779 C192.629013,22.7454144 193.304027,24.4375691 195.68741,24.4375691 L195.68741,24.4375691 Z M168.516011,8.6161326 C163.411738,8.6161326 160.411675,14.6331492 160.411675,19.041989 C160.411675,22.0106077 161.840872,24.4669613 165.374279,24.4669613 C169.832705,24.4669613 171.599408,20.0329282 172.186921,18.6472928 L171.628576,18.4205525 C170.616055,20.4570166 168.853518,23.081326 166.357632,23.081326 C164.340924,23.081326 163.83258,21.0196685 163.83258,19.239337 C163.83258,15.2839779 165.907623,9.51889503 168.599346,9.51889503 C169.466031,9.51889503 169.695202,10.2537017 169.695202,10.9885083 C169.695202,13.6464088 167.674327,15.1706077 165.290944,15.6492818 C165.399279,16.0733702 165.486781,16.2455249 166.020125,16.2455249 C168.599346,16.2455249 172.103585,14.5491713 172.103585,11.5805525 C172.103585,9.43491713 170.307715,8.6161326 168.516011,8.6161326 L168.516011,8.6161326 Z M154.328215,24.4375691 C156.540761,24.4375691 157.636617,22.3801105 158.644972,19.2183425 L158.111627,19.079779 C157.186608,21.9266298 156.178254,23.0267403 155.390737,23.0267403 C154.690723,23.0267403 154.465718,22.241547 154.465718,21.2212155 C154.465718,18.2316022 155.786579,15.5820994 155.786579,12.7352486 C155.786579,10.480442 154.803225,8.7001105 152.786516,8.7001105 C149.503115,8.7001105 147.961416,12.961989 147.065564,15.359558 L146.923894,15.3301657 C147.123898,14.5953591 147.232234,13.3230939 147.232234,12.5672928 C147.232234,10.3376796 146.307215,8.7001105 144.290506,8.7001105 C141.036272,8.7001105 139.465406,12.961989 138.569554,15.359558 L138.432051,15.3301657 C138.677889,14.3728177 138.936228,13.0711602 138.936228,12.0298343 C138.936228,10.3376796 138.344549,8.67071823 136.407008,8.67071823 C135.344486,8.64552486 134.531969,8.9520442 133.886123,9.48950276 C133.27361,10.0269613 132.931936,10.5098343 132.594429,11.1018785 L133.019438,11.4125967 C133.494448,10.5098343 134.165295,9.77502762 134.923644,9.77502762 C135.877831,9.77502762 135.902831,11.2446409 135.902831,11.8366851 C135.902831,15.5107182 134.477802,20.6543646 133.523615,23.4508287 C133.831955,23.9001105 134.644472,24.4669613 135.202817,24.4669613 C136.407008,24.4669613 136.886185,23.2240884 137.165358,22.2919337 C137.698702,20.5955801 140.336257,10.2537017 142.857143,10.2537017 C143.865497,10.2830939 144.061335,11.4377901 144.061335,12.4833149 C144.061335,15.6660773 143.02798,20.2092818 141.93629,23.4760221 C142.55297,24.160442 143.02798,24.4669613 143.844663,24.4669613 C144.428009,24.4669613 144.932186,24.0134807 145.465531,22.7454144 C146.165545,21.0826519 148.690598,10.2830939 151.353153,10.2830939 C152.278172,10.2830939 152.561512,11.2656354 152.561512,12.4833149 C152.561512,15.3889503 151.269818,17.920884 151.269818,20.599779 C151.269818,22.7454144 151.944832,24.4375691 154.328215,24.4375691 L154.328215,24.4375691 Z M114.285714,11.4671823 C114.569054,10.9843094 114.794058,10.7029834 115.044063,10.4174586 C115.435738,10.0269613 115.773245,9.82961326 116.223255,9.82961326 C116.727432,9.82961326 116.952437,10.3628729 116.952437,11.2110497 C116.952437,14.398011 115.352403,17.358232 115.352403,20.5745856 C115.352403,22.6572376 116.277422,24.3535912 118.381633,24.3535912 C121.102523,24.3535912 122.531719,21.9014365 123.931749,18.3449724 L124.073418,18.3743646 C123.960916,18.9118232 123.902581,19.558453 123.902581,20.2344751 C123.902581,22.2121547 124.49426,24.3283978 126.735974,24.3283978 C128.586012,24.3283978 129.481864,23.2240884 130.186046,21.7292818 C130.548553,20.9104972 130.944395,19.8691713 131.140232,19.1343646 L130.606888,18.9958011 C130.186046,20.1756906 129.315194,22.9679558 127.940165,22.9679558 C127.073481,22.9679558 127.019313,21.5907182 127.019313,20.9398895 C127.019313,17.6647514 128.30684,11.4377901 129.819371,9.04022099 C129.402696,8.8680663 128.869351,8.81348066 128.448509,8.81348066 C127.131815,8.81348066 126.319298,9.66165746 125.894289,10.7575691 C124.8026,13.6925967 123.202567,19.3904972 121.185858,21.8720442 C120.765016,22.3801105 120.256672,22.7748066 119.673327,22.7748066 C118.744141,22.7748066 118.548303,21.4773481 118.548303,20.6837569 C118.548303,17.358232 120.065001,14.4274033 120.065001,11.2362431 C120.065001,9.85900552 119.21915,8.7001105 117.764953,8.7001105 C116.669097,8.7001105 115.910748,8.9520442 115.2149,9.51889503 C114.706556,9.91779006 114.202379,10.560221 113.864872,11.1522652 L114.285714,11.4671823 Z M101.222942,12.2229834 C101.222942,10.4468508 100.606263,8.7001105 98.6687223,8.7001105 C97.6020334,8.7001105 96.7936832,9.01082873 96.1478364,9.54828729 C95.5269901,10.081547 95.1936499,10.560221 94.8561428,11.1522652 L95.2769849,11.4587845 C95.7519948,10.560221 96.4270089,9.82961326 97.1811913,9.82961326 C98.1645451,9.82961326 98.1645451,11.3454144 98.1645451,11.9668508 C98.1645451,15.7416575 96.0061668,22.8545856 95.697827,23.3626519 C96.0061668,23.8203315 96.8186837,24.3787845 97.3811954,24.3787845 C98.5853872,24.3787845 99.0645638,23.1359116 99.3437363,22.2079558 C99.568741,21.3849724 100.072918,19.5794475 100.489594,17.6563536 C100.8021,17.6857459 101.13544,17.6857459 101.472947,17.6857459 C102.847976,17.6857459 104.252172,17.4883978 105.456364,16.8669613 C105.231359,18.2483978 105.064689,19.6088398 105.064689,20.6543646 C105.064689,22.9427624 105.848039,24.4375691 108.093919,24.4375691 C109.885623,24.4375691 110.948145,23.081326 111.818996,20.8223204 C111.989833,20.3688398 112.156503,19.8901657 112.294006,19.3527072 L111.764828,19.1847514 C111.568991,19.7767956 111.398154,20.2848619 111.206483,20.7383425 C110.502302,22.4053039 109.831455,23.081326 109.102273,23.081326 C108.402258,23.081326 108.202254,22.1491713 108.202254,21.1078453 C108.202254,16.6696133 109.998125,10.560221 111.060647,9.04022099 C110.673139,8.8680663 110.110627,8.81348066 109.77312,8.81348066 C108.481427,8.81348066 107.66891,9.40552486 107.02723,11.0137017 C106.631388,11.9668508 105.902206,14.3308287 105.677202,15.5443094 C104.835517,16.4176796 103.043813,16.640221 101.781287,16.640221 C101.472947,16.640221 101.052105,16.6108287 100.689598,16.5814365 C100.997937,14.9816575 101.222942,13.6296133 101.222942,12.2229834 L101.222942,12.2229834 Z M80.5266776,34.8928177 C78.9308111,36.0769061 76.5182608,36.841105 74.2473802,36.841105 C72.847351,36.841105 71.4973229,36.559779 70.463968,35.8837569 C69.3681118,35.1489503 68.7514323,34.1034254 68.7514323,32.7723757 C68.7514323,31.6974586 69.1722744,30.8240884 69.8181212,30.1438674 C72.0306673,27.8302762 76.464093,27.7714917 78.8724765,27.7714917 C80.6975145,27.7714917 82.5767203,27.998232 84.3975916,28.3929282 C84.5684285,28.4223204 84.7350986,28.4517127 84.9017688,28.5104972 C84.0059168,30.9962431 82.7142232,33.2552486 80.5266776,34.8928177 L80.5266776,34.8928177 Z M78.6224713,26.4194475 C75.2557345,26.4194475 71.4139878,27.0366851 69.2264422,29.6064088 C68.5014271,30.4839779 68.0222505,31.5295028 68.0222505,32.801768 C68.0222505,34.2713812 68.6680973,35.598232 69.872289,36.4758011 C71.3848205,37.5801105 73.3765287,38 75.0890644,38 C81.6767016,38 85.3767787,34.2167956 87.5101565,29.1865193 C89.5018646,29.8037569 91.4644055,30.6267403 93.2019417,31.5295028 L93.4811142,31.080221 C91.6310756,30.0053039 89.7518698,29.0731492 87.8476635,28.3089503 C88.1851705,27.4355801 88.4893435,26.4992265 88.7435155,25.5712707 C89.8102044,21.6117127 90.3143815,17.3750276 91.0977312,13.7849724 C91.6894102,11.0724862 92.1644201,9.88839779 92.6435967,9.1241989 C92.5019271,9.06961326 91.9685827,8.89745856 91.2644013,8.89745856 C89.8102044,8.89745856 89.106023,9.85900552 88.6601804,11.0472928 C87.9601658,12.8528177 85.0976062,22.8293923 82.6850559,22.8293923 C81.6517011,22.8293923 81.4808642,21.4437569 81.4808642,20.6249724 C81.4808642,18.3071823 82.1558782,16.1867403 82.5767203,13.9823204 C82.7433905,13.1089503 82.8850601,12.1767956 82.8850601,11.3286188 C82.8850601,9.80441989 82.0142086,8.7840884 80.5266776,8.7840884 C78.6766391,8.7840884 77.614117,9.68685083 76.6849309,11.2152486 L77.1099398,11.5259669 C77.3016105,11.1564641 77.5849497,10.7911602 77.8641222,10.5098343 C78.2016292,10.1697238 78.5391362,9.91779006 79.0141461,9.91779006 C79.6891602,9.91779006 79.7724953,10.761768 79.7724953,11.2446409 C79.7724953,14.0956906 78.255797,17.6563536 78.255797,20.6543646 C78.255797,22.9133702 79.2933186,24.4375691 81.3975291,24.4375691 C84.510094,24.4375691 86.1351278,20.1714917 87.230984,17.5429834 L87.3976541,17.5723757 C86.9476447,20.0329282 86.5851372,22.6026519 85.9392904,25.0590055 C85.7142857,25.8525967 85.5226151,26.641989 85.2684431,27.4355801 C85.0976062,27.3767956 84.9309361,27.3222099 84.7600992,27.2928177 C82.7433905,26.7259669 80.7808496,26.4194475 78.6224713,26.4194475 L78.6224713,26.4194475 Z M24.7838497,24.4963536 C22.9629784,24.4963536 21.3921123,23.4508287 21.3921123,21.2758011 C21.3921123,19.919558 22.4588012,18.8698343 22.9088106,18.5885083 L23.4129878,18.7564641 C23.4129878,19.2687293 23.3004854,20.6249724 23.5796579,21.6201105 C23.8338299,22.5816575 24.2255047,23.3038674 25.1213567,23.3038674 C26.6088877,23.3038674 27.6755766,21.3345856 28.3214234,19.9825414 C29.9464572,16.5688398 30.8423092,11.4083978 31.233984,9.60287293 L31.2089835,9.68685083 C29.9714577,9.68685083 28.9631034,10.3880663 28.2047543,11.719116 L27.7589116,11.4671823 C28.6255964,9.88839779 29.7506198,8.7001105 32.1881706,8.7001105 C34.8507261,8.7001105 35.4674056,10.4174586 35.4674056,12.8738122 C35.4674056,15.439337 34.8257255,17.9754696 34.8257255,20.7677348 C34.8257255,21.5067403 34.8798933,22.518674 35.8632472,22.518674 C37.6257839,22.518674 38.9466447,17.9754696 39.6758266,15.8634254 C40.463343,13.5792265 41.7508698,8.75889503 44.721765,8.7001105 C45.5634492,8.7001105 46.1217942,8.84287293 46.7384737,9.06961326 C45.3092773,11.7485083 44.2175879,17.3330387 44.1342528,20.8517127 C44.1342528,21.4185635 44.1884206,23.1359116 45.2551095,23.1359116 C45.617617,23.1359116 46.2342965,22.8293923 46.6301381,22.4346961 C47.4134878,21.6746961 47.8634972,20.4864088 48.4260089,19.558453 C48.6218463,19.2183425 48.896852,18.8530387 49.1801913,18.5717127 L49.6843684,18.7144751 C49.6593679,20.9692818 50.3010479,23.3038674 51.7344111,23.3038674 C53.2177754,23.3038674 54.2844643,21.3345856 54.930311,19.9825414 C56.5553449,16.5688398 57.4511969,11.4083978 57.8428717,9.60287293 L57.8178712,9.68685083 C56.5845122,9.68685083 55.5761578,10.3880663 54.813642,11.719116 L54.3677993,11.4671823 C55.2344841,9.88839779 56.3595075,8.7001105 58.7970583,8.7001105 C61.4637805,8.7001105 62.08046,10.4174586 62.08046,12.8738122 C62.08046,15.439337 61.4346132,17.9754696 61.4346132,20.7677348 C61.4346132,21.5067403 61.488781,22.518674 62.4721348,22.518674 C64.2388383,22.518674 65.5555324,17.9754696 66.2847143,15.8634254 C67.0680639,13.5792265 68.3597575,8.75889503 71.3306527,8.7001105 C72.1723369,8.7001105 72.7348486,8.84287293 73.3515282,9.06961326 C71.918165,11.7485083 70.8264756,17.3330387 70.7431405,20.8517127 C70.7431405,21.4185635 70.7973083,23.1359116 71.7806621,23.1359116 C73.0723557,23.1359116 74.0765433,20.1756906 74.4432176,19.1049724 L75.0057293,19.2477348 C73.9932082,22.4095028 72.9015188,24.4375691 70.7139732,24.4375691 C68.4722598,24.4375691 67.7139107,22.6908287 67.7139107,20.599779 C67.7139107,18.7144751 68.1930874,16.4260773 68.722265,14.5659669 C69.2556095,12.7310497 69.9306236,11.038895 70.1556282,10.4174586 L70.0431259,10.3628729 C69.6472843,10.6148066 69.2556095,11.0976796 68.9222692,11.719116 C68.1930874,13.0711602 67.6014084,14.9858564 67.2097335,16.0901657 C66.3972166,18.3155801 65.1096898,23.8707182 61.7971208,23.8707182 C59.105398,23.8707182 58.6012209,21.5067403 58.6012209,18.8278453 C58.6012209,16.5142541 59.022063,14.2300552 59.022063,11.719116 C59.022063,11.038895 58.9928957,10.6148066 58.8262255,10.3124862 L58.6595554,10.3124862 C57.9262068,13.8059669 57.0595221,17.9754696 55.3178191,21.28 C54.4511344,22.9427624 53.3844455,24.4963536 51.1135649,24.4963536 C49.8510386,24.4963536 48.255172,23.6733702 48.001,21.758674 C47.0759807,23.2240884 45.9842913,24.4963536 44.046751,24.4963536 C41.8050376,24.4963536 41.105023,22.6908287 41.105023,20.599779 C41.105023,18.7144751 41.5841997,16.4260773 42.1133774,14.5659669 C42.6467218,12.7310497 43.3217359,11.038895 43.5425738,10.4174586 L43.4300715,10.3628729 C43.0383966,10.6148066 42.6467218,11.0976796 42.3092148,11.719116 C41.5841997,13.0711602 40.9925207,14.9858564 40.6008459,16.0901657 C39.7883289,18.3155801 38.4966353,23.8707182 35.1882331,23.8707182 C32.4965103,23.8707182 31.9923332,21.5067403 31.9923332,18.8278453 C31.9923332,16.5142541 32.4131753,14.2300552 32.4131753,11.719116 C32.4131753,11.038895 32.384008,10.6148066 32.2173379,10.3124862 L32.0506677,10.3124862 C31.3173191,13.8059669 30.4506344,17.9754696 28.7130982,21.28 C27.8422467,22.9133702 26.7755578,24.4963536 24.7838497,24.4963536 L24.7838497,24.4963536 Z M11.1335653,2.62430939 C10.1502115,2.99381215 9.36686181,3.35911602 8.55017813,3.89657459 C5.27094314,6.15558011 3.61674202,13.9571271 3.61674202,18.4205525 C3.61674202,21.5823204 4.60009584,24.4963536 8.07516823,24.4963536 C11.7210775,24.4963536 13.6836184,18.4499448 14.6336382,15.8760221 L16.6253464,10.5098343 L16.8211838,10.5644199 C15.9253318,13.3062983 14.7753078,17.4590055 14.7753078,19.8313812 C14.7753078,22.0106077 15.4211546,24.4963536 18.1420446,24.4963536 C21.1712744,24.4963536 21.9546241,21.0742541 22.429634,19.0125967 L21.871289,18.9286188 C21.533782,20.3142541 20.8046001,23.1653039 19.1212317,23.1653039 C17.9462072,23.1653039 17.9170399,20.7929282 17.9170399,20.0581215 C17.9170399,15.2839779 19.5712411,9.1241989 20.721265,5.36618785 C20.9171024,4.74475138 21.0587721,4.12331492 21.0587721,3.58585635 C21.0587721,2.65370166 20.6920978,1.94828729 19.3462364,1.94828729 C19.0378966,1.94828729 18.4212171,1.97348066 18.1420446,2.00287293 C17.7212025,4.23668508 17.0461885,6.60906077 16.2920061,8.92685083 C15.5628242,11.1564641 14.7753078,13.3902762 13.9336236,15.5107182 C13.0961062,17.6269613 11.1585658,22.8293923 9.0001875,22.8293923 C7.15014896,22.8293923 7.06681389,19.919558 7.06681389,18.7858564 C7.09181441,14.9732597 7.93349861,9.94298343 9.47936415,6.44110497 C10.4043834,4.35005525 11.4669056,2.73767956 12.896102,2.22961326 L12.6752641,1.54939227 C12.3085898,1.6081768 11.8877477,1.66696133 11.4127378,1.66696133 C9.02935478,1.66696133 7.26265131,0 4.99177066,0 C2.85839288,0 1.45836372,1.32685083 0.700014584,2.99381215 C0.166670139,4.12331492 0,5.25281768 0,6.35712707 C0,7.6839779 0.250005208,8.84287293 0.58751224,9.66165746 L1.09168941,9.46430939 C0.700014584,8.47337017 0.58751224,7.6 0.58751224,6.6678453 C0.58751224,5.36618785 0.979187066,4.37944751 1.42919644,3.75801105 C2.02087543,2.99381215 2.88756016,2.62430939 4.20425426,2.62430939 C5.52094835,2.62430939 6.72930686,3.01900552 7.99183316,3.01900552 C9.0543553,3.01900552 10.0377091,2.90983425 11.0752307,2.48154696 L11.1335653,2.62430939 Z"/>
</svg>

