<svg xmlns="http://www.w3.org/2000/svg" xmlns:xlink="http://www.w3.org/1999/xlink" width="60" height="60" viewBox="0 0 60 60">
  <defs>
    <polygon id="logo-a" points=".001 2.252 57.6 2.252 57.6 56.25 .001 56.25"/>
  </defs>
  <g fill="none" fill-rule="evenodd">
    <path fill="#929393" d="M56.3228,10.44675 C56.3228,13.06425 54.0628,15.183 51.2708,15.183 C48.4828,15.183 46.2228,13.06425 46.2228,10.44675 C46.2228,7.82925 48.4828,5.7105 51.2708,5.7105 C54.0628,5.7105 56.3228,7.82925 56.3228,10.44675"/>
    <g transform="translate(0 1.5)">
      <mask id="logo-b" fill="#fff">
        <use xlink:href="#logo-a"/>
      </mask>
      <path fill="#00A2D3" d="M39.4008,41.2215 L36.0808,54.40275 C32.1288,56.5815 27.2328,56.84775 23.0368,55.1265 L18.5008,42.33525 C18.4368,39.834 19.3928,37.43025 21.1448,35.58525 C25.6088,38.814 31.9328,38.47275 35.9728,34.809 C37.9288,36.45525 39.1608,38.73525 39.4008,41.2215 M28.0848,21.28275 C31.5328,21.28275 34.3288,23.904 34.3288,27.14025 C34.3288,30.37275 31.5328,32.994 28.0848,32.994 C24.6368,32.994 21.8368,30.37275 21.8368,27.14025 C21.8368,23.904 24.6368,21.28275 28.0848,21.28275 M43.2008,15.7515 C43.2008,8.2965 36.7528,2.2515 28.8008,2.2515 C20.8488,2.2515 14.4008,8.2965 14.4008,15.7515 C6.4488,15.7515 0.0008,21.7965 0.0008,29.25525 C0.0008,36.38775 5.9008,42.2265 13.3768,42.714 C13.1888,38.62275 14.8368,34.70025 17.8688,31.824 C17.2208,30.579 16.8128,29.19525 16.7288,27.729 C16.3768,21.84525 21.1768,16.8165 27.4528,16.49025 C33.7888,16.164 39.0968,20.7015 39.4408,26.54775 C39.5248,27.99525 39.3008,29.4165 38.7928,30.74025 C42.2288,33.3465 45.3888,38.41275 44.3088,42.71025 C51.7448,42.1815 57.6008,36.3615 57.6008,29.25525 C57.6008,21.7965 51.1528,15.7515 43.2008,15.7515" mask="url(#logo-b)"/>
    </g>
  </g>
</svg>

