<svg width="217" height="41" viewBox="0 0 217 41" fill="none" xmlns="http://www.w3.org/2000/svg">
<path fill-rule="evenodd" clip-rule="evenodd" d="M212.31 26.3129C214.718 26.3129 215.897 24.0948 217 20.698L216.417 20.5332C215.415 23.6132 214.313 24.7919 213.463 24.7919C212.614 24.7919 212.462 23.9427 212.462 22.84C212.462 19.6333 213.894 16.7814 213.894 13.7141C213.894 11.2806 212.83 9.36668 210.637 9.36668C207.075 9.36668 205.401 13.955 204.438 16.528H204.286C204.498 15.549 204.608 14.5509 204.615 13.5494C204.615 11.1538 203.614 9.39202 201.421 9.39202C197.897 9.39202 196.186 13.9803 195.21 16.5533H195.058C195.385 15.3969 195.572 14.2054 195.616 13.0044C195.616 11.1792 194.969 9.37935 192.878 9.37935C191.886 9.32447 190.91 9.64078 190.14 10.2666C189.57 10.756 189.093 11.3442 188.732 12.003L189.189 12.3326C189.709 11.3693 190.456 10.5708 191.255 10.5708C192.294 10.5708 192.32 12.1551 192.32 12.8016C192.07 17.0662 191.216 21.2739 189.785 25.2989C190.229 25.8849 190.883 26.2757 191.61 26.389C192.878 26.389 193.435 25.1215 193.752 24.0441C194.323 22.2189 197.187 11.0905 199.925 11.0905C201.016 11.0905 201.193 12.3579 201.193 13.486C200.989 17.5226 200.208 21.5092 198.873 25.3243C199.109 25.6554 199.421 25.925 199.783 26.1103C200.145 26.2956 200.546 26.3911 200.952 26.389C201.586 26.389 202.131 25.9073 202.714 24.5384C203.475 22.7513 206.213 11.1285 209.052 11.1285C210.053 11.1285 210.32 12.1805 210.32 13.486C210.32 16.6167 208.913 19.3418 208.913 22.2316C208.989 24.4877 209.724 26.3129 212.31 26.3129ZM182.825 9.27795C177.299 9.27795 174.041 15.7548 174.041 20.4952C174.041 23.6892 175.588 26.3383 179.428 26.3383C184.258 26.3383 186.172 21.5599 186.818 20.0769L186.21 19.8361C185.107 22.0162 183.193 24.906 180.493 24.906C178.3 24.906 177.755 22.6752 177.755 20.7613C177.755 16.5026 179.999 10.3046 182.927 10.3046C183.865 10.3046 184.118 11.0905 184.118 11.8763C184.118 14.7408 181.925 16.3885 179.34 16.9462C179.454 17.4025 179.542 17.5926 180.126 17.5926C182.927 17.5926 186.73 15.7675 186.73 12.5227C186.73 10.1525 184.778 9.27795 182.825 9.27795ZM167.437 26.3129C169.845 26.3129 171.037 24.0948 172.127 20.698L171.544 20.5332C170.542 23.6132 169.452 24.7919 168.59 24.7919C167.728 24.7919 167.589 23.9427 167.589 22.84C167.589 19.6333 169.021 16.7814 169.021 13.7141C169.021 11.2806 167.957 9.36668 165.764 9.36668C162.214 9.36668 160.528 13.955 159.552 16.528H159.413C159.631 15.5501 159.742 14.5513 159.743 13.5494C159.743 11.1538 158.741 9.39202 156.548 9.39202C153.024 9.39202 151.313 13.9803 150.35 16.5533H150.198C150.514 15.3951 150.697 14.2043 150.743 13.0044C150.743 11.1792 150.096 9.37935 148.005 9.37935C147.013 9.32447 146.037 9.64078 145.267 10.2666C144.697 10.756 144.22 11.3442 143.86 12.003L144.316 12.3326C144.836 11.3693 145.583 10.5708 146.395 10.5708C147.421 10.5708 147.447 12.1551 147.447 12.8016C147.197 17.0662 146.343 21.2739 144.912 25.2989C145.359 25.882 146.012 26.272 146.737 26.389C148.005 26.389 148.562 25.1215 148.879 24.0441C149.45 22.2189 152.314 11.0905 155.052 11.0905C156.143 11.0905 156.32 12.3579 156.32 13.486C156.115 17.5213 155.338 21.5071 154.013 25.3243C154.248 25.6536 154.557 25.9221 154.917 26.1074C155.276 26.2926 155.675 26.3891 156.079 26.389C156.713 26.389 157.258 25.9073 157.841 24.5384C158.602 22.7513 161.34 11.1285 164.179 11.1285C165.181 11.1285 165.447 12.1805 165.447 13.486C165.447 16.6167 164.052 19.3418 164.052 22.2316C164.128 24.4877 164.851 26.3129 167.437 26.3129ZM123.996 12.3706C124.227 11.9641 124.503 11.5856 124.82 11.2426C124.976 11.0549 125.169 10.9017 125.387 10.7926C125.606 10.6835 125.844 10.6209 126.088 10.6088C126.633 10.6088 126.874 11.1792 126.874 12.0918C126.874 15.5266 125.15 18.7207 125.15 22.1682C125.15 24.4244 126.139 26.2369 128.42 26.2369C131.374 26.2369 132.92 23.6005 134.454 19.7727H134.606C134.473 20.4275 134.409 21.0945 134.416 21.7627C134.416 23.892 135.062 26.1735 137.496 26.1735C139.499 26.1735 140.475 24.9947 141.236 23.385C141.645 22.476 141.993 21.5401 142.275 20.5839L141.692 20.4318C141.236 21.6993 140.285 24.7159 138.802 24.7159C137.864 24.7159 137.8 23.2329 137.8 22.5358C137.8 18.9996 139.195 12.2946 140.843 9.72158C140.363 9.54925 139.856 9.46758 139.347 9.48075C138.722 9.48383 138.115 9.68928 137.617 10.0663C137.119 10.4434 136.756 10.9717 136.584 11.5721C135.392 14.7281 133.655 20.8627 131.513 23.5371C131.328 23.8074 131.085 24.0337 130.802 24.2002C130.52 24.3666 130.204 24.4691 129.878 24.5004C128.877 24.5004 128.61 23.1062 128.61 22.257C128.61 18.6827 130.258 15.514 130.258 12.1171C130.284 11.7686 130.238 11.4184 130.123 11.0885C130.007 10.7587 129.824 10.4563 129.586 10.2004C129.348 9.94449 129.06 9.74057 128.739 9.60146C128.419 9.46234 128.073 9.39104 127.723 9.39202C126.72 9.33849 125.733 9.65412 124.947 10.2793C124.359 10.7695 123.866 11.3621 123.489 12.0284L123.996 12.3706ZM109.825 13.1818C109.825 11.2679 109.153 9.37935 107.049 9.37935C106.055 9.34116 105.082 9.66552 104.311 10.2919C103.747 10.7579 103.271 11.3201 102.903 11.9523L103.36 12.2946C103.88 11.3186 104.627 10.5328 105.426 10.5328C106.491 10.5328 106.491 12.1678 106.491 12.8269C106.491 16.8955 104.146 24.5511 103.816 25.0961C104.033 25.3912 104.305 25.6405 104.619 25.8297C104.932 26.019 105.28 26.1444 105.641 26.1989C106.909 26.1989 107.467 24.8553 107.771 23.854C108.075 22.8527 108.557 21.0275 109.039 18.9615C109.381 18.9615 109.748 18.9615 110.103 18.9615C111.593 19.009 113.072 18.7096 114.426 18.087C114.185 19.4308 114.045 20.7908 114.008 22.1556C114.008 24.6272 114.857 26.2369 117.291 26.2369C119.243 26.2369 120.396 24.7793 121.334 22.333C121.534 21.8183 121.707 21.2937 121.854 20.7613L121.271 20.5712C121.055 21.2176 120.878 21.7626 120.662 22.2443C119.902 24.0441 119.167 24.7793 118.381 24.7793C117.595 24.7793 117.405 23.7653 117.405 22.6499C117.405 17.8715 119.357 11.2426 120.51 9.6582C120.065 9.49141 119.592 9.40972 119.116 9.41738C117.709 9.41738 116.834 10.0511 116.137 11.7749C115.522 13.3611 115.03 14.9926 114.667 16.6547C113.767 17.6053 111.815 17.8335 110.446 17.8335C110.103 17.8335 109.647 17.8335 109.254 17.8335C109.594 16.3179 109.785 14.7726 109.825 13.2198V13.1818ZM87.3754 37.5935C85.3649 38.9618 82.9878 39.6908 80.5557 39.6849C79.1171 39.7382 77.693 39.3822 76.4487 38.6582C75.8751 38.3094 75.4018 37.8177 75.0751 37.2311C74.7485 36.6446 74.5798 35.9833 74.5854 35.312C74.5824 34.7871 74.684 34.2668 74.8842 33.7815C75.0844 33.2963 75.3793 32.8557 75.7515 32.4856C78.1473 29.9506 82.9642 29.9506 85.5754 29.9506C87.5922 29.9611 89.6021 30.1862 91.5711 30.6224C91.756 30.6433 91.9385 30.6816 92.1162 30.7364C91.2512 33.4348 89.6005 35.8135 87.3754 37.5682V37.5935ZM85.2965 28.4676C81.6459 28.4676 77.4755 29.1394 75.1558 31.9025C74.3355 32.8588 73.8857 34.0776 73.8882 35.3374C73.877 36.1108 74.0547 36.8752 74.4059 37.5643C74.7571 38.2535 75.2713 38.8465 75.9036 39.2919C77.5753 40.4063 79.5485 40.9814 81.5571 40.9397C88.7064 40.9397 92.7246 36.8584 95.0317 31.4462C97.1592 32.1103 99.2247 32.9585 101.205 33.9812L101.509 33.4995C99.5463 32.3583 97.5045 31.3587 95.3993 30.5083C95.7739 29.5451 96.0996 28.5637 96.3753 27.5677C97.5289 23.309 98.0739 18.6954 98.9105 14.8929C99.1794 13.1209 99.745 11.4069 100.584 9.82298C100.107 9.65675 99.6053 9.57524 99.1007 9.58215C98.4158 9.57991 97.7512 9.81472 97.2197 10.2468C96.6883 10.6788 96.3228 11.2814 96.1852 11.9523C95.4246 13.9043 92.3824 24.6272 89.7078 24.6272C88.5923 24.6272 88.4402 23.1315 88.4402 22.257C88.6041 19.8411 89.0032 17.4469 89.6317 15.1084C89.8268 14.1653 89.9371 13.2066 89.9613 12.2439C90.0017 11.8918 89.9656 11.5352 89.8554 11.1984C89.7451 10.8617 89.5634 10.5527 89.3226 10.2927C89.0819 10.0327 88.7877 9.82777 88.4604 9.69201C88.1331 9.55624 87.7802 9.49284 87.4261 9.50611C86.5538 9.49585 85.6969 9.7365 84.9576 10.1994C84.2182 10.6623 83.6274 11.328 83.2557 12.1171L83.712 12.4593C83.9281 12.0585 84.2014 11.6913 84.5233 11.3693C84.6775 11.1788 84.87 11.0227 85.0884 10.9114C85.3068 10.8 85.5461 10.7358 85.7909 10.7229C86.5134 10.7229 86.6148 11.6355 86.6148 12.1551C86.6148 15.2225 84.967 19.0629 84.967 22.295C84.967 24.7286 86.0951 26.3763 88.3768 26.3763C91.7486 26.3763 93.5232 21.7753 94.7148 18.9489H94.9049C94.4106 21.5852 94.0176 24.361 93.3204 27.01C93.0669 27.8593 92.8641 28.7085 92.5852 29.545C92.4089 29.4768 92.2263 29.4258 92.0401 29.3929C89.8485 28.7574 87.5784 28.4332 85.2965 28.4296V28.4676ZM26.8476 26.3763C29.0152 26.3763 30.1687 24.6652 31.1067 22.9161C32.8421 19.1598 34.0616 15.1861 34.7321 11.1031H34.9095C35.105 11.5803 35.179 12.0986 35.125 12.6114C35.125 15.3238 34.6687 17.7701 34.6687 20.2163C34.6687 23.1062 35.2138 25.6538 38.1419 25.6538C41.7292 25.6538 43.1362 19.6713 44.0109 17.2631C44.5205 15.6555 45.1389 14.0845 45.8616 12.5607C46.1669 11.9842 46.6006 11.4855 47.1292 11.1031H47.256C47.0151 11.7749 46.2799 13.6381 45.6968 15.5647C45.0554 17.6762 44.689 19.8616 44.6067 22.0668C44.6067 24.3103 45.3672 26.2622 47.801 26.2622C49.9052 26.2622 51.0841 24.8933 52.0982 23.309C52.1953 24.1311 52.5937 24.888 53.2165 25.4335C53.8393 25.9789 54.6422 26.2742 55.47 26.2622C57.9291 26.2622 59.0953 24.5891 60.0333 22.802C61.7647 19.0452 62.9799 15.0716 63.646 10.9891H63.8361C64.0252 11.468 64.0991 11.9846 64.0516 12.4973C64.0516 15.2098 63.5953 17.656 63.5953 20.1022C63.5953 22.9921 64.1403 25.5398 67.0558 25.5398C70.6558 25.5398 72.0502 19.5572 72.9248 17.149C73.4336 15.5394 74.0563 13.968 74.7882 12.4467C75.0896 11.8675 75.524 11.368 76.0558 10.9891H76.1698C75.929 11.6608 75.2065 13.524 74.6234 15.4506C73.9759 17.5607 73.6094 19.7469 73.5332 21.9528C73.5332 24.1962 74.3572 26.0848 76.7783 26.0848C79.1994 26.0848 80.3402 23.892 81.443 20.4952L80.8219 20.3431C80.4416 21.4965 79.3388 24.6779 77.9445 24.6779C76.8797 24.6779 76.8163 22.8273 76.8163 22.219C76.905 18.4165 78.0839 12.4213 79.6431 9.54413C78.9434 9.27615 78.1993 9.14282 77.4501 9.1512C74.2304 9.1512 72.8361 14.3986 71.9741 16.8575C71.1121 19.3164 69.7558 24.0314 67.8417 24.0314C66.7769 24.0314 66.7136 22.9414 66.7136 22.1429C66.7136 19.139 67.4107 16.4012 67.4107 13.6381C67.4107 10.875 66.7516 9.1512 63.8488 9.1512C62.8405 9.1025 61.8412 9.36125 60.9833 9.89317C60.1253 10.4251 59.4493 11.2051 59.0446 12.1298L59.539 12.396C59.8318 11.7729 60.2883 11.241 60.8599 10.857C61.4314 10.4731 62.0964 10.2515 62.784 10.2159V10.1272C62.353 12.0664 61.3897 17.6307 59.615 21.2937C58.9178 22.7513 57.7643 24.8807 56.1545 24.8807C54.5446 24.8807 53.8982 22.3457 53.9235 19.9375L53.3784 19.7727C53.0648 20.0925 52.7923 20.4501 52.5672 20.8374C52.0405 21.9455 51.3853 22.9878 50.6151 23.9427C50.2103 24.3469 49.6856 24.6093 49.1193 24.6905C47.9658 24.6905 47.8517 22.84 47.8517 22.2316C47.9405 18.4292 49.1193 12.434 50.6785 9.5568C49.9835 9.28771 49.2434 9.15434 48.4982 9.16388C45.2658 9.16388 43.8714 14.4113 43.0222 16.8702C42.1729 19.3291 40.8039 24.0441 38.8771 24.0441C37.8123 24.0441 37.7616 22.9541 37.7616 22.1556C37.7616 19.1516 38.4588 16.4139 38.4588 13.6508C38.4588 10.8877 37.787 9.16388 34.8969 9.16388C33.8879 9.11159 32.8871 9.36884 32.0285 9.90119C31.1698 10.4335 30.4944 11.2155 30.0927 12.1425L30.5744 12.4086C30.8682 11.7837 31.3267 11.2506 31.9006 10.8665C32.4746 10.4825 33.1423 10.2619 33.8321 10.2286V10.1398C33.4138 12.0791 32.4377 17.6433 30.6758 21.3064C29.9659 22.764 28.8124 24.8933 27.2025 24.8933C26.2265 24.8933 25.8082 24.1075 25.5293 23.0682C25.3283 22.0547 25.2643 21.0187 25.3392 19.9882L24.8068 19.8107C24.3311 20.1361 23.9355 20.5653 23.65 21.0659C23.3645 21.5665 23.1966 22.1255 23.1589 22.7006C23.1092 23.1967 23.1706 23.6976 23.3386 24.167C23.5066 24.6364 23.777 25.0626 24.1301 25.4145C24.4833 25.7664 24.9104 26.0353 25.3805 26.2017C25.8505 26.3681 26.3517 26.4277 26.8476 26.3763ZM12.0674 2.82647C11.0852 3.16671 10.1486 3.62646 9.27872 4.19535C5.71677 6.62892 3.91679 15.0197 3.91679 19.8361C3.91679 23.2329 4.98156 26.3763 8.759 26.3763C12.5364 26.3763 14.8435 19.8614 15.8702 17.0983L18.0378 11.3186H18.2533C17.0902 14.5358 16.3406 17.8876 16.0223 21.2937C16.0223 23.6385 16.7322 26.3636 19.673 26.3636C22.9688 26.3636 23.8181 22.6753 24.3378 20.4572L23.7293 20.3684C23.3617 21.8514 22.5758 24.9314 20.7505 24.9314C19.4829 24.9314 19.4829 22.3964 19.4829 21.5852C19.4829 16.4392 21.2829 9.81029 22.5251 5.76702C22.7418 5.15079 22.8657 4.50578 22.8927 3.85313C22.8927 2.83914 22.4998 2.07866 21.042 2.07866C20.6998 2.07866 20.0406 2.07864 19.7744 2.14202C19.2679 4.66678 18.5989 7.15622 17.7716 9.59482C16.9857 12.003 16.1237 14.3986 15.2364 16.68C14.3491 18.9615 12.2195 24.5638 9.87449 24.5638C7.87169 24.5638 7.78296 21.4331 7.78296 20.2163C7.78079 15.6553 8.62758 11.1336 10.2801 6.88241C11.2815 4.62629 12.435 2.90251 13.9942 2.35749L13.7407 1.62237C13.2916 1.69038 12.8385 1.72849 12.3843 1.73643C9.84913 1.73643 7.87168 -0.0507202 5.41254 -0.0507202C4.40495 -0.0370739 3.42428 0.276464 2.59569 0.849878C1.7671 1.42329 1.12817 2.23058 0.760463 3.1687C0.233356 4.30308 -0.0268077 5.54312 -8.413e-05 6.79368C-0.0180846 8.00633 0.197081 9.21116 0.633715 10.3426L1.17877 10.1398C0.801758 9.17957 0.616589 8.15472 0.633715 7.12324C0.606311 6.01034 0.925203 4.91641 1.54637 3.99255C1.90782 3.5514 2.37166 3.2053 2.89748 2.98438C3.4233 2.76347 3.99516 2.67445 4.56325 2.72507C5.99564 2.72507 7.30127 3.15601 8.67028 3.15601C9.81352 3.18725 10.9514 2.989 12.0167 2.57298L12.0674 2.82647Z" fill="#00A3D4"/>
</svg>
