<svg width="297" height="60" viewBox="0 0 297 60" fill="none" xmlns="http://www.w3.org/2000/svg">
<g clip-path="url(#clip0)">
<path fill-rule="evenodd" clip-rule="evenodd" d="M292.31 27.3129C294.718 27.3129 295.897 25.0948 297 21.698L296.417 21.5332C295.415 24.6132 294.313 25.7919 293.463 25.7919C292.614 25.7919 292.462 24.9427 292.462 23.84C292.462 20.6333 293.894 17.7814 293.894 14.7141C293.894 12.2806 292.83 10.3667 290.637 10.3667C287.075 10.3667 285.401 14.955 284.438 17.528H284.286C284.498 16.549 284.608 15.5509 284.615 14.5494C284.615 12.1538 283.614 10.392 281.421 10.392C277.897 10.392 276.186 14.9803 275.21 17.5533H275.058C275.385 16.3969 275.572 15.2054 275.616 14.0044C275.616 12.1792 274.969 10.3794 272.878 10.3794C271.886 10.3245 270.91 10.6408 270.14 11.2666C269.57 11.756 269.093 12.3442 268.732 13.003L269.189 13.3326C269.709 12.3693 270.456 11.5708 271.255 11.5708C272.294 11.5708 272.32 13.1551 272.32 13.8016C272.07 18.0662 271.216 22.2739 269.785 26.2989C270.229 26.8849 270.883 27.2757 271.61 27.389C272.878 27.389 273.435 26.1215 273.752 25.0441C274.323 23.2189 277.187 12.0905 279.925 12.0905C281.016 12.0905 281.193 13.3579 281.193 14.486C280.989 18.5226 280.208 22.5092 278.873 26.3243C279.109 26.6554 279.421 26.925 279.783 27.1103C280.145 27.2956 280.546 27.3911 280.952 27.389C281.586 27.389 282.131 26.9073 282.714 25.5384C283.475 23.7513 286.213 12.1285 289.052 12.1285C290.053 12.1285 290.32 13.1805 290.32 14.486C290.32 17.6167 288.913 20.3418 288.913 23.2316C288.989 25.4877 289.724 27.3129 292.31 27.3129ZM262.825 10.278C257.299 10.278 254.041 16.7548 254.041 21.4952C254.041 24.6892 255.588 27.3383 259.428 27.3383C264.258 27.3383 266.172 22.5599 266.818 21.0769L266.21 20.8361C265.107 23.0162 263.193 25.906 260.493 25.906C258.3 25.906 257.755 23.6752 257.755 21.7613C257.755 17.5026 259.999 11.3046 262.927 11.3046C263.865 11.3046 264.118 12.0905 264.118 12.8763C264.118 15.7408 261.925 17.3885 259.34 17.9462C259.454 18.4025 259.542 18.5926 260.126 18.5926C262.927 18.5926 266.73 16.7675 266.73 13.5227C266.73 11.1525 264.778 10.278 262.825 10.278ZM247.437 27.3129C249.845 27.3129 251.037 25.0948 252.127 21.698L251.544 21.5332C250.542 24.6132 249.452 25.7919 248.59 25.7919C247.728 25.7919 247.589 24.9427 247.589 23.84C247.589 20.6333 249.021 17.7814 249.021 14.7141C249.021 12.2806 247.957 10.3667 245.764 10.3667C242.214 10.3667 240.528 14.955 239.552 17.528H239.413C239.631 16.5501 239.742 15.5513 239.743 14.5494C239.743 12.1538 238.741 10.392 236.548 10.392C233.024 10.392 231.313 14.9803 230.35 17.5533H230.198C230.514 16.3951 230.697 15.2043 230.743 14.0044C230.743 12.1792 230.096 10.3794 228.005 10.3794C227.013 10.3245 226.037 10.6408 225.267 11.2666C224.697 11.756 224.22 12.3442 223.86 13.003L224.316 13.3326C224.836 12.3693 225.583 11.5708 226.395 11.5708C227.421 11.5708 227.447 13.1551 227.447 13.8016C227.197 18.0662 226.343 22.2739 224.912 26.2989C225.359 26.882 226.012 27.272 226.737 27.389C228.005 27.389 228.562 26.1215 228.879 25.0441C229.45 23.2189 232.314 12.0905 235.052 12.0905C236.143 12.0905 236.32 13.3579 236.32 14.486C236.115 18.5213 235.338 22.5071 234.013 26.3243C234.248 26.6536 234.557 26.9221 234.917 27.1074C235.276 27.2926 235.675 27.3891 236.079 27.389C236.713 27.389 237.258 26.9073 237.841 25.5384C238.602 23.7513 241.34 12.1285 244.179 12.1285C245.181 12.1285 245.447 13.1805 245.447 14.486C245.447 17.6167 244.052 20.3418 244.052 23.2316C244.128 25.4877 244.851 27.3129 247.437 27.3129ZM203.996 13.3706C204.227 12.9641 204.503 12.5856 204.82 12.2426C204.976 12.0549 205.169 11.9017 205.387 11.7926C205.606 11.6835 205.844 11.6209 206.088 11.6088C206.633 11.6088 206.874 12.1792 206.874 13.0918C206.874 16.5266 205.15 19.7207 205.15 23.1682C205.15 25.4244 206.139 27.2369 208.42 27.2369C211.374 27.2369 212.92 24.6005 214.454 20.7727H214.606C214.473 21.4275 214.409 22.0945 214.416 22.7627C214.416 24.892 215.062 27.1735 217.496 27.1735C219.499 27.1735 220.475 25.9947 221.236 24.385C221.645 23.476 221.993 22.5401 222.275 21.5839L221.692 21.4318C221.236 22.6993 220.285 25.7159 218.802 25.7159C217.864 25.7159 217.8 24.2329 217.8 23.5358C217.8 19.9996 219.195 13.2946 220.843 10.7216C220.363 10.5493 219.856 10.4676 219.347 10.4808C218.722 10.4838 218.115 10.6893 217.617 11.0663C217.119 11.4434 216.756 11.9717 216.584 12.5721C215.392 15.7281 213.655 21.8627 211.513 24.5371C211.328 24.8074 211.085 25.0337 210.802 25.2002C210.52 25.3666 210.204 25.4691 209.878 25.5004C208.877 25.5004 208.61 24.1062 208.61 23.257C208.61 19.6827 210.258 16.514 210.258 13.1171C210.284 12.7686 210.238 12.4184 210.123 12.0885C210.007 11.7587 209.824 11.4563 209.586 11.2004C209.348 10.9445 209.06 10.7406 208.739 10.6015C208.419 10.4623 208.073 10.391 207.723 10.392C206.72 10.3385 205.733 10.6541 204.947 11.2793C204.359 11.7695 203.866 12.3621 203.489 13.0284L203.996 13.3706ZM189.825 14.1818C189.825 12.2679 189.153 10.3794 187.049 10.3794C186.055 10.3412 185.082 10.6655 184.311 11.2919C183.747 11.7579 183.271 12.3201 182.903 12.9523L183.36 13.2946C183.88 12.3186 184.627 11.5328 185.426 11.5328C186.491 11.5328 186.491 13.1678 186.491 13.8269C186.491 17.8955 184.146 25.5511 183.816 26.0961C184.033 26.3912 184.305 26.6405 184.619 26.8297C184.932 27.019 185.28 27.1444 185.641 27.1989C186.909 27.1989 187.467 25.8553 187.771 24.854C188.075 23.8527 188.557 22.0275 189.039 19.9615C189.381 19.9615 189.748 19.9615 190.103 19.9615C191.593 20.009 193.072 19.7096 194.426 19.087C194.185 20.4308 194.045 21.7908 194.008 23.1556C194.008 25.6272 194.857 27.2369 197.291 27.2369C199.243 27.2369 200.396 25.7793 201.334 23.333C201.534 22.8183 201.707 22.2937 201.854 21.7613L201.271 21.5712C201.055 22.2176 200.878 22.7626 200.662 23.2443C199.902 25.0441 199.167 25.7793 198.381 25.7793C197.595 25.7793 197.405 24.7653 197.405 23.6499C197.405 18.8715 199.357 12.2426 200.51 10.6582C200.065 10.4914 199.592 10.4097 199.116 10.4174C197.709 10.4174 196.834 11.0511 196.137 12.7749C195.522 14.3611 195.03 15.9926 194.667 17.6547C193.767 18.6053 191.815 18.8335 190.446 18.8335C190.103 18.8335 189.647 18.8335 189.254 18.8335C189.594 17.3179 189.785 15.7726 189.825 14.2198V14.1818ZM167.375 38.5935C165.365 39.9618 162.988 40.6908 160.556 40.6849C159.117 40.7382 157.693 40.3822 156.449 39.6582C155.875 39.3094 155.402 38.8177 155.075 38.2311C154.749 37.6446 154.58 36.9833 154.585 36.312C154.582 35.7871 154.684 35.2668 154.884 34.7815C155.084 34.2963 155.379 33.8557 155.752 33.4856C158.147 30.9506 162.964 30.9506 165.575 30.9506C167.592 30.9611 169.602 31.1862 171.571 31.6224C171.756 31.6433 171.938 31.6816 172.116 31.7364C171.251 34.4348 169.601 36.8135 167.375 38.5682V38.5935ZM165.297 29.4676C161.646 29.4676 157.475 30.1394 155.156 32.9025C154.335 33.8588 153.886 35.0776 153.888 36.3374C153.877 37.1108 154.055 37.8752 154.406 38.5643C154.757 39.2535 155.271 39.8465 155.904 40.2919C157.575 41.4063 159.548 41.9814 161.557 41.9397C168.706 41.9397 172.725 37.8584 175.032 32.4462C177.159 33.1103 179.225 33.9585 181.205 34.9812L181.509 34.4995C179.546 33.3583 177.505 32.3587 175.399 31.5083C175.774 30.5451 176.1 29.5637 176.375 28.5677C177.529 24.309 178.074 19.6954 178.911 15.8929C179.179 14.1209 179.745 12.4069 180.584 10.823C180.107 10.6567 179.605 10.5752 179.101 10.5822C178.416 10.5799 177.751 10.8147 177.22 11.2468C176.688 11.6788 176.323 12.2814 176.185 12.9523C175.425 14.9043 172.382 25.6272 169.708 25.6272C168.592 25.6272 168.44 24.1315 168.44 23.257C168.604 20.8411 169.003 18.4469 169.632 16.1084C169.827 15.1653 169.937 14.2066 169.961 13.2439C170.002 12.8918 169.966 12.5352 169.855 12.1984C169.745 11.8617 169.563 11.5527 169.323 11.2927C169.082 11.0327 168.788 10.8278 168.46 10.692C168.133 10.5562 167.78 10.4928 167.426 10.5061C166.554 10.4958 165.697 10.7365 164.958 11.1994C164.218 11.6623 163.627 12.328 163.256 13.1171L163.712 13.4593C163.928 13.0585 164.201 12.6913 164.523 12.3693C164.677 12.1788 164.87 12.0227 165.088 11.9114C165.307 11.8 165.546 11.7358 165.791 11.7229C166.513 11.7229 166.615 12.6355 166.615 13.1551C166.615 16.2225 164.967 20.0629 164.967 23.295C164.967 25.7286 166.095 27.3763 168.377 27.3763C171.749 27.3763 173.523 22.7753 174.715 19.9489H174.905C174.411 22.5852 174.018 25.361 173.32 28.01C173.067 28.8593 172.864 29.7085 172.585 30.545C172.409 30.4768 172.226 30.4258 172.04 30.3929C169.849 29.7574 167.578 29.4332 165.297 29.4296V29.4676ZM106.848 27.3763C109.015 27.3763 110.169 25.6652 111.107 23.9161C112.842 20.1598 114.062 16.1861 114.732 12.1031H114.91C115.105 12.5803 115.179 13.0986 115.125 13.6114C115.125 16.3238 114.669 18.7701 114.669 21.2163C114.669 24.1062 115.214 26.6538 118.142 26.6538C121.729 26.6538 123.136 20.6713 124.011 18.2631C124.521 16.6555 125.139 15.0845 125.862 13.5607C126.167 12.9842 126.601 12.4855 127.129 12.1031H127.256C127.015 12.7749 126.28 14.6381 125.697 16.5647C125.055 18.6762 124.689 20.8616 124.607 23.0668C124.607 25.3103 125.367 27.2622 127.801 27.2622C129.905 27.2622 131.084 25.8933 132.098 24.309C132.195 25.1311 132.594 25.888 133.217 26.4335C133.839 26.9789 134.642 27.2742 135.47 27.2622C137.929 27.2622 139.095 25.5891 140.033 23.802C141.765 20.0452 142.98 16.0716 143.646 11.9891H143.836C144.025 12.468 144.099 12.9846 144.052 13.4973C144.052 16.2098 143.595 18.656 143.595 21.1022C143.595 23.9921 144.14 26.5398 147.056 26.5398C150.656 26.5398 152.05 20.5572 152.925 18.149C153.434 16.5394 154.056 14.968 154.788 13.4467C155.09 12.8675 155.524 12.368 156.056 11.9891H156.17C155.929 12.6608 155.206 14.524 154.623 16.4506C153.976 18.5607 153.609 20.7469 153.533 22.9528C153.533 25.1962 154.357 27.0848 156.778 27.0848C159.199 27.0848 160.34 24.892 161.443 21.4952L160.822 21.3431C160.442 22.4965 159.339 25.6779 157.944 25.6779C156.88 25.6779 156.816 23.8273 156.816 23.219C156.905 19.4165 158.084 13.4213 159.643 10.5441C158.943 10.2762 158.199 10.1428 157.45 10.1512C154.23 10.1512 152.836 15.3986 151.974 17.8575C151.112 20.3164 149.756 25.0314 147.842 25.0314C146.777 25.0314 146.714 23.9414 146.714 23.1429C146.714 20.139 147.411 17.4012 147.411 14.6381C147.411 11.875 146.752 10.1512 143.849 10.1512C142.84 10.1025 141.841 10.3613 140.983 10.8932C140.125 11.4251 139.449 12.2051 139.045 13.1298L139.539 13.396C139.832 12.7729 140.288 12.241 140.86 11.857C141.431 11.4731 142.096 11.2515 142.784 11.2159V11.1272C142.353 13.0664 141.39 18.6307 139.615 22.2937C138.918 23.7513 137.764 25.8807 136.154 25.8807C134.545 25.8807 133.898 23.3457 133.924 20.9375L133.378 20.7727C133.065 21.0925 132.792 21.4501 132.567 21.8374C132.041 22.9455 131.385 23.9878 130.615 24.9427C130.21 25.3469 129.686 25.6093 129.119 25.6905C127.966 25.6905 127.852 23.84 127.852 23.2316C127.94 19.4292 129.119 13.434 130.678 10.5568C129.983 10.2877 129.243 10.1543 128.498 10.1639C125.266 10.1639 123.871 15.4113 123.022 17.8702C122.173 20.3291 120.804 25.0441 118.877 25.0441C117.812 25.0441 117.762 23.9541 117.762 23.1556C117.762 20.1516 118.459 17.4139 118.459 14.6508C118.459 11.8877 117.787 10.1639 114.897 10.1639C113.888 10.1116 112.887 10.3688 112.028 10.9012C111.17 11.4335 110.494 12.2155 110.093 13.1425L110.574 13.4086C110.868 12.7837 111.327 12.2506 111.901 11.8665C112.475 11.4825 113.142 11.2619 113.832 11.2286V11.1398C113.414 13.0791 112.438 18.6433 110.676 22.3064C109.966 23.764 108.812 25.8933 107.203 25.8933C106.226 25.8933 105.808 25.1075 105.529 24.0682C105.328 23.0547 105.264 22.0187 105.339 20.9882L104.807 20.8107C104.331 21.1361 103.935 21.5653 103.65 22.0659C103.365 22.5665 103.197 23.1255 103.159 23.7006C103.109 24.1967 103.171 24.6976 103.339 25.167C103.507 25.6364 103.777 26.0626 104.13 26.4145C104.483 26.7664 104.91 27.0353 105.38 27.2017C105.85 27.3681 106.352 27.4277 106.848 27.3763ZM92.0674 3.82647C91.0852 4.16671 90.1486 4.62646 89.2787 5.19535C85.7168 7.62892 83.9168 16.0197 83.9168 20.8361C83.9168 24.2329 84.9816 27.3763 88.759 27.3763C92.5364 27.3763 94.8435 20.8614 95.8702 18.0983L98.0378 12.3186H98.2533C97.0902 15.5358 96.3406 18.8876 96.0223 22.2937C96.0223 24.6385 96.7322 27.3636 99.673 27.3636C102.969 27.3636 103.818 23.6753 104.338 21.4572L103.729 21.3684C103.362 22.8514 102.576 25.9314 100.75 25.9314C99.4829 25.9314 99.4829 23.3964 99.4829 22.5852C99.4829 17.4392 101.283 10.8103 102.525 6.76702C102.742 6.15079 102.866 5.50578 102.893 4.85313C102.893 3.83914 102.5 3.07866 101.042 3.07866C100.7 3.07866 100.041 3.07864 99.7744 3.14202C99.2679 5.66678 98.5989 8.15622 97.7716 10.5948C96.9857 13.003 96.1237 15.3986 95.2364 17.68C94.3491 19.9615 92.2195 25.5638 89.8745 25.5638C87.8717 25.5638 87.783 22.4331 87.783 21.2163C87.7808 16.6553 88.6276 12.1336 90.2801 7.88241C91.2815 5.62629 92.435 3.90251 93.9942 3.35749L93.7407 2.62237C93.2916 2.69038 92.8385 2.72849 92.3843 2.73643C89.8491 2.73643 87.8717 0.94928 85.4125 0.94928C84.405 0.962926 83.4243 1.27646 82.5957 1.84988C81.7671 2.42329 81.1282 3.23058 80.7605 4.1687C80.2334 5.30308 79.9732 6.54312 79.9999 7.79368C79.9819 9.00633 80.1971 10.2112 80.6337 11.3426L81.1788 11.1398C80.8018 10.1796 80.6166 9.15472 80.6337 8.12324C80.6063 7.01034 80.9252 5.91641 81.5464 4.99255C81.9078 4.5514 82.3717 4.2053 82.8975 3.98438C83.4233 3.76347 83.9952 3.67445 84.5633 3.72507C85.9956 3.72507 87.3013 4.15601 88.6703 4.15601C89.8135 4.18725 90.9514 3.989 92.0167 3.57298L92.0674 3.82647Z" fill="#00A3D4"/>
<path fill-rule="evenodd" clip-rule="evenodd" d="M265.627 51.1416C265.247 51.1416 265.145 50.9135 265.145 50.6219C265.145 49.4939 266.806 48.67 267.883 48.2771C267.427 49.7094 266.628 51.1416 265.627 51.1416ZM263.269 44.9309C262.893 48.8386 261.985 52.6766 260.569 56.3383C260.675 56.4845 260.81 56.608 260.964 56.7016C261.119 56.7952 261.29 56.857 261.469 56.8833C262.103 56.8833 262.331 56.2876 262.496 55.8313C263.193 53.9301 263.954 50.66 264.765 48.3531C265.05 47.5352 265.385 46.7353 265.766 45.9576C266.299 44.9056 267.034 44.0184 267.541 44.0184C268.048 44.0184 268.314 44.7915 268.314 45.6661C268.313 46.3917 268.206 47.1132 267.997 47.8081C267.296 48.0223 266.627 48.3292 266.007 48.7207C265.672 48.919 265.385 49.1888 265.165 49.5108C264.946 49.8329 264.801 50.1993 264.74 50.5839C264.734 50.7241 264.758 50.8639 264.81 50.9942C264.862 51.1245 264.94 51.2425 265.041 51.3405C265.141 51.4385 265.261 51.5143 265.393 51.563C265.524 51.6117 265.664 51.6322 265.804 51.6232C268.035 51.6232 270.089 48.8728 270.089 45.8942C270.089 44.4113 269.468 43.1945 268.111 43.1945C266.375 43.1945 265.285 45.8689 264.638 47.4406H264.562C264.764 46.6876 264.875 45.9131 264.892 45.1337C264.892 44.1578 264.575 43.2199 263.535 43.2199C263.193 43.2051 262.853 43.2763 262.545 43.4268C262.237 43.5774 261.972 43.8025 261.773 44.0817C261.659 44.2278 261.554 44.3801 261.457 44.538L261.685 44.7155C261.951 44.2212 262.319 43.8282 262.724 43.8282C263.13 43.8282 263.269 44.6394 263.269 44.9309ZM258.326 51.6866C259.53 51.6866 260.126 50.5839 260.671 48.8855L260.379 48.8094C259.885 50.3431 259.327 50.9261 258.909 50.9261C258.49 50.9261 258.402 50.5079 258.402 49.9629C258.402 48.3531 259.124 46.9209 259.124 45.3872C259.124 44.1198 258.592 43.2199 257.489 43.2199C255.714 43.2199 254.878 45.514 254.383 46.8068H254.307C254.418 46.3161 254.474 45.8143 254.472 45.3112C254.472 44.0437 253.978 43.2325 252.888 43.2325C251.113 43.2325 250.264 45.5267 249.782 46.8195H249.693C249.857 46.237 249.951 45.637 249.972 45.0323C249.972 44.1198 249.655 43.2325 248.603 43.2325C248.108 43.2057 247.62 43.3638 247.234 43.6761C246.948 43.916 246.712 44.2086 246.537 44.538L246.765 44.7028C247.031 44.2212 247.399 43.8282 247.805 43.8282C248.21 43.8282 248.337 44.6141 248.337 44.9309C248.206 47.0626 247.78 49.1656 247.069 51.1796C247.177 51.3273 247.313 51.4516 247.47 51.5453C247.627 51.6389 247.801 51.6999 247.982 51.7247C248.628 51.7247 248.895 51.0656 249.047 50.5586C249.338 49.646 250.758 44.0817 252.127 44.0817C252.672 44.0817 252.786 44.7155 252.786 45.2732C252.683 47.296 252.29 49.2935 251.62 51.205C251.739 51.3682 251.896 51.5006 252.077 51.591C252.257 51.6814 252.457 51.7272 252.659 51.7247C252.989 51.7247 253.255 51.4838 253.547 50.7994C253.927 49.9122 255.296 44.0944 256.741 44.0944C257.248 44.0944 257.4 44.6268 257.4 45.2732C257.4 46.8448 256.69 48.201 256.69 49.646C256.665 50.774 257.033 51.6866 258.326 51.6866ZM239.768 45.1211C239.768 44.1578 239.438 43.2199 238.386 43.2199C237.889 43.199 237.402 43.3614 237.017 43.6761C236.734 43.9187 236.498 44.2108 236.32 44.538L236.548 44.7028C236.802 44.2212 237.169 43.8282 237.575 43.8282C237.981 43.8282 238.107 44.6394 238.107 44.9817C237.936 47.0763 237.489 49.1391 236.776 51.1163C236.998 51.4103 237.325 51.6059 237.689 51.6613C238.336 51.6613 238.602 50.9895 238.754 50.4825C238.906 49.9755 239.147 49.0756 239.375 48.0363C239.552 48.0495 239.73 48.0495 239.907 48.0363C240.65 48.0585 241.388 47.9066 242.062 47.5927C241.943 48.2628 241.871 48.9404 241.847 49.6206C241.847 50.8881 242.278 51.6613 243.495 51.6613C244.471 51.6613 245.041 50.9388 245.523 49.722C245.612 49.4812 245.7 49.215 245.776 48.9235L245.497 48.8348C245.383 49.1517 245.295 49.4305 245.181 49.6713C244.8 50.5712 244.445 50.9388 244.04 50.9388C243.634 50.9388 243.558 50.4318 243.558 49.8741C243.61 47.622 244.137 45.4063 245.105 43.3719C244.881 43.2929 244.645 43.2543 244.407 43.2579C243.71 43.2579 243.267 43.5747 242.912 44.4366C242.617 45.2352 242.376 46.0524 242.189 46.8829C241.573 47.3183 240.824 47.5245 240.072 47.4659H239.476C239.654 46.6964 239.752 45.9106 239.768 45.1211ZM233.43 43.1691C230.667 43.1691 229.044 46.4139 229.044 48.7841C228.986 49.1606 229.013 49.5453 229.124 49.9097C229.236 50.2741 229.427 50.6088 229.685 50.8889C229.944 51.169 230.262 51.3874 230.616 51.5277C230.97 51.6679 231.351 51.7266 231.731 51.6993C234.152 51.6993 235.103 49.3164 235.433 48.5686L235.116 48.4545C234.571 49.5446 233.62 50.9895 232.264 50.9895C231.174 50.9895 230.895 49.8741 230.895 48.9235C230.895 46.7942 232.023 43.6888 233.43 43.6888C233.899 43.6888 234.026 44.0817 234.026 44.4746C234.006 45.1173 233.752 45.7305 233.31 46.1978C232.868 46.6651 232.271 46.954 231.63 47.0096C231.693 47.2378 231.744 47.3265 232.036 47.3265C233.43 47.3265 235.331 46.4139 235.331 44.7915C235.344 43.6128 234.368 43.1691 233.392 43.1691H233.43ZM224.367 48.4419C224.271 48.8575 224.224 49.2829 224.227 49.7094C224.227 50.5586 224.493 51.5726 225.698 51.5726C225.988 51.5719 226.274 51.4985 226.528 51.359C226.783 51.2195 226.999 51.0184 227.155 50.774H227.269C227.079 51.8514 226.585 52.7133 225.381 52.7133C224.455 52.7133 223.454 52.1683 222.567 52.1683C220.653 52.1683 219.816 53.233 219.727 55.7933H219.968C220.108 54.285 220.615 53.7146 222.11 53.7146C223.137 53.7146 223.999 54.0061 224.886 54.0061C226.775 54.0061 227.422 52.4091 227.637 50.7614C227.726 50.1783 227.776 49.8361 227.802 49.4939H227.498C227.345 50.0262 227.003 50.9135 226.496 50.9135C225.989 50.9135 225.913 50.2164 225.913 49.8488C225.958 47.6189 226.476 45.424 227.434 43.41C227.194 43.2893 226.93 43.2243 226.661 43.2199C225.672 43.2199 225.292 44.2972 225 45.1337C224.367 46.9336 223.175 50.7487 221.996 50.7487C221.426 50.7487 221.35 50.0009 221.35 49.6206C221.35 47.8715 222.199 46.2871 222.199 44.5507C222.217 44.3739 222.197 44.1954 222.142 44.0267C222.086 43.8579 221.995 43.7028 221.876 43.5713C221.756 43.4399 221.61 43.335 221.448 43.2635C221.285 43.1921 221.109 43.1556 220.931 43.1565C220.48 43.1381 220.035 43.2671 219.664 43.524C219.295 43.8051 219.01 44.1822 218.84 44.6141L219.068 44.7662C219.18 44.5236 219.325 44.2975 219.499 44.0944C219.569 44.0007 219.658 43.9236 219.761 43.8688C219.864 43.814 219.978 43.7828 220.095 43.7775C220.475 43.7775 220.5 44.2465 220.5 44.5127C220.5 46.2745 219.6 47.8588 219.6 49.5826C219.6 50.698 220.108 51.6359 221.236 51.6359C222.706 51.6359 223.568 50.2417 224.303 48.3912L224.367 48.4419ZM205.036 44.7028C205.159 44.505 205.299 44.3183 205.454 44.1451C205.531 44.0498 205.627 43.9721 205.736 43.9174C205.846 43.8627 205.966 43.8323 206.088 43.8282C206.367 43.8282 206.481 44.1198 206.481 44.576C206.481 46.2872 205.619 47.8842 205.619 49.646C205.619 50.774 206.126 51.6866 207.267 51.6866C208.737 51.6866 209.51 50.3558 210.271 48.4419H210.347C210.283 48.7717 210.253 49.1072 210.258 49.4432C210.258 50.5079 210.575 51.6486 211.792 51.6486C212.214 51.6449 212.624 51.5064 212.961 51.2532C213.299 51.0001 213.546 50.6457 213.668 50.2417C213.874 49.7897 214.048 49.3239 214.188 48.8475L213.896 48.7714C213.668 49.4052 213.199 50.9135 212.451 50.9135C211.982 50.9135 211.944 50.1656 211.944 49.8234C212.003 47.6035 212.521 45.4197 213.465 43.41C213.229 43.3288 212.98 43.2902 212.73 43.2959C212.417 43.2963 212.112 43.3977 211.861 43.5849C211.61 43.7721 211.426 44.0352 211.336 44.3352C210.74 45.9196 209.878 48.9869 208.801 50.3177C208.708 50.4557 208.586 50.5716 208.444 50.657C208.301 50.7425 208.142 50.7954 207.977 50.8121C207.482 50.8121 207.368 50.1149 207.368 49.684C207.368 47.8969 208.192 46.3125 208.192 44.6141C208.206 44.4393 208.184 44.2635 208.126 44.0978C208.069 43.9322 207.978 43.7802 207.859 43.6515C207.74 43.5229 207.595 43.4203 207.434 43.3504C207.273 43.2805 207.1 43.2446 206.925 43.2452C206.425 43.2188 205.933 43.3767 205.543 43.6888C205.249 43.9322 205.004 44.229 204.82 44.5634L205.036 44.7028ZM213.313 38.6189L213.034 38.5302C212.553 39.7976 211.703 41.1792 210.613 41.1792C209.84 41.1792 209.447 40.3173 209.27 39.4047C209.002 39.4884 208.771 39.6581 208.61 39.8874C208.45 40.1167 208.369 40.3926 208.382 40.6722C208.424 41.0458 208.611 41.3881 208.902 41.6252C209.194 41.8623 209.567 41.9753 209.941 41.9397C211.767 41.9397 212.933 40.0004 213.326 38.6189H213.313ZM194.794 44.7028C194.908 44.5028 195.044 44.3158 195.199 44.1451C195.278 44.0494 195.377 43.9717 195.488 43.9171C195.6 43.8624 195.722 43.8322 195.846 43.8282C196.112 43.8282 196.239 44.1198 196.239 44.576C196.239 46.2872 195.377 47.8842 195.377 49.646C195.377 50.774 195.871 51.6866 197.012 51.6866C198.482 51.6866 199.268 50.3558 200.029 48.4419H200.105C200.036 48.7711 200.002 49.1068 200.003 49.4432C200.003 50.5079 200.333 51.6486 201.55 51.6486C201.97 51.6442 202.378 51.5052 202.713 51.252C203.049 50.9987 203.294 50.6446 203.413 50.2417C203.625 49.792 203.798 49.3257 203.933 48.8475L203.641 48.7714C203.413 49.4052 202.944 50.9135 202.196 50.9135C201.727 50.9135 201.689 50.1656 201.689 49.8234C201.735 47.5925 202.244 45.3954 203.185 43.3719C202.944 43.2909 202.691 43.2523 202.437 43.2579C202.126 43.261 201.824 43.3636 201.576 43.5506C201.327 43.7376 201.145 43.9992 201.056 44.2972C200.46 45.8816 199.585 48.9489 198.52 50.2797C198.428 50.4177 198.306 50.5335 198.164 50.619C198.021 50.7044 197.862 50.7574 197.696 50.774C197.202 50.774 197.088 50.0769 197.088 49.646C197.088 47.8588 197.912 46.2745 197.912 44.576C197.926 44.4013 197.904 44.2255 197.846 44.0598C197.789 43.8941 197.698 43.7422 197.578 43.6135C197.459 43.4848 197.315 43.3823 197.154 43.3124C196.993 43.2424 196.82 43.2066 196.644 43.2072C196.141 43.18 195.645 43.3378 195.25 43.6508C194.96 43.8976 194.715 44.1937 194.527 44.5254L194.794 44.7028ZM190.015 46.1604C190.22 45.8748 190.44 45.5998 190.674 45.3365C191.067 44.8803 191.599 44.0691 192.119 44.0691C192.639 44.0691 192.765 45.045 192.765 45.4633L192.994 45.5267C193.32 45.1098 193.502 44.5984 193.513 44.0691C193.513 43.5114 193.234 43.1058 192.74 43.1058C191.751 43.1058 190.801 44.4493 190.306 45.0577C189.773 45.7638 189.197 46.4368 188.582 47.073C189.153 49.4178 189.673 51.6613 191.612 51.6613C193.108 51.6613 193.627 50.4825 193.957 49.2911L193.678 49.2277C193.412 50.1276 193.006 50.9135 192.411 50.9135C191.587 50.9135 191.029 49.4178 190.801 48.8094C190.479 47.9451 190.217 47.0601 190.015 46.1604ZM188.532 45.1084C188.532 44.1451 188.202 43.2199 187.15 43.2199C186.808 43.2085 186.469 43.2812 186.162 43.4315C185.855 43.5817 185.589 43.805 185.388 44.0817C185.278 44.2278 185.176 44.3802 185.084 44.538L185.312 44.7155C185.565 44.2212 185.933 43.8282 186.351 43.8282C186.77 43.8282 186.884 44.6141 186.884 44.9309C186.704 47.0501 186.252 49.1374 185.54 51.1416C185.763 51.4319 186.091 51.6231 186.453 51.674C187.112 51.674 187.391 51.0022 187.518 50.5079C188.051 48.7503 188.391 46.9398 188.532 45.1084ZM182.878 44.3606C182.844 45.1308 182.617 45.8802 182.219 46.5407L182.409 46.7054C182.409 46.7054 184.019 46.021 184.019 44.6901C184.019 43.6001 182.954 43.1565 182.118 43.1565C179.671 43.1565 177.859 46.3252 177.859 48.7841C177.796 49.1625 177.82 49.5501 177.929 49.9177C178.039 50.2853 178.23 50.6234 178.488 50.9065C178.747 51.1896 179.067 51.4103 179.423 51.552C179.779 51.6938 180.163 51.7528 180.546 51.7247C182.929 51.7247 183.778 49.6713 184.26 48.5813L183.968 48.4672C183.068 50.0896 182.295 51.0022 181.091 51.0022C179.887 51.0022 179.709 49.8741 179.709 48.9235C179.709 46.7688 180.812 43.6761 182.32 43.6761C182.764 43.6508 182.904 44.0057 182.904 44.3606H182.878ZM170.925 45.1211C170.925 44.1578 170.583 43.2199 169.543 43.2199C169.046 43.199 168.559 43.3614 168.174 43.6761C167.888 43.9153 167.651 44.2081 167.477 44.538L167.705 44.7028C167.959 44.2212 168.326 43.8282 168.732 43.8282C169.137 43.8282 169.264 44.6394 169.264 44.9817C169.093 47.0763 168.646 49.1391 167.933 51.1163C168.154 51.4103 168.482 51.6059 168.846 51.6613C169.492 51.6613 169.759 50.9895 169.911 50.4825C170.063 49.9755 170.304 49.0756 170.532 48.0363C170.709 48.0492 170.887 48.0492 171.064 48.0363C171.807 48.0585 172.545 47.9066 173.219 47.5927C173.1 48.2628 173.028 48.9404 173.004 49.6206C173.004 50.8881 173.435 51.6613 174.651 51.6613C175.628 51.6613 176.198 50.9388 176.68 49.722C176.768 49.4812 176.857 49.215 176.933 48.9235L176.642 48.8348C176.558 49.1198 176.457 49.3993 176.337 49.6713C175.957 50.5712 175.59 50.9388 175.197 50.9388C174.804 50.9388 174.715 50.4318 174.715 49.8741C174.767 47.622 175.294 45.4063 176.261 43.3719C176.037 43.2939 175.801 43.2553 175.564 43.2579C174.867 43.2579 174.423 43.5747 174.081 44.4366C173.776 45.2329 173.531 46.0505 173.346 46.8829C172.73 47.3183 171.981 47.5245 171.229 47.4659H170.633C170.804 46.6953 170.902 45.9102 170.925 45.1211ZM157.552 44.7028C157.662 44.5 157.798 44.3125 157.957 44.1451C158.034 44.0498 158.13 43.9721 158.239 43.9174C158.349 43.8627 158.469 43.8323 158.591 43.8282C158.87 43.8282 158.997 44.1198 158.997 44.576C158.997 46.2872 158.122 47.8842 158.122 49.646C158.122 50.774 158.629 51.6866 159.77 51.6866C161.24 51.6866 162.014 50.3558 162.774 48.4419H162.85C162.792 48.7725 162.762 49.1075 162.761 49.4432C162.761 50.5079 163.078 51.6486 164.295 51.6486C164.717 51.6429 165.125 51.5036 165.462 51.2508C165.8 50.998 166.048 50.6446 166.171 50.2417C166.372 49.7875 166.545 49.322 166.691 48.8475L166.399 48.7714C166.171 49.4052 165.69 50.9135 164.954 50.9135C164.485 50.9135 164.447 50.1656 164.447 49.8234C164.512 47.6043 165.03 45.4218 165.968 43.41C165.728 43.3289 165.475 43.2903 165.221 43.2959C164.909 43.2991 164.608 43.4016 164.359 43.5886C164.11 43.7756 163.928 44.0372 163.839 44.3352C163.256 45.9196 162.381 48.9869 161.304 50.3177C161.214 50.4554 161.094 50.5712 160.954 50.6567C160.814 50.7423 160.656 50.7953 160.492 50.8121C159.985 50.8121 159.884 50.1149 159.884 49.684C159.884 47.8969 160.708 46.3125 160.708 44.6141C160.722 44.4393 160.7 44.2635 160.642 44.0978C160.585 43.9322 160.494 43.7802 160.374 43.6515C160.255 43.5229 160.111 43.4203 159.95 43.3504C159.789 43.2805 159.616 43.2446 159.44 43.2452C158.941 43.2188 158.449 43.3767 158.059 43.6888C157.765 43.9322 157.52 44.229 157.336 44.5634L157.552 44.7028ZM152.849 48.4419C152.764 48.859 152.722 49.2837 152.722 49.7094C152.722 50.5586 152.988 51.5726 154.192 51.5726C154.483 51.5708 154.768 51.4969 155.022 51.3575C155.277 51.2181 155.493 51.0176 155.65 50.774H155.714C155.511 51.8514 155.029 52.7133 153.825 52.7133C152.9 52.7133 151.898 52.1683 151.011 52.1683C149.097 52.1683 148.26 53.233 148.171 55.7933H148.412C148.552 54.285 149.046 53.7146 150.554 53.7146C151.569 53.7146 152.443 54.0061 153.33 54.0061C155.219 54.0061 155.866 52.4091 156.081 50.7614C156.17 50.1783 156.208 49.8361 156.246 49.4939H155.942C155.79 50.0262 155.447 50.9135 154.94 50.9135C154.433 50.9135 154.357 50.2164 154.357 49.8488C154.402 47.6189 154.92 45.424 155.878 43.41C155.638 43.2893 155.374 43.2243 155.105 43.2199C154.116 43.2199 153.736 44.2972 153.445 45.1337C152.811 46.9336 151.619 50.7487 150.44 50.7487C149.87 50.7487 149.794 50.0009 149.794 49.6206C149.794 47.8715 150.643 46.2871 150.643 44.5507C150.661 44.3739 150.641 44.1954 150.586 44.0267C150.53 43.8579 150.439 43.7028 150.32 43.5713C150.2 43.4399 150.055 43.335 149.892 43.2635C149.729 43.1921 149.553 43.1556 149.376 43.1565C148.924 43.1381 148.479 43.2671 148.108 43.524C147.739 43.8051 147.454 44.1822 147.284 44.6141L147.512 44.7662C147.62 44.5209 147.765 44.2942 147.943 44.0944C148.013 44.0007 148.102 43.9236 148.205 43.8688C148.308 43.814 148.422 43.7828 148.539 43.7775C148.919 43.7775 148.945 44.2465 148.945 44.5127C148.945 46.2745 148.045 47.8588 148.045 49.5826C148.045 50.698 148.552 51.6359 149.667 51.6359C151.15 51.6359 152 50.2417 152.747 48.3912L152.849 48.4419ZM137.333 44.7028C137.456 44.505 137.596 44.3183 137.752 44.1451C137.828 44.0498 137.925 43.9721 138.034 43.9174C138.143 43.8627 138.263 43.8323 138.386 43.8282C138.664 43.8282 138.778 44.1198 138.778 44.576C138.778 46.2872 137.917 47.8842 137.917 49.646C137.917 50.774 138.424 51.6866 139.564 51.6866C141.035 51.6866 141.808 50.3558 142.569 48.4419H142.645C142.58 48.7717 142.551 49.1072 142.556 49.4432C142.556 50.5079 142.873 51.6486 144.09 51.6486C144.512 51.6449 144.921 51.5064 145.259 51.2532C145.596 51.0001 145.844 50.6457 145.966 50.2417C146.172 49.7897 146.345 49.3239 146.485 48.8475L146.194 48.7714C145.966 49.4052 145.497 50.9135 144.749 50.9135C144.28 50.9135 144.242 50.1656 144.242 49.8234C144.3 47.6035 144.818 45.4197 145.763 43.41C145.522 43.3289 145.269 43.2903 145.015 43.2959C144.704 43.2991 144.402 43.4016 144.153 43.5886C143.905 43.7756 143.723 44.0372 143.633 44.3352C143.038 45.9196 142.176 48.9869 141.098 50.3177C141.006 50.4557 140.884 50.5716 140.741 50.657C140.599 50.7425 140.439 50.7954 140.274 50.8121C139.767 50.8121 139.666 50.1149 139.666 49.684C139.666 47.8969 140.49 46.3125 140.49 44.6141C140.504 44.4393 140.481 44.2635 140.424 44.0978C140.367 43.9322 140.275 43.7802 140.156 43.6515C140.037 43.5229 139.893 43.4203 139.732 43.3504C139.571 43.2805 139.397 43.2446 139.222 43.2452C138.723 43.2188 138.231 43.3767 137.84 43.6888C137.547 43.9322 137.302 44.229 137.118 44.5634L137.333 44.7028ZM125.418 58.4296C124.15 58.4296 122.553 57.7452 122.553 56.3256C122.553 55.0581 123.403 54.4624 124.442 54.0188C125.553 53.6315 126.726 53.4511 127.902 53.4865C129.233 53.4823 130.558 53.6528 131.845 53.9935C131.348 55.2958 130.467 56.4169 129.32 57.2089C128.173 58.0009 126.812 58.4265 125.418 58.4296ZM133.657 46.7054C133.468 49.0399 132.934 51.3335 132.073 53.5118C130.748 53.0489 129.356 52.809 127.953 52.802C126.474 52.7418 125.007 53.0834 123.707 53.7907C123.248 54.042 122.861 54.4072 122.583 54.8511C122.306 55.295 122.147 55.8027 122.122 56.3256C122.123 56.7198 122.226 57.1072 122.421 57.4494C122.617 57.7917 122.898 58.0771 123.238 58.2775C124.073 58.7595 125.024 59.0049 125.988 58.9873C127.503 58.975 128.984 58.5401 130.265 57.7317C131.546 56.9234 132.576 55.7736 133.239 54.4117C134.116 54.7209 134.965 55.1068 135.774 55.5651L135.926 55.3243C135.145 54.8475 134.331 54.4241 133.493 54.0568C134.843 51.2956 135.533 48.2581 135.508 45.1844C135.508 44.1324 135.369 43.3466 134.24 43.3466H133.924C133.835 45.2732 132.301 50.7233 130.412 50.7233C129.639 50.7233 129.563 49.646 129.563 49.2277C129.563 47.1617 130.526 43.955 132.301 43.955C132.518 43.9735 132.727 44.0443 132.91 44.1613C133.093 44.2783 133.245 44.438 133.353 44.6268L133.569 44.462C133.433 44.0981 133.191 43.7831 132.875 43.5573C132.559 43.3315 132.182 43.2052 131.794 43.1945C129.069 43.1945 127.788 46.9969 127.788 49.0376C127.788 50.5712 128.498 51.5726 129.867 51.5726C131.477 51.5726 132.732 49.684 133.67 46.5913L133.657 46.7054ZM124.29 43.1691C121.514 43.1691 119.891 46.4139 119.891 48.7841C119.833 49.1606 119.861 49.5453 119.972 49.9097C120.083 50.2741 120.274 50.6088 120.533 50.8889C120.791 51.169 121.109 51.3874 121.463 51.5277C121.817 51.6679 122.199 51.7266 122.579 51.6993C125 51.6993 125.963 49.3164 126.28 48.5686L125.976 48.4545C125.431 49.5446 124.467 50.9895 123.124 50.9895C122.021 50.9895 121.742 49.8741 121.742 48.9235C121.742 46.7942 122.87 43.6888 124.341 43.6888C124.81 43.6888 124.924 44.0817 124.924 44.4746C124.907 45.1162 124.655 45.7292 124.216 46.1968C123.776 46.6644 123.18 46.9537 122.541 47.0096C122.604 47.2378 122.642 47.3265 122.934 47.3265C124.341 47.3265 126.242 46.4139 126.242 44.7915C126.242 43.6128 125.266 43.1691 124.29 43.1691ZM106.163 51.75C108.774 51.75 109.421 46.7941 109.966 43.9677H110.105C110.211 44.2467 110.258 44.5443 110.245 44.8422C110.245 46.1984 110.017 47.4406 110.017 48.6447C110.017 50.0896 110.283 51.3698 111.741 51.3698C113.541 51.3698 114.276 48.3658 114.681 47.1617C114.941 46.3516 115.254 45.5597 115.619 44.7915C115.761 44.5085 115.964 44.2614 116.215 44.0691H116.279C116.152 44.4113 115.797 45.3366 115.493 46.3125C115.175 47.3712 114.992 48.4656 114.948 49.5699C114.948 50.698 115.366 51.6486 116.583 51.6486C117.8 51.6486 118.357 50.5459 118.915 48.8475L118.598 48.7714C118.408 49.3418 117.863 50.9388 117.153 50.9388C116.634 50.9388 116.596 50.0136 116.596 49.6713C116.65 47.4864 117.133 45.3334 118.015 43.3339C117.664 43.1953 117.29 43.1264 116.912 43.1311C115.303 43.1311 114.605 45.7675 114.174 46.9969C113.743 48.2264 113.072 50.5966 112.108 50.5966C111.589 50.5966 111.551 49.9755 111.551 49.608C111.551 48.1123 111.893 46.7561 111.893 45.3872C111.893 44.0184 111.563 43.1311 110.118 43.1311C109.613 43.1121 109.114 43.2444 108.685 43.5108C108.256 43.7773 107.916 44.1659 107.71 44.6268L107.963 44.7535C108.163 44.3584 108.477 44.032 108.863 43.8156C109.037 43.7268 109.226 43.675 109.421 43.6635C109.423 43.9315 109.398 44.1992 109.345 44.462C109.243 45.0704 109.129 45.8435 109.041 46.2491C108.812 47.3392 108.153 51.0275 106.442 51.0275C105.504 51.0275 105.314 49.177 105.377 48.5686L105.111 48.4799C104.887 48.6621 104.707 48.8922 104.585 49.1533C104.462 49.4144 104.399 49.6997 104.401 49.9882C104.386 50.2234 104.422 50.4591 104.505 50.6796C104.588 50.9001 104.718 51.1003 104.884 51.267C105.051 51.4336 105.251 51.5629 105.472 51.6462C105.692 51.7295 105.928 51.7649 106.163 51.75Z" fill="#00A3D4"/>
</g>
<path fill-rule="evenodd" clip-rule="evenodd" d="M56.3227 10.4468C56.3227 13.0643 54.0627 15.183 51.2707 15.183C48.4827 15.183 46.2227 13.0643 46.2227 10.4468C46.2227 7.82926 48.4827 5.71051 51.2707 5.71051C54.0627 5.71051 56.3227 7.82926 56.3227 10.4468Z" fill="#929393"/>
<mask id="mask0" mask-type="alpha" maskUnits="userSpaceOnUse" x="0" y="3" width="58" height="55">
<path d="M0.000976562 3.75201H57.6V57.75H0.000976562V3.75201Z" fill="white"/>
</mask>
<g mask="url(#mask0)">
<path fill-rule="evenodd" clip-rule="evenodd" d="M39.401 42.7215L36.081 55.9028C32.129 58.0815 27.233 58.3478 23.037 56.6265L18.501 43.8353C18.437 41.334 19.393 38.9303 21.145 37.0853C25.609 40.314 31.933 39.9728 35.973 36.309C37.929 37.9553 39.161 40.2353 39.401 42.7215ZM28.085 22.7828C31.533 22.7828 34.329 25.404 34.329 28.6403C34.329 31.8728 31.533 34.494 28.085 34.494C24.637 34.494 21.837 31.8728 21.837 28.6403C21.837 25.404 24.637 22.7828 28.085 22.7828ZM43.201 17.2515C43.201 9.79653 36.753 3.75153 28.801 3.75153C20.849 3.75153 14.401 9.79653 14.401 17.2515C6.44898 17.2515 0.000976562 23.2965 0.000976562 30.7553C0.000976562 37.8878 5.90098 43.7265 13.377 44.214C13.189 40.1228 14.837 36.2003 17.869 33.324C17.221 32.079 16.813 30.6953 16.729 29.229C16.377 23.3453 21.177 18.3165 27.453 17.9903C33.789 17.664 39.097 22.2015 39.441 28.0478C39.525 29.4953 39.301 30.9165 38.793 32.2403C42.229 34.8465 45.389 39.9128 44.309 44.2103C51.745 43.6815 57.601 37.8615 57.601 30.7553C57.601 23.2965 51.153 17.2515 43.201 17.2515Z" fill="#00A3D4"/>
</g>
<defs>
<clipPath id="clip0">
<rect width="217" height="58" fill="white" transform="translate(80 1)"/>
</clipPath>
</defs>
</svg>
