<svg width="167" height="21" viewBox="0 0 167 21" fill="none" xmlns="http://www.w3.org/2000/svg">
<path fill-rule="evenodd" clip-rule="evenodd" d="M161.627 13.1416C161.247 13.1416 161.145 12.9135 161.145 12.6219C161.145 11.4939 162.806 10.67 163.883 10.2771C163.427 11.7094 162.628 13.1416 161.627 13.1416ZM159.269 6.93094C158.893 10.8386 157.985 14.6766 156.569 18.3383C156.675 18.4845 156.81 18.608 156.964 18.7016C157.119 18.7952 157.29 18.857 157.469 18.8833C158.103 18.8833 158.331 18.2876 158.496 17.8313C159.193 15.9301 159.954 12.66 160.765 10.3531C161.05 9.53523 161.385 8.73526 161.766 7.9576C162.299 6.90559 163.034 6.01835 163.541 6.01835C164.048 6.01835 164.314 6.79152 164.314 7.66608C164.313 8.39166 164.206 9.11319 163.997 9.80813C163.296 10.0223 162.627 10.3292 162.007 10.7207C161.672 10.919 161.385 11.1888 161.165 11.5108C160.946 11.8329 160.801 12.1993 160.74 12.5839C160.734 12.7241 160.758 12.8639 160.81 12.9942C160.862 13.1245 160.94 13.2425 161.041 13.3405C161.141 13.4385 161.261 13.5143 161.393 13.563C161.524 13.6117 161.664 13.6322 161.804 13.6232C164.035 13.6232 166.089 10.8728 166.089 7.89424C166.089 6.41129 165.468 5.1945 164.111 5.1945C162.375 5.1945 161.285 7.86889 160.638 9.44057H160.562C160.764 8.68763 160.875 7.91312 160.892 7.13374C160.892 6.15778 160.575 5.21985 159.535 5.21985C159.193 5.20515 158.853 5.27629 158.545 5.42683C158.237 5.57737 157.972 5.80251 157.773 6.08173C157.659 6.22777 157.554 6.38011 157.457 6.53803L157.685 6.71547C157.951 6.22115 158.319 5.82824 158.724 5.82824C159.13 5.82824 159.269 6.63942 159.269 6.93094ZM154.326 13.6866C155.53 13.6866 156.126 12.5839 156.671 10.8855L156.379 10.8094C155.885 12.3431 155.327 12.9261 154.909 12.9261C154.49 12.9261 154.402 12.5079 154.402 11.9629C154.402 10.3531 155.124 8.92089 155.124 7.38724C155.124 6.11975 154.592 5.21985 153.489 5.21985C151.714 5.21985 150.878 7.514 150.383 8.80683H150.307C150.418 8.31608 150.474 7.81435 150.472 7.31119C150.472 6.04371 149.978 5.23252 148.888 5.23252C147.113 5.23252 146.264 7.52667 145.782 8.8195H145.693C145.857 8.237 145.951 7.63703 145.972 7.03234C145.972 6.11976 145.655 5.23252 144.603 5.23252C144.108 5.20569 143.62 5.36379 143.234 5.67615C142.948 5.91599 142.712 6.20861 142.537 6.53803L142.765 6.70281C143.031 6.22116 143.399 5.82824 143.805 5.82824C144.21 5.82824 144.337 6.61407 144.337 6.93094C144.206 9.06255 143.78 11.1656 143.069 13.1796C143.177 13.3273 143.313 13.4516 143.47 13.5453C143.627 13.6389 143.801 13.6999 143.982 13.7247C144.628 13.7247 144.895 13.0656 145.047 12.5586C145.338 11.646 146.758 6.08173 148.127 6.08173C148.672 6.08173 148.786 6.71548 148.786 7.27317C148.683 9.29598 148.29 11.2935 147.62 13.205C147.739 13.3682 147.896 13.5006 148.077 13.591C148.257 13.6814 148.457 13.7272 148.659 13.7247C148.989 13.7247 149.255 13.4838 149.547 12.7994C149.927 11.9122 151.296 6.09442 152.741 6.09442C153.248 6.09442 153.4 6.62675 153.4 7.27317C153.4 8.84485 152.69 10.201 152.69 11.646C152.665 12.774 153.033 13.6866 154.326 13.6866ZM135.768 7.12108C135.768 6.15779 135.438 5.21985 134.386 5.21985C133.889 5.19899 133.402 5.36137 133.017 5.67615C132.734 5.91872 132.498 6.21078 132.32 6.53803L132.548 6.70281C132.802 6.22116 133.169 5.82824 133.575 5.82824C133.981 5.82824 134.107 6.63943 134.107 6.98165C133.936 9.07629 133.489 11.1391 132.776 13.1163C132.998 13.4103 133.325 13.6059 133.689 13.6613C134.336 13.6613 134.602 12.9895 134.754 12.4825C134.906 11.9755 135.147 11.0756 135.375 10.0363C135.552 10.0495 135.73 10.0495 135.907 10.0363C136.65 10.0585 137.388 9.90656 138.062 9.59266C137.943 10.2628 137.871 10.9404 137.847 11.6206C137.847 12.8881 138.278 13.6613 139.495 13.6613C140.471 13.6613 141.041 12.9388 141.523 11.722C141.612 11.4812 141.7 11.215 141.776 10.9235L141.497 10.8348C141.383 11.1517 141.295 11.4305 141.181 11.6713C140.8 12.5712 140.445 12.9388 140.04 12.9388C139.634 12.9388 139.558 12.4318 139.558 11.8741C139.61 9.62204 140.137 7.40627 141.105 5.37194C140.881 5.29291 140.645 5.25429 140.407 5.25788C139.71 5.25788 139.267 5.57474 138.912 6.43663C138.617 7.23521 138.376 8.05242 138.189 8.88288C137.573 9.31825 136.824 9.5245 136.072 9.46591H135.476C135.654 8.69638 135.752 7.91063 135.768 7.12108ZM129.43 5.16914C126.667 5.16914 125.044 8.41391 125.044 10.7841C124.986 11.1606 125.013 11.5453 125.124 11.9097C125.236 12.2741 125.427 12.6088 125.685 12.8889C125.944 13.169 126.262 13.3874 126.616 13.5277C126.97 13.6679 127.351 13.7266 127.731 13.6993C130.152 13.6993 131.103 11.3164 131.433 10.5686L131.116 10.4545C130.571 11.5446 129.62 12.9895 128.264 12.9895C127.174 12.9895 126.895 11.8741 126.895 10.9235C126.895 8.79415 128.023 5.68882 129.43 5.68882C129.899 5.68882 130.026 6.08173 130.026 6.47465C130.006 7.11731 129.752 7.7305 129.31 8.19781C128.868 8.66511 128.271 8.95399 127.63 9.00961C127.693 9.23776 127.744 9.32648 128.036 9.32648C129.43 9.32648 131.331 8.4139 131.331 6.79152C131.344 5.61276 130.368 5.16914 129.392 5.16914H129.43ZM120.367 10.4419C120.271 10.8575 120.224 11.2829 120.227 11.7094C120.227 12.5586 120.493 13.5726 121.698 13.5726C121.988 13.5719 122.274 13.4985 122.528 13.359C122.783 13.2195 122.999 13.0184 123.155 12.774H123.269C123.079 13.8514 122.585 14.7133 121.381 14.7133C120.455 14.7133 119.454 14.1683 118.567 14.1683C116.653 14.1683 115.816 15.233 115.727 17.7933H115.968C116.108 16.285 116.615 15.7146 118.11 15.7146C119.137 15.7146 119.999 16.0061 120.886 16.0061C122.775 16.0061 123.422 14.4091 123.637 12.7614C123.726 12.1783 123.776 11.8361 123.802 11.4939H123.498C123.345 12.0262 123.003 12.9135 122.496 12.9135C121.989 12.9135 121.913 12.2164 121.913 11.8488C121.958 9.6189 122.476 7.42401 123.434 5.40997C123.194 5.28926 122.93 5.22428 122.661 5.21985C121.672 5.21985 121.292 6.29721 121 7.13374C120.367 8.93357 119.175 12.7487 117.996 12.7487C117.426 12.7487 117.35 12.0009 117.35 11.6206C117.35 9.8715 118.199 8.28715 118.199 6.55069C118.217 6.37391 118.197 6.19537 118.142 6.02665C118.086 5.85793 117.995 5.70281 117.876 5.57134C117.756 5.43987 117.61 5.33499 117.448 5.26352C117.285 5.19205 117.109 5.15558 116.931 5.15647C116.48 5.13807 116.035 5.26709 115.664 5.52404C115.295 5.80513 115.01 6.18217 114.84 6.61407L115.068 6.76618C115.18 6.52356 115.325 6.29752 115.499 6.09442C115.569 6.00068 115.658 5.92359 115.761 5.86878C115.864 5.81397 115.978 5.78281 116.095 5.77755C116.475 5.77755 116.5 6.2465 116.5 6.51267C116.5 8.27447 115.6 9.85882 115.6 11.5826C115.6 12.698 116.108 13.6359 117.236 13.6359C118.706 13.6359 119.568 12.2417 120.303 10.3912L120.367 10.4419ZM101.036 6.70281C101.159 6.50496 101.299 6.31833 101.454 6.14511C101.531 6.04978 101.627 5.97211 101.736 5.91742C101.846 5.86273 101.966 5.83231 102.088 5.82824C102.367 5.82824 102.481 6.11976 102.481 6.57605C102.481 8.28715 101.619 9.88418 101.619 11.646C101.619 12.774 102.126 13.6866 103.267 13.6866C104.737 13.6866 105.51 12.3558 106.271 10.4419H106.347C106.283 10.7717 106.253 11.1072 106.258 11.4432C106.258 12.5079 106.575 13.6486 107.792 13.6486C108.214 13.6449 108.624 13.5064 108.961 13.2532C109.299 13.0001 109.546 12.6457 109.668 12.2417C109.874 11.7897 110.048 11.3239 110.188 10.8475L109.896 10.7714C109.668 11.4052 109.199 12.9135 108.451 12.9135C107.982 12.9135 107.944 12.1656 107.944 11.8234C108.003 9.60348 108.521 7.41975 109.465 5.40997C109.229 5.32884 108.98 5.29023 108.73 5.2959C108.417 5.29634 108.112 5.39766 107.861 5.58486C107.61 5.77206 107.426 6.03518 107.336 6.33522C106.74 7.91958 105.878 10.9869 104.801 12.3177C104.708 12.4557 104.586 12.5716 104.444 12.657C104.301 12.7425 104.142 12.7954 103.977 12.8121C103.482 12.8121 103.368 12.1149 103.368 11.684C103.368 9.89685 104.192 8.3125 104.192 6.61407C104.206 6.4393 104.184 6.26352 104.126 6.09784C104.069 5.93216 103.978 5.78018 103.859 5.65153C103.74 5.52287 103.595 5.42034 103.434 5.3504C103.273 5.28046 103.1 5.24463 102.925 5.24519C102.425 5.21881 101.933 5.37668 101.543 5.68882C101.249 5.93224 101.004 6.22897 100.82 6.56338L101.036 6.70281ZM109.313 0.618884L109.034 0.530151C108.553 1.79763 107.703 3.1792 106.613 3.1792C105.84 3.1792 105.447 2.3173 105.27 1.40472C105.002 1.48839 104.771 1.65811 104.61 1.88739C104.45 2.11667 104.369 2.39262 104.382 2.6722C104.424 3.04578 104.611 3.38805 104.902 3.62517C105.194 3.86229 105.567 3.97525 105.941 3.93968C107.767 3.93968 108.933 2.00044 109.326 0.618884H109.313ZM90.7936 6.70281C90.9083 6.50282 91.0443 6.31582 91.1992 6.14511C91.2783 6.04945 91.3769 5.9717 91.4884 5.91707C91.5998 5.86243 91.7216 5.83216 91.8457 5.82824C92.1119 5.82824 92.2387 6.11976 92.2387 6.57605C92.2387 8.28715 91.3767 9.88418 91.3767 11.646C91.3767 12.774 91.8711 13.6866 93.0119 13.6866C94.4823 13.6866 95.2682 12.3558 96.0288 10.4419H96.1048C96.0359 10.7711 96.0019 11.1068 96.0034 11.4432C96.0034 12.5079 96.333 13.6486 97.5499 13.6486C97.9701 13.6442 98.3779 13.5052 98.7133 13.252C99.0487 12.9987 99.294 12.6446 99.4133 12.2417C99.6245 11.792 99.7984 11.3257 99.933 10.8475L99.6414 10.7714C99.4133 11.4052 98.9443 12.9135 98.1964 12.9135C97.7274 12.9135 97.6893 12.1656 97.6893 11.8234C97.735 9.59247 98.2443 7.39541 99.1851 5.37194C98.9443 5.29088 98.6912 5.25229 98.4372 5.25788C98.1261 5.26103 97.8242 5.36361 97.5756 5.55061C97.327 5.73761 97.1448 5.99922 97.0555 6.2972C96.4598 7.88155 95.5851 10.9489 94.5203 12.2797C94.4279 12.4177 94.3061 12.5335 94.1636 12.619C94.0212 12.7044 93.8617 12.7574 93.6964 12.774C93.202 12.774 93.088 12.0769 93.088 11.646C93.088 9.85883 93.9119 8.27448 93.9119 6.57605C93.9259 6.40127 93.9035 6.2255 93.8461 6.05982C93.7888 5.89414 93.6976 5.74216 93.5785 5.6135C93.4593 5.48485 93.3148 5.38232 93.154 5.31238C92.9932 5.24243 92.8196 5.2066 92.6443 5.20717C92.1409 5.18002 91.6451 5.3378 91.2499 5.65079C90.9596 5.89763 90.715 6.19368 90.5274 6.52536L90.7936 6.70281ZM86.0148 8.1604C86.2204 7.87479 86.4404 7.59982 86.6739 7.33655C87.0669 6.88025 87.5993 6.06906 88.119 6.06906C88.6387 6.06906 88.7654 7.04501 88.7654 7.46328L88.9936 7.52666C89.32 7.10983 89.5024 6.59836 89.5133 6.06906C89.5133 5.51137 89.2345 5.10576 88.7401 5.10576C87.7514 5.10576 86.8007 6.44931 86.3063 7.0577C85.773 7.76378 85.1973 8.43679 84.5824 9.07299C85.1528 11.4178 85.6725 13.6613 87.6119 13.6613C89.1077 13.6613 89.6274 12.4825 89.957 11.2911L89.6781 11.2277C89.4119 12.1276 89.0063 12.9135 88.4105 12.9135C87.5866 12.9135 87.0288 11.4178 86.8007 10.8094C86.4793 9.94514 86.2167 9.06012 86.0148 8.1604ZM84.5317 7.10839C84.5317 6.1451 84.2021 5.21985 83.15 5.21985C82.8082 5.20854 82.4689 5.28119 82.1617 5.43145C81.8545 5.58171 81.5889 5.80499 81.388 6.08173C81.2779 6.22785 81.1764 6.3802 81.0838 6.53803L81.312 6.71547C81.5655 6.22115 81.9331 5.82824 82.3514 5.82824C82.7697 5.82824 82.8838 6.61407 82.8838 6.93094C82.7036 9.05014 82.2521 11.1374 81.5401 13.1416C81.7627 13.4319 82.0905 13.6231 82.4528 13.674C83.112 13.674 83.3908 13.0022 83.5176 12.5079C84.0511 10.7503 84.3912 8.93975 84.5317 7.10839ZM78.8782 6.36058C78.8436 7.13084 78.617 7.88024 78.219 8.54065L78.4092 8.70543C78.4092 8.70543 80.019 8.02097 80.019 6.69012C80.019 5.60008 78.9543 5.15647 78.1176 5.15647C75.6712 5.15647 73.8585 8.32518 73.8585 10.7841C73.7961 11.1625 73.8204 11.5501 73.9295 11.9177C74.0386 12.2853 74.2297 12.6234 74.4884 12.9065C74.7471 13.1896 75.0667 13.4103 75.4231 13.552C75.7794 13.6938 76.1633 13.7528 76.5458 13.7247C78.9289 13.7247 79.7782 11.6713 80.2599 10.5813L79.9683 10.4672C79.0683 12.0896 78.2951 13.0022 77.0909 13.0022C75.8867 13.0022 75.7092 11.8741 75.7092 10.9235C75.7092 8.7688 76.812 5.67615 78.3204 5.67615C78.7641 5.6508 78.9035 6.00568 78.9035 6.36058H78.8782ZM66.9248 7.12108C66.9248 6.15779 66.5825 5.21985 65.5431 5.21985C65.0462 5.19899 64.559 5.36137 64.1741 5.67615C63.8878 5.91531 63.6509 6.20808 63.4769 6.53803L63.705 6.70281C63.9586 6.22116 64.3262 5.82824 64.7318 5.82824C65.1374 5.82824 65.2642 6.63943 65.2642 6.98165C65.0932 9.07629 64.6456 11.1391 63.9332 13.1163C64.1545 13.4103 64.4821 13.6059 64.8459 13.6613C65.4924 13.6613 65.7586 12.9895 65.9107 12.4825C66.0628 11.9755 66.3036 11.0756 66.5318 10.0363C66.709 10.0492 66.887 10.0492 67.0642 10.0363C67.8073 10.0585 68.5452 9.90656 69.2191 9.59266C69.1 10.2628 69.028 10.9404 69.0036 11.6206C69.0036 12.8881 69.4346 13.6613 70.6515 13.6613C71.6275 13.6613 72.1979 12.9388 72.6796 11.722C72.7684 11.4812 72.8571 11.215 72.9332 10.9235L72.6416 10.8348C72.5582 11.1198 72.4566 11.3993 72.3374 11.6713C71.9571 12.5712 71.5895 12.9388 71.1965 12.9388C70.8036 12.9388 70.7149 12.4318 70.7149 11.8741C70.7667 9.62204 71.2937 7.40627 72.2613 5.37194C72.0373 5.29393 71.8014 5.25534 71.5642 5.25788C70.867 5.25788 70.4233 5.57474 70.0811 6.43663C69.7763 7.23292 69.5306 8.05054 69.3459 8.88288C68.7299 9.31825 67.981 9.5245 67.229 9.46591H66.6332C66.8045 8.69529 66.9021 7.91016 66.9248 7.12108ZM53.5516 6.70281C53.6619 6.50003 53.7983 6.31254 53.9572 6.14511C54.0338 6.04978 54.1301 5.97211 54.2395 5.91742C54.3489 5.86273 54.4688 5.83231 54.591 5.82824C54.8699 5.82824 54.9967 6.11976 54.9967 6.57605C54.9967 8.28715 54.122 9.88418 54.122 11.646C54.122 12.774 54.6291 13.6866 55.7699 13.6866C57.2403 13.6866 58.0135 12.3558 58.7741 10.4419H58.8501C58.792 10.7725 58.7624 11.1075 58.7614 11.4432C58.7614 12.5079 59.0783 13.6486 60.2952 13.6486C60.7166 13.6429 61.1253 13.5036 61.4625 13.2508C61.7996 12.998 62.0478 12.6446 62.1713 12.2417C62.3717 11.7875 62.5452 11.322 62.691 10.8475L62.3994 10.7714C62.1713 11.4052 61.6896 12.9135 60.9544 12.9135C60.4854 12.9135 60.4473 12.1656 60.4473 11.8234C60.5119 9.60429 61.0296 7.42178 61.9684 5.40997C61.7276 5.32891 61.4746 5.29031 61.2206 5.2959C60.9095 5.29905 60.6076 5.40163 60.359 5.58863C60.1104 5.77563 59.9281 6.03724 59.8389 6.33522C59.2558 7.91958 58.3812 10.9869 57.3037 12.3177C57.2139 12.4554 57.0944 12.5712 56.954 12.6567C56.8136 12.7423 56.656 12.7953 56.4924 12.8121C55.9854 12.8121 55.884 12.1149 55.884 11.684C55.884 9.89685 56.7079 8.3125 56.7079 6.61407C56.722 6.4393 56.6996 6.26352 56.6422 6.09784C56.5848 5.93216 56.4936 5.78018 56.3745 5.65153C56.2553 5.52287 56.1108 5.42034 55.95 5.3504C55.7892 5.28046 55.6157 5.24463 55.4403 5.24519C54.941 5.21881 54.4493 5.37668 54.0586 5.68882C53.7649 5.93224 53.5197 6.22897 53.3361 6.56338L53.5516 6.70281ZM48.8488 10.4419C48.7641 10.859 48.7216 11.2837 48.7221 11.7094C48.7221 12.5586 48.9883 13.5726 50.1925 13.5726C50.4826 13.5708 50.7678 13.4969 51.0222 13.3575C51.2767 13.2181 51.4925 13.0176 51.6502 12.774H51.7136C51.5108 13.8514 51.0291 14.7133 49.8249 14.7133C48.8995 14.7133 47.8981 14.1683 47.0108 14.1683C45.0967 14.1683 44.2601 15.233 44.1714 17.7933H44.4122C44.5517 16.285 45.046 15.7146 46.5545 15.7146C47.5685 15.7146 48.4432 16.0061 49.3305 16.0061C51.2192 16.0061 51.8657 14.4091 52.0812 12.7614C52.1699 12.1783 52.2079 11.8361 52.246 11.4939H51.9417C51.7896 12.0262 51.4474 12.9135 50.9403 12.9135C50.4333 12.9135 50.3572 12.2164 50.3572 11.8488C50.4016 9.6189 50.9202 7.42401 51.8784 5.40997C51.6382 5.28926 51.3739 5.22428 51.1051 5.21985C50.1164 5.21985 49.7361 6.29721 49.4446 7.13374C48.8108 8.93357 47.6192 12.7487 46.4404 12.7487C45.87 12.7487 45.7939 12.0009 45.7939 11.6206C45.7939 9.8715 46.6432 8.28715 46.6432 6.55069C46.661 6.37391 46.6414 6.19537 46.5857 6.02665C46.53 5.85793 46.4394 5.70281 46.3199 5.57134C46.2004 5.43987 46.0545 5.33499 45.8919 5.26352C45.7292 5.19205 45.5533 5.15558 45.3756 5.15647C44.9244 5.13807 44.4794 5.26709 44.108 5.52404C43.7388 5.80513 43.4537 6.18217 43.2841 6.61407L43.5122 6.76618C43.6195 6.52091 43.765 6.29418 43.9432 6.09442C44.0127 6.00068 44.1023 5.92359 44.2054 5.86878C44.3084 5.81397 44.4224 5.78281 44.539 5.77755C44.9193 5.77755 44.9446 6.2465 44.9446 6.51267C44.9446 8.27447 44.0446 9.85882 44.0446 11.5826C44.0446 12.698 44.5517 13.6359 45.6671 13.6359C47.1502 13.6359 47.9995 12.2417 48.7474 10.3912L48.8488 10.4419ZM33.3334 6.70281C33.4562 6.50496 33.5961 6.31833 33.7517 6.14511C33.8283 6.04978 33.9246 5.97211 34.034 5.91742C34.1434 5.86273 34.2633 5.83231 34.3855 5.82824C34.6644 5.82824 34.7785 6.11976 34.7785 6.57605C34.7785 8.28715 33.9165 9.88418 33.9165 11.646C33.9165 12.774 34.4235 13.6866 35.5644 13.6866C37.0348 13.6866 37.808 12.3558 38.5686 10.4419H38.6447C38.5803 10.7717 38.5506 11.1072 38.5559 11.4432C38.5559 12.5079 38.8728 13.6486 40.0897 13.6486C40.5116 13.6449 40.9213 13.5064 41.2588 13.2532C41.5963 13.0001 41.8441 12.6457 41.9658 12.2417C42.1715 11.7897 42.3452 11.3239 42.4855 10.8475L42.1939 10.7714C41.9658 11.4052 41.4967 12.9135 40.7489 12.9135C40.2798 12.9135 40.2418 12.1656 40.2418 11.8234C40.3003 9.60348 40.8182 7.41975 41.7629 5.40997C41.5221 5.32891 41.2691 5.29031 41.0151 5.2959C40.704 5.29905 40.4021 5.40163 40.1535 5.58863C39.9049 5.77563 39.7226 6.03724 39.6334 6.33522C39.0376 7.91958 38.1756 10.9869 37.0982 12.3177C37.0057 12.4557 36.8839 12.5716 36.7415 12.657C36.5991 12.7425 36.4395 12.7954 36.2742 12.8121C35.7672 12.8121 35.6658 12.1149 35.6658 11.684C35.6658 9.89685 36.4897 8.3125 36.4897 6.61407C36.5038 6.4393 36.4814 6.26352 36.424 6.09784C36.3666 5.93216 36.2754 5.78018 36.1563 5.65153C36.0372 5.52287 35.8926 5.42034 35.7318 5.3504C35.5711 5.28046 35.3975 5.24463 35.2221 5.24519C34.7228 5.21881 34.2311 5.37668 33.8405 5.68882C33.5467 5.93224 33.3016 6.22897 33.1179 6.56338L33.3334 6.70281ZM21.418 20.4296C20.1504 20.4296 18.5532 19.7452 18.5532 18.3256C18.5532 17.0581 19.4025 16.4624 20.442 16.0188C21.5533 15.6315 22.7261 15.4511 23.9025 15.4865C25.2331 15.4823 26.5585 15.6528 27.8447 15.9935C27.3475 17.2958 26.4672 18.4169 25.3199 19.2089C24.1726 20.0009 22.8121 20.4265 21.418 20.4296ZM29.6574 8.70543C29.4677 11.0399 28.9338 13.3335 28.0729 15.5118C26.7484 15.0489 25.3562 14.809 23.9532 14.802C22.4744 14.7418 21.0069 15.0834 19.7068 15.7907C19.2475 16.042 18.8607 16.4072 18.5832 16.8511C18.3057 17.295 18.147 17.8027 18.1223 18.3256C18.1226 18.7198 18.2256 19.1072 18.4212 19.4494C18.6168 19.7917 18.8982 20.0771 19.2377 20.2775C20.0732 20.7595 21.0241 21.0049 21.9884 20.9873C23.5031 20.975 24.9843 20.5401 26.2653 19.7317C27.5462 18.9234 28.5761 17.7736 29.2391 16.4117C30.1165 16.7209 30.9648 17.1068 31.7743 17.5651L31.9264 17.3243C31.1446 16.8475 30.3315 16.4241 29.4926 16.0568C30.8433 13.2956 31.5333 10.2581 31.5081 7.18444C31.5081 6.13242 31.3686 5.34659 30.2405 5.34659H29.9236C29.8349 7.27316 28.3011 12.7233 26.4123 12.7233C25.6391 12.7233 25.563 11.646 25.563 11.2277C25.563 9.16171 26.5264 5.95499 28.3011 5.95499C28.5177 5.97349 28.7266 6.04427 28.9099 6.16128C29.0931 6.27829 29.2452 6.43802 29.3532 6.62676L29.5687 6.46198C29.4326 6.09812 29.191 5.78314 28.8749 5.55734C28.5587 5.33154 28.1824 5.2052 27.794 5.1945C25.0687 5.1945 23.7884 8.99695 23.7884 11.0376C23.7884 12.5712 24.4983 13.5726 25.8673 13.5726C27.4771 13.5726 28.732 11.684 29.6701 8.59134L29.6574 8.70543ZM20.2898 5.16914C17.5138 5.16914 15.8913 8.41391 15.8913 10.7841C15.8331 11.1606 15.8606 11.5453 15.9717 11.9097C16.0827 12.2741 16.2745 12.6088 16.5327 12.8889C16.7909 13.169 17.1089 13.3874 17.4631 13.5277C17.8173 13.6679 18.1986 13.7266 18.5786 13.6993C20.9997 13.6993 21.9631 11.3164 22.28 10.5686L21.9757 10.4545C21.4307 11.5446 20.4673 12.9895 19.1237 12.9895C18.0208 12.9895 17.742 11.8741 17.742 10.9235C17.742 8.79415 18.8701 5.68882 20.3406 5.68882C20.8096 5.68882 20.9236 6.08173 20.9236 6.47465C20.9074 7.11617 20.6554 7.72924 20.2159 8.19682C19.7763 8.6644 19.1799 8.95375 18.5406 9.00961C18.6039 9.23776 18.642 9.32648 18.9335 9.32648C20.3406 9.32648 22.2419 8.4139 22.2419 6.79152C22.2419 5.61276 21.2659 5.16914 20.2898 5.16914ZM2.16321 13.75C4.77446 13.75 5.42094 8.79415 5.96601 5.96766H6.10544C6.21092 6.24667 6.25835 6.54426 6.24486 6.84223C6.24486 8.19844 6.0167 9.44057 6.0167 10.6447C6.0167 12.0896 6.2829 13.3698 7.74063 13.3698C9.54062 13.3698 10.2758 10.3658 10.6814 9.16172C10.9407 8.35157 11.2541 7.55971 11.6195 6.79152C11.7605 6.50852 11.9643 6.26144 12.2153 6.06906H12.2786C12.1519 6.41128 11.797 7.33655 11.4927 8.31251C11.1751 9.37115 10.9919 10.4656 10.9477 11.5699C10.9477 12.698 11.366 13.6486 12.5828 13.6486C13.7997 13.6486 14.3575 12.5459 14.9152 10.8475L14.5983 10.7714C14.4082 11.3418 13.8631 12.9388 13.1533 12.9388C12.6336 12.9388 12.5955 12.0136 12.5955 11.6713C12.6502 9.48642 13.1326 7.33339 14.0152 5.33392C13.6643 5.1953 13.2897 5.12641 12.9124 5.13112C11.3026 5.13112 10.6054 7.76749 10.1744 8.99695C9.74343 10.2264 9.0716 12.5966 8.10823 12.5966C7.58851 12.5966 7.5505 11.9755 7.5505 11.608C7.5505 10.1123 7.89274 8.75612 7.89274 7.38724C7.89274 6.01836 7.56317 5.13112 6.11811 5.13112C5.61333 5.11213 5.11437 5.24437 4.68526 5.51085C4.25614 5.77733 3.91641 6.16591 3.70966 6.62676L3.9632 6.7535C4.16343 6.35845 4.47672 6.03195 4.86318 5.81557C5.03656 5.72682 5.22649 5.67501 5.42093 5.66346C5.42325 5.93154 5.39776 6.19915 5.34488 6.46198C5.24347 7.07037 5.12938 7.84354 5.04065 8.24914C4.81248 9.33917 4.15332 13.0275 2.44207 13.0275C1.50405 13.0275 1.31391 11.177 1.37729 10.5686L1.11111 10.4799C0.887384 10.6621 0.707441 10.8922 0.584578 11.1533C0.461715 11.4144 0.399073 11.6997 0.401255 11.9882C0.386391 12.2234 0.421774 12.4591 0.505063 12.6796C0.588352 12.9001 0.717627 13.1003 0.884302 13.267C1.05098 13.4336 1.25123 13.5629 1.47174 13.6462C1.69225 13.7295 1.92797 13.7649 2.16321 13.75Z" fill="#00A3D4"/>
</svg>
