<?xml version="1.0" standalone="no"?>
<!DOCTYPE svg PUBLIC "-//W3C//DTD SVG 1.1//EN" "http://www.w3.org/Graphics/SVG/1.1/DTD/svg11.dtd" >
<svg xmlns="http://www.w3.org/2000/svg">
<metadata>
This is a custom SVG webfont generated by Font Squirrel.
Copyright   : Copyright  2009 ParaType Ltd All rights reserved
Designer    : AKorolkova OUmpeleva VYefimov
Foundry     : ParaType Ltd
Foundry URL : httpwwwparatypecom
</metadata>
<defs>
<font id="PTSansItalic" horiz-adv-x="1118" >
<font-face units-per-em="2048" ascent="1536" descent="-512" />
<missing-glyph horiz-adv-x="573" />
<glyph unicode=" "  horiz-adv-x="573" />
<glyph unicode="&#x09;" horiz-adv-x="573" />
<glyph unicode="&#xa0;" horiz-adv-x="573" />
<glyph unicode="!" horiz-adv-x="585" d="M186 98q0 59 35 92t90 33q57 0 91 -32.5t34 -92.5q0 -55 -33.5 -90t-91.5 -35q-55 0 -90 35t-35 90zM309 381l43 379l158 745h172l-158 -745l-114 -379h-101z" />
<glyph unicode="&#x22;" horiz-adv-x="651" d="M407 1090l88 415h160l-152 -415h-96zM170 1090l88 415h160l-152 -415h-96z" />
<glyph unicode="#" d="M137 483l31 138h172l66 282h-160l28 137h164l82 340h148l-82 -340h227l82 340h145l-82 -340h166l-34 -137h-162l-68 -282h158l-35 -138h-158l-84 -358h-145l84 358h-229l-82 -358h-148l84 358h-168zM485 621h230l65 282h-227z" />
<glyph unicode="$" d="M131 111l76 131q35 -25 100.5 -62t151.5 -51l129 604l-94.5 74t-82 84t-57 101.5t-22.5 129.5q0 94 30.5 167t88 123t134.5 79t171 37l43 192h137l-41 -190q92 -10 157.5 -33.5t110.5 -46.5l-73 -135q-37 16 -94.5 34.5t-133.5 26.5l-117 -540q49 -35 98.5 -76 t86.5 -93.5t61.5 -118t24.5 -151.5q0 -88 -31 -161.5t-88 -129t-142 -89t-194 -42.5q0 -2 -6 -30.5t-12 -65.5q-10 -41 -21 -94h-137l41 197q-102 14 -180 55t-115 74zM508 1149q0 -82 43 -139.5t104 -106.5l103 475q-123 -8 -186.5 -71.5t-63.5 -157.5zM561 125 q129 8 204 76.5t75 181.5q0 96 -48.5 161.5t-113.5 123.5z" />
<glyph unicode="%" horiz-adv-x="1581" d="M129 1053q0 125 38 216t95 148.5t129 86t139 28.5q123 0 186.5 -67.5t63.5 -188.5q0 -117 -31.5 -205t-87 -148.5t-129 -91t-155.5 -30.5q-111 0 -179.5 66.5t-68.5 185.5zM276 1071q0 -70 32 -107.5t93 -37.5q45 0 87 23.5t75 67.5t51.5 107.5t18.5 141.5 q0 76 -34 108.5t-93 32.5q-45 0 -87 -27.5t-74 -72.5t-50.5 -106.5t-18.5 -129.5zM829 254q0 125 38 216t95 148.5t129 86t139 28.5q123 0 186.5 -67.5t63.5 -188.5q0 -117 -31.5 -205t-87 -148.5t-129 -91t-155.5 -30.5q-111 0 -179.5 66.5t-68.5 185.5zM976 272 q0 -70 32 -107.5t93 -37.5q45 0 87 23.5t75 67.5t51.5 107.5t18.5 141.5q0 76 -34 108.5t-93 32.5q-45 0 -87 -27.5t-74 -72.5t-50.5 -106.5t-18.5 -129.5zM188 57l1104 1477l109 -84l-1104 -1477z" />
<glyph unicode="&#x26;" horiz-adv-x="1658" d="M186 317q0 102 42 194.5t108.5 172.5t150.5 143.5t168 106.5l-25 70q-11 31 -18.5 62.5t-10.5 64t-3 75.5q0 57 21.5 115.5t66.5 105t112.5 76t162.5 29.5q76 0 121.5 -20.5t71.5 -51t35 -66.5t9 -69q0 -123 -93 -227.5t-255 -192.5q20 -61 50 -126.5t63.5 -130 t72.5 -128t78 -119.5q29 27 59.5 67t60.5 84t58.5 91t50.5 90l115 -61q-20 -37 -54 -88.5t-73 -103.5l-78 -100l-67 -81q68 -86 116 -131t103 -80l-125 -121q-49 29 -105.5 82t-109.5 125q-45 -39 -97.5 -73.5t-112.5 -63.5t-130 -46.5t-150 -17.5q-90 0 -161.5 27 t-121.5 73t-78 108t-28 136zM358 354q0 -115 72 -173t201 -58q51 0 102 14.5t98.5 37t87 50t70.5 58.5q-45 61 -87 133.5t-79 146.5t-65 142l-49 118q-76 -49 -140.5 -105t-110.5 -114.5t-73 -121t-27 -128.5zM760 1210q0 -33 2 -58.5t7 -48t12 -46t22 -56.5 q123 74 183.5 140.5t60.5 148.5q0 43 -25 73t-84 30q-49 0 -83 -14.5t-55.5 -42t-30.5 -60.5t-9 -66z" />
<glyph unicode="'" horiz-adv-x="434" d="M219 1090l88 415h160l-152 -415h-96z" />
<glyph unicode="(" horiz-adv-x="571" d="M117 158q0 221 49 420.5t133 373.5t193.5 319.5t230.5 256.5l80 -76q-121 -133 -217.5 -282.5t-165 -311.5t-102 -333t-33.5 -343q0 -137 28.5 -283.5t98.5 -291.5l-101 -76q-115 170 -154.5 328t-39.5 299z" />
<glyph unicode=")" horiz-adv-x="571" d="M-205 -393q106 109 197.5 255t162 309t111.5 336t41 339q0 205 -26.5 349t-94.5 261l109 72q49 -70 84 -150t56.5 -161.5t30.5 -161.5t9 -150q0 -219 -48 -419.5t-131 -377t-191.5 -321.5t-227.5 -256z" />
<glyph unicode="*" horiz-adv-x="714" d="M154 1190v119h106l135 -25l-96 94l-57 99l104 61l53 -90l39 -121l45 123l52 86l104 -57l-53 -93l-103 -102l148 25h102v-119h-96l-139 24l98 -102l51 -84l-102 -61l-56 92l-51 131l-39 -125l-53 -90l-106 59l55 90l92 90l-127 -24h-106z" />
<glyph unicode="+" horiz-adv-x="1032" d="M119 649v156h379v389h153v-389h379v-156h-379v-389h-153v389h-379z" />
<glyph unicode="," horiz-adv-x="399" d="M-45 -238q82 31 131 95.5t59 128.5q-8 -4 -20 -4q-31 0 -59.5 25.5t-28.5 68.5q0 55 37 94t104 39q53 0 83 -37t30 -84q0 -68 -22.5 -130t-63.5 -116.5t-96.5 -96.5t-118.5 -64z" />
<glyph unicode="-" horiz-adv-x="735" d="M135 547l35 145h494l-35 -145h-494z" />
<glyph unicode="." horiz-adv-x="452" d="M76 98q0 59 33.5 92t91.5 33q55 0 90 -32.5t35 -92.5q0 -55 -35 -90t-90 -35q-57 0 -91 35t-34 90z" />
<glyph unicode="/" horiz-adv-x="720" d="M-201 -242l1121 1774l122 -68l-1120 -1773z" />
<glyph unicode="0" d="M123 471q0 225 48 419.5t133 337t204 223.5t260 81q182 0 281.5 -119t99.5 -377q0 -193 -42 -382t-123 -340.5t-198.5 -246t-273.5 -94.5q-111 0 -184.5 42t-119.5 113t-65.5 160t-19.5 183zM291 479q0 -109 21.5 -179.5t56 -107t79 -52t89.5 -15.5q98 0 180 75.5 t139 202.5t91 287t34 326q0 184 -52 274t-188 90q-86 0 -165.5 -66.5t-143 -187t-102.5 -285.5t-39 -362z" />
<glyph unicode="1" d="M135 0l33 160h287l223 1040l47 127l-107 -102l-258 -168l-59 108l530 367h74l-293 -1372h281l-33 -160h-725z" />
<glyph unicode="2" d="M70 0l12 61q53 55 138 136l181 178l193 206q96 108 175 216t125 209.5t46 187.5q0 41 -9 75t-27.5 58.5t-55.5 38.5t-94 14q-78 0 -152 -30.5t-156 -85.5l-45 129q104 76 198.5 107.5t207.5 31.5q150 0 225.5 -85t75.5 -218q0 -113 -62.5 -244t-158.5 -263t-210 -258 t-218 -226l-119 -95v-8l133 25h440l-28 -160h-815z" />
<glyph unicode="3" d="M92 29l78 151q43 -23 103.5 -39t140.5 -16q100 0 177 31.5t125 85t73.5 121t25.5 139.5q0 111 -56.5 171t-207.5 60h-156l15 62l391 479l110 94l-135 -22h-397l31 159h729l-13 -61l-432 -522l-84 -62v-4l72 14q59 0 113.5 -20.5t96.5 -62.5t66.5 -106.5t24.5 -154.5 q0 -115 -38 -215t-111.5 -176t-186 -119t-260.5 -43q-92 0 -167 15.5t-128 40.5z" />
<glyph unicode="4" d="M74 463l14 69l893 998h109l-195 -922h240l-29 -145h-244l-96 -463h-158l97 463h-631zM297 594l143 14h297l103 473l57 176h-8l-103 -145l-370 -412z" />
<glyph unicode="5" d="M100 25l74 147q45 -18 95 -32.5t130 -14.5q98 0 174 30.5t130.5 86t82 128t25.5 160.5q2 123 -65.5 183.5t-223.5 60.5l-172 -10l158 741h637l-35 -159h-483l-95 -431h16q13 0 30 3q20 0 40 2q102 0 171 -31t111 -80t60.5 -114.5t18.5 -133.5q0 -166 -54.5 -278.5 t-141.5 -181t-195.5 -98.5t-218.5 -30q-86 0 -152 13.5t-117 38.5z" />
<glyph unicode="6" d="M135 438q0 215 82 406.5t213 337t297 237.5t334 113l8 -139q-119 -18 -234.5 -78t-214 -147t-173 -195.5t-113.5 -227.5q20 29 57 55.5t83 48t99.5 34t108.5 12.5q154 0 255 -94t101 -277q0 -121 -35.5 -220t-103.5 -174t-163 -116t-214 -41q-72 0 -140.5 26t-122.5 80 t-89 142t-35 217zM297 457q0 -72 14.5 -133.5t44 -106.5t74.5 -70.5t111 -25.5q86 0 147.5 32.5t101 87t58 123t18.5 140.5q0 106 -53 175t-176 69q-49 0 -98.5 -13.5t-93.5 -37t-78.5 -55.5t-57.5 -67q-4 -27 -8 -60t-4 -58z" />
<glyph unicode="7" d="M147 0l781 1260l110 106l-125 -20h-569l33 159h854l-12 -57l-893 -1448h-179z" />
<glyph unicode="8" d="M131 313q0 150 98.5 276t276.5 199q-35 29 -65.5 57.5t-56.5 66.5t-40 87.5t-14 120.5q0 98 36.5 175t100 129.5t147.5 80t174 27.5q72 0 134.5 -20.5t107.5 -60.5t70.5 -99.5t25.5 -137.5q0 -63 -24.5 -126.5t-68.5 -120t-103.5 -104.5t-128.5 -87q39 -33 73.5 -67.5 t60.5 -76.5t42 -93.5t16 -112.5q0 -90 -28.5 -172t-90 -144.5t-157.5 -99.5t-232 -37q-88 0 -153.5 28t-110.5 73t-67.5 107t-22.5 132zM299 334q0 -39 10 -78t36 -67.5t70 -46t107 -17.5q61 0 115.5 16.5t97.5 50t66.5 85t23.5 116.5q0 61 -16 107.5t-42 83.5t-67 69.5 t-88 63.5q-141 -68 -227 -164t-86 -219zM498 1128q0 -102 51 -165.5t141 -118.5q53 33 103.5 75t85 86t57 89t22.5 92q0 100 -49 147t-139 47q-55 0 -105.5 -16t-86 -48t-58 -79.5t-22.5 -108.5z" />
<glyph unicode="9" d="M201 113q135 29 249.5 87t207 139t160 180t104.5 214q-68 -59 -150 -91t-207 -32q-57 0 -116.5 21.5t-108.5 69t-81 123t-32 180.5q0 125 39 223t108.5 165.5t164 103.5t202.5 36q80 0 151 -29.5t125 -87t83.5 -142.5t29.5 -198q0 -248 -87 -444.5t-222 -336.5t-299 -222 t-313 -99zM395 1024q0 -78 23.5 -129t57.5 -82t74 -43t79 -12q98 0 187 38t136 95q2 12 5 36l7 47q3 24 5 46t2 33q0 152 -64.5 241.5t-191.5 89.5q-63 0 -120.5 -21.5t-100.5 -66.5t-71 -112.5t-28 -159.5z" />
<glyph unicode=":" horiz-adv-x="573" d="M190 98q0 59 35 92t90 33q57 0 91 -32.5t34 -92.5q0 -55 -33.5 -90t-91.5 -35q-55 0 -90 35t-35 90zM373 965q0 59 33.5 92t91.5 33q55 0 89 -33t34 -92q0 -55 -34 -89t-89 -34q-57 0 -91 34t-34 89z" />
<glyph unicode=";" horiz-adv-x="585" d="M117 -238q82 31 131 95.5t59 128.5q-8 -4 -20 -4q-31 0 -59.5 25.5t-28.5 68.5q0 55 35.5 94t105.5 39q53 0 82 -37t29 -84q0 -68 -22.5 -130t-62.5 -116.5t-95.5 -96.5t-118.5 -64zM385 965q0 59 35 92t90 33t90 -33t35 -92q0 -55 -35 -89t-90 -34t-90 34t-35 89z" />
<glyph unicode="&#x3c;" horiz-adv-x="1032" d="M117 655v64l815 495l82 -133l-510 -311l-197 -82l195 -70l522 -309l-82 -129z" />
<glyph unicode="=" horiz-adv-x="1032" d="M119 471v156h911v-156h-911zM119 827v156h911v-156h-911z" />
<glyph unicode="&#x3e;" horiz-adv-x="1032" d="M121 1083l82 131l825 -475v-61l-815 -498l-82 131l510 312l195 82l-193 69z" />
<glyph unicode="?" horiz-adv-x="888" d="M172 98q0 59 35 92t90 33t90 -32.5t35 -92.5q0 -55 -35 -90t-90 -35t-90 35t-35 90zM256 1423q43 27 83 46.5t85 33t97 21.5t122 8q160 0 234.5 -74t74.5 -188q0 -117 -36.5 -202t-92 -151.5t-123 -124t-129 -118t-108.5 -130t-64 -163.5h-135q10 106 53 187t100.5 146.5 t122 123t117 114t88 122t35.5 149.5q0 82 -44 126t-152 44q-76 0 -151 -29t-136 -66z" />
<glyph unicode="@" horiz-adv-x="2287" d="M250 508q0 233 81 422.5t218 322.5t319.5 206t386.5 73q195 0 360 -57.5t287.5 -164t191.5 -260t69 -350.5q0 -137 -47.5 -263t-128 -220t-188 -151.5t-226.5 -57.5q-92 0 -144.5 39t-52.5 143q0 20 2 43t6 50h-8q-33 -51 -73.5 -99.5t-91 -87.5t-107.5 -63.5t-119 -24.5 q-51 0 -97 22.5t-81 65.5t-55.5 102.5t-20.5 135.5q0 137 45 270t122 236.5t178.5 167t215.5 63.5q78 0 126 -23.5t93 -58.5l72 68h72l-109 -619q-10 -55 -16 -99t-6 -79q0 -53 18.5 -78.5t65.5 -25.5q74 0 144.5 37.5t127.5 109.5t93 172t36 225q0 166 -56.5 293 t-157.5 214t-240.5 132t-307.5 45q-176 0 -328.5 -64.5t-267 -178t-180 -273t-65.5 -346.5q0 -190 59 -340.5t168.5 -254t262.5 -158t341 -54.5q61 0 141 15.5t144 46.5l43 -137q-94 -41 -177 -55.5t-178 -14.5q-199 0 -373.5 60.5t-306 178t-206 293t-74.5 406.5zM897 360 q0 -84 34 -144t126 -60q43 0 89 29.5t91 77.5t87 108.5t73 124.5l65 350q-37 43 -74.5 61.5t-93.5 18.5q-84 0 -156.5 -52.5t-126 -133.5t-84 -181.5t-30.5 -198.5z" />
<glyph unicode="A" horiz-adv-x="1196" d="M-72 0l871 1530h78l217 -1530h-164l-62 418h-524l-231 -418h-185zM428 571h424l-64 459l-4 227h-2l-96 -231z" />
<glyph unicode="B" horiz-adv-x="1193" d="M86 10l313 1483q82 12 184.5 20.5t221.5 8.5q80 0 152.5 -20.5t127 -60.5t88 -104.5t33.5 -150.5q0 -84 -25.5 -153.5t-72.5 -121t-110.5 -82t-137.5 -43.5v-8q47 -10 90 -34.5t76 -61.5t52.5 -85t19.5 -108q0 -150 -59.5 -248t-151.5 -155t-205 -79.5t-221 -22.5h-83 q-48 0 -124 4q-129 12 -168 22zM287 154q12 -6 38.5 -8.5t58.5 -4.5t64.5 -3t59.5 -1q76 0 148.5 18.5t131 57.5t93 101.5t34.5 152.5q0 66 -31.5 110t-83.5 70.5t-118 35.5t-131 9h-152zM430 840h115q37 0 86 1t84 5q49 10 104 29.5t101.5 54.5t76 90t29.5 137 q0 59 -18.5 99t-54 65t-85 36t-108.5 11q-70 0 -130.5 -3t-88.5 -9z" />
<glyph unicode="C" horiz-adv-x="1169" d="M154 590q0 242 70.5 420t186 293.5t261 172t293.5 56.5q123 0 200.5 -17.5t126.5 -41.5l-78 -156q-43 23 -112.5 39t-159.5 16q-121 0 -231.5 -53t-194.5 -151.5t-133 -241t-49 -318.5q0 -102 26.5 -189t76.5 -150.5t125 -99.5t169 -36q100 0 167 22.5t122 53.5l12 -148 q-74 -49 -155.5 -68.5t-188.5 -19.5q-127 0 -226.5 47.5t-168 129t-104 194.5t-35.5 246z" />
<glyph unicode="D" horiz-adv-x="1337" d="M86 -2l320 1507q82 10 185 13.5t187 3.5q127 0 230.5 -33t175 -101.5t110.5 -174t39 -248.5q0 -94 -17.5 -205t-57 -219.5t-106.5 -210t-165 -179t-232 -123.5t-309 -46q-31 0 -84 1t-104 3q-152 8 -172 12zM291 147q8 -2 33.5 -3t55.5 -2t56.5 -2t36.5 -1 q186 0 315.5 78t210 195.5t117.5 260t37 269.5q0 96 -21.5 174t-67.5 132.5t-120 85t-178 30.5q-27 0 -58 -1l-63 -2q-31 -1 -58.5 -3t-41.5 -6z" />
<glyph unicode="E" horiz-adv-x="1095" d="M86 0l320 1505h778l-33 -159h-608l-107 -492h557l-32 -160h-558l-112 -534h618l-35 -160h-618h-170z" />
<glyph unicode="F" horiz-adv-x="1056" d="M86 0l320 1505h778l-33 -159h-608l-111 -515h567l-32 -157h-568l-141 -674h-172z" />
<glyph unicode="G" horiz-adv-x="1253" d="M154 586q0 264 76.5 444t198.5 291t268.5 161t283.5 50q123 0 203 -16.5t131 -40.5l-76 -156q-43 23 -115.5 38t-162.5 15q-125 0 -238 -48t-200 -145.5t-138 -240.5t-51 -332q0 -96 23.5 -182t71.5 -150.5t120 -102.5t172 -38q68 0 118 14.5t99 38.5l88 420l-242 43 l23 101h250h145l-139 -662q-154 -115 -379 -115q-109 0 -204 39t-167.5 116t-115.5 190.5t-43 267.5z" />
<glyph unicode="H" horiz-adv-x="1372" d="M86 0l317 1505h172l-137 -655h682l137 655h173l-318 -1505h-172l145 690h-684l-143 -690h-172z" />
<glyph unicode="I" horiz-adv-x="593" d="M133 0l318 1505h172l-318 -1505h-172z" />
<glyph unicode="J" horiz-adv-x="595" d="M-131 12l63 154q41 -29 117 -29q45 0 76 16.5t52.5 47t34.5 73.5t26 101l239 1130h172l-250 -1173q-18 -86 -44.5 -151.5t-68.5 -110.5t-103.5 -67.5t-147.5 -22.5q-18 0 -41 2t-46.5 6t-45 10t-33.5 14z" />
<glyph unicode="K" horiz-adv-x="1236" d="M86 0l317 1505h172l-149 -700l86 29l616 671h213l-614 -653l-98 -68l84 -86l374 -698h-194l-379 696h-111l-145 -696h-172z" />
<glyph unicode="L" horiz-adv-x="1056" d="M86 0l317 1505h172l-284 -1345h674l-31 -160h-680h-168z" />
<glyph unicode="M" horiz-adv-x="1619" d="M86 0l320 1505h118l281 -770l31 -168h4l98 172l586 766h153l-319 -1505h-172l215 1012l65 225h-8l-121 -207l-516 -680h-51l-248 680l-33 207h-8l-16 -223l-215 -1014h-164z" />
<glyph unicode="N" horiz-adv-x="1380" d="M86 0l326 1530h86l467 -1008l71 -211h8l21 211l211 983h160l-324 -1530h-80l-471 1010l-74 221h-6l-24 -221l-209 -985h-162z" />
<glyph unicode="O" horiz-adv-x="1398" d="M154 551q0 197 53 376t153.5 313t240.5 213t312 79q104 0 192.5 -32t152 -99.5t98.5 -175t35 -262.5q0 -201 -53.5 -381.5t-150.5 -315.5t-231.5 -214t-296.5 -79q-254 0 -379.5 147.5t-125.5 430.5zM334 553q0 -203 84 -313.5t246 -110.5q121 0 221 66.5t172.5 180 t112.5 264.5t40 318q0 125 -27.5 207t-73.5 128t-105.5 64.5t-118.5 18.5q-123 0 -224.5 -67.5t-173 -181t-112.5 -263t-41 -311.5z" />
<glyph unicode="P" horiz-adv-x="1142" d="M86 0l315 1491q82 18 172.5 24.5t180.5 6.5q98 0 183 -21.5t147.5 -69t97.5 -121t35 -177.5q0 -162 -58.5 -272.5t-155 -176.5t-216 -93.5t-242.5 -27.5h-35q-23 0 -48.5 1t-49 3t-33.5 4l-121 -571h-172zM414 729q8 -4 28.5 -5t43 -3t43.5 -2h32q92 0 178 19.5 t151.5 66.5t105.5 121.5t40 189.5q0 78 -25.5 127t-69.5 76t-102.5 38t-121.5 11q-49 0 -96.5 -3t-75.5 -9z" />
<glyph unicode="Q" horiz-adv-x="1398" d="M154 551q0 197 53 376t153.5 313t240.5 213t312 79q104 0 192.5 -32t152 -99.5t98.5 -175t35 -262.5q0 -201 -53.5 -381.5t-150.5 -315.5t-231.5 -214t-296.5 -79q-254 0 -379.5 147.5t-125.5 430.5zM334 553q0 -203 84 -313.5t246 -110.5q121 0 221 66.5t172.5 180 t112.5 264.5t40 318q0 125 -27.5 207t-73.5 128t-105.5 64.5t-118.5 18.5q-123 0 -224.5 -67.5t-173 -181t-112.5 -263t-41 -311.5zM379 -262l33 158q57 12 112 12q86 0 166 -23l163 -48q83 -26 171 -48t188 -22q88 0 183 20l-33 -156q-53 -14 -101.5 -19t-95.5 -5 q-102 0 -195 22.5t-178 47.5l-163 49q-78 23 -154 22q-25 0 -49 -2t-47 -8z" />
<glyph unicode="R" horiz-adv-x="1220" d="M86 0l315 1491q90 16 174 23.5t168 7.5q82 0 160 -20.5t137.5 -64.5t94 -115t34.5 -171q0 -190 -110.5 -316t-321.5 -161l78 -78l232 -596h-187l-258 649l-203 33l-141 -682h-172zM426 801h147q78 0 153 14t133.5 53t94 105.5t35.5 169.5q0 37 -15.5 77t-45 73.5 t-78.5 54t-117 20.5q-51 0 -103 -3t-85 -9z" />
<glyph unicode="S" horiz-adv-x="1085" d="M37 53l88 158q49 -29 134 -55.5t202 -26.5q66 0 132 12.5t120.5 42t87.5 78.5t33 125q0 78 -39 131t-99.5 97t-130 85t-130 95.5t-100.5 127t-40 181.5q0 113 42 194.5t113.5 133t170 76t206.5 24.5q125 0 224.5 -19.5t154.5 -50.5l-86 -153q-43 25 -128 46t-197 21 q-141 0 -230.5 -64.5t-89.5 -187.5q0 -80 40 -134t100.5 -98t130 -85t130 -94.5t100.5 -126t40 -176.5q0 -209 -150.5 -323t-433.5 -114q-143 0 -243.5 25.5t-151.5 54.5z" />
<glyph unicode="T" horiz-adv-x="1134" d="M238 1346l30 159h1059l-33 -159h-444l-285 -1346h-172l285 1346h-440z" />
<glyph unicode="U" horiz-adv-x="1327" d="M186 354q0 88 25 201l201 950h172l-201 -952q-25 -94 -25 -172q0 -135 72 -188.5t211 -53.5q84 0 147.5 23.5t109.5 74t77 127t55 187.5l203 954h162l-209 -1003q-31 -139 -76 -237.5t-112.5 -161t-163 -92t-220.5 -29.5q-117 0 -198.5 26.5t-133 74.5t-74 117.5 t-22.5 153.5z" />
<glyph unicode="V" horiz-adv-x="1163" d="M223 1505h176l146 -1030v-229h4l96 233l569 1026h187l-866 -1530h-78z" />
<glyph unicode="W" horiz-adv-x="1693" d="M246 1505h176l39 -1003l-21 -250h2l84 254l506 999h92l80 -1003l-18 -250h2l86 254l457 999h176l-721 -1530h-96l-82 1010l14 227h-8l-86 -229l-504 -1008h-94z" />
<glyph unicode="X" horiz-adv-x="1263" d="M-14 0l635 770l-279 735h186l187 -510l24 -123l74 123l410 510h209l-601 -729l306 -776h-187l-207 541l-28 129l-82 -129l-440 -541h-207z" />
<glyph unicode="Y" horiz-adv-x="1140" d="M231 1505h189l190 -657l6 -131h2l66 135l467 653h192l-653 -905l-127 -600h-172l127 598z" />
<glyph unicode="Z" d="M-2 0l33 162l934 1098l106 86h-786l30 159h963l-33 -162l-942 -1103l-100 -80h788l-33 -160h-960z" />
<glyph unicode="[" horiz-adv-x="624" d="M35 -496l424 2001h162h208l-30 -149h-209l-363 -1700h211l-32 -152h-209h-162z" />
<glyph unicode="\" horiz-adv-x="817" d="M88 1470l150 62l727 -1772l-142 -61z" />
<glyph unicode="]" horiz-adv-x="628" d="M-135 -496l33 152h204l361 1700h-209l33 149h213h157l-424 -2001h-159h-209z" />
<glyph unicode="^" horiz-adv-x="1075" d="M219 936l399 594h64l362 -594h-178l-170 289l-49 149l-65 -151l-201 -287h-162z" />
<glyph unicode="_" horiz-adv-x="876" d="M-94 -295h876v-145h-876v145z" />
<glyph unicode="`" horiz-adv-x="509" d="M633 1503l8 45h195l63 -319h-92z" />
<glyph unicode="a" horiz-adv-x="1046" d="M96 307q0 137 36 279.5t109.5 256t191.5 187.5t284 74q59 0 146 -14.5t163 -38.5l-135 -627q-18 -80 -24.5 -162t-6.5 -151v-63q0 -30 4 -52h-121l-28 186h-10q-25 -37 -63 -73.5t-83 -67.5t-96 -49.5t-111 -18.5q-256 0 -256 334zM268 307q0 -82 33 -138t100 -56 q53 0 100.5 24.5t89.5 60t73.5 77.5t52.5 79l119 582q-63 29 -162 29q-100 0 -175 -57.5t-127.5 -151.5t-78 -212t-25.5 -237z" />
<glyph unicode="b" horiz-adv-x="1120" d="M92 68l305 1437h162l-131 -614h8q31 39 70 76t86 67.5t100 49t117 18.5q127 0 184.5 -90t57.5 -226q0 -193 -53.5 -342t-141.5 -252.5t-200.5 -156.5t-231.5 -53q-117 0 -204 25.5t-128 60.5zM272 164q66 -45 185 -45q68 0 143.5 42t138 121.5t101.5 197.5t39 268 q0 111 -33 163t-88 52t-110.5 -27t-107 -70t-93 -95t-66.5 -101z" />
<glyph unicode="c" horiz-adv-x="903" d="M106 317q0 184 50.5 329t133.5 246t190.5 155.5t219.5 54.5q82 0 135.5 -15.5t96.5 -35.5l-62 -133q-37 23 -90 34t-116 11q-72 0 -142.5 -49.5t-124 -130.5t-86 -184t-32.5 -214q0 -139 58 -205.5t159 -66.5q63 0 133.5 28.5t113.5 59.5l41 -109q-31 -27 -72.5 -49.5 t-85.5 -36.5t-87 -23.5t-82 -9.5q-106 0 -174 34t-107 85t-54.5 111.5t-15.5 113.5z" />
<glyph unicode="d" horiz-adv-x="1093" d="M106 338q0 127 37 261t109 243.5t177.5 180.5t246.5 71q39 0 66.5 -2t52 -6.5t46.5 -11.5l46 -15l94 446h162l-242 -1134q-16 -84 -25.5 -158t-9.5 -135q0 -25 1 -44.5t3 -37.5h-106l-31 186h-8q-27 -37 -65.5 -73.5t-86 -67.5t-99.5 -49.5t-109 -18.5q-117 0 -188 87.5 t-71 277.5zM279 328q0 -88 34.5 -151.5t112.5 -63.5q45 0 92 24.5t89 60t76 77.5t52 79l121 559q-37 25 -83 34t-122 9q-86 0 -154.5 -52t-116.5 -140t-74.5 -202.5t-26.5 -233.5z" />
<glyph unicode="e" horiz-adv-x="995" d="M106 348q0 176 50.5 316.5t131.5 236.5t182 148.5t210 52.5q78 0 134 -21.5t93 -57.5t54.5 -82t17.5 -97q0 -154 -148.5 -241t-433.5 -87q-25 0 -53.5 1t-56.5 3q-10 -41 -14.5 -77.5t-4.5 -63.5q0 -119 54.5 -192.5t166.5 -73.5q96 0 174 30.5t121 65.5l52 -105 q-74 -63 -176.5 -97t-204.5 -34q-172 0 -260.5 99.5t-88.5 275.5zM315 641q82 0 170 4t161 22.5t120 58.5t47 110q0 23 -7 45t-24.5 40.5t-49.5 30t-79 11.5q-119 0 -206 -80t-132 -242z" />
<glyph unicode="f" horiz-adv-x="595" d="M-246 -403l47 118q43 -14 79 -19t87 -5q82 0 123 77.5t70 247.5l149 922h-166l29 137h158l26 144q16 80 38 138t56.5 97t88 58.5t129.5 19.5q70 0 136 -14.5t122 -38.5l-49 -127q-104 41 -199 41q-80 0 -117 -54.5t-55 -175.5l-17 -88h218l-25 -137h-211l-172 -1012 q-12 -80 -34.5 -147.5t-59.5 -117.5t-93.5 -78.5t-136.5 -28.5q-63 0 -118.5 9t-102.5 34z" />
<glyph unicode="g" horiz-adv-x="1085" d="M10 -358l72 118l41 -21q25 -13 60.5 -26.5t85.5 -21.5t120 -8q109 0 181.5 76.5t109.5 242.5l39 180h-10q-29 -41 -65 -76.5t-79 -65.5t-93 -47.5t-112 -17.5q-115 0 -186.5 84t-71.5 240q0 143 40 285.5t119 255t193.5 183.5t266.5 71q115 0 194.5 -18.5t141.5 -47.5 l-230 -1077q-45 -211 -155.5 -309.5t-292.5 -98.5q-139 0 -230.5 36t-138.5 63zM274 328q0 -100 40 -156.5t108 -56.5q53 0 106.5 27.5t97.5 71.5t78.5 95t59.5 97l108 520q-33 18 -83 24t-101 6q-88 0 -163.5 -51t-130 -138t-87.5 -201.5t-33 -237.5z" />
<glyph unicode="h" horiz-adv-x="1136" d="M78 0l317 1505h162l-133 -614h8q29 35 69 70.5t91 67.5t111.5 52.5t130.5 20.5q106 0 166.5 -51.5t60.5 -184.5q0 -90 -29 -217l-137 -649h-162l129 612l22 116q9 50 9 89q0 80 -33 113t-100 33q-57 0 -114.5 -29t-112 -74t-96.5 -101.5t-62 -107.5l-135 -651h-162z" />
<glyph unicode="i" horiz-adv-x="555" d="M117 0l227 1075h162l-230 -1075h-159zM379 1405q0 49 32.5 83t84.5 34q49 0 82.5 -34t33.5 -83t-33.5 -83t-82.5 -34q-51 0 -84 34t-33 83z" />
<glyph unicode="j" horiz-adv-x="534" d="M-207 -442l33 139q63 0 105 18.5t72 57.5t50.5 96t36.5 137l227 1069h162l-239 -1132q-43 -201 -134.5 -295t-244.5 -94q-18 0 -34 1t-34 3zM352 1405q0 49 34 83t83 34t84 -34t35 -83t-35 -83t-84 -34t-83 34t-34 83z" />
<glyph unicode="k" horiz-adv-x="964" d="M78 0l317 1505h162l-197 -915l95 22l387 463h196l-383 -436l-100 -72l82 -84l240 -483h-179l-241 483h-117l-100 -483h-162z" />
<glyph unicode="l" horiz-adv-x="579" d="M106 141q0 43 15 107l266 1257h162l-262 -1249q-8 -37 -8 -59q0 -41 14 -59.5t39 -18.5q43 0 71.5 5t69.5 19v-123q-18 -10 -45 -17t-53.5 -11t-53 -7t-49.5 -3q-74 0 -120 33.5t-46 125.5z" />
<glyph unicode="m" horiz-adv-x="1640" d="M78 0l227 1075h115l-14 -184h10q33 35 72.5 71.5t89 67.5t105.5 51.5t126 20.5q96 0 130 -60.5t34 -169.5q31 41 74 82t94 74t106.5 53.5t112.5 20.5q98 0 150.5 -47t52.5 -170q0 -92 -31 -240l-137 -645h-160l135 647q12 61 19.5 111.5t7.5 87.5q0 57 -23.5 87t-79.5 30 q-45 0 -95 -29t-98 -72t-85 -92t-60 -92l-139 -678h-162l129 608q18 76 26.5 134.5t8.5 101.5q0 57 -21.5 88t-72.5 31q-53 0 -105.5 -28t-97.5 -70t-83 -89t-58 -86l-141 -690h-162z" />
<glyph unicode="n" horiz-adv-x="1122" d="M78 0l227 1075h113l-8 -184h8q27 35 65.5 71.5t86.5 67.5t108.5 51.5t134.5 20.5q106 0 168.5 -52.5t62.5 -181.5q0 -63 -18 -153l-154 -715h-159l143 680q8 39 14.5 76t6.5 67q0 63 -29 101.5t-109 38.5q-55 0 -109.5 -26t-101.5 -66t-84.5 -88t-62.5 -95l-141 -688 h-162z" />
<glyph unicode="o" horiz-adv-x="1069" d="M106 336q0 170 45.5 310t122 241.5t179 158t219.5 56.5q90 0 153.5 -30t102.5 -80t56 -115.5t17 -137.5q0 -162 -41.5 -301t-115.5 -242.5t-173.5 -163t-213.5 -59.5q-98 0 -164 32t-108 83t-60.5 115.5t-18.5 132.5zM279 375q0 -127 48 -194.5t150 -67.5q72 0 135.5 50 t111.5 136t76.5 196.5t28.5 231.5q0 109 -39.5 172.5t-150.5 63.5q-72 0 -136.5 -48.5t-114.5 -130.5t-79.5 -188t-29.5 -221z" />
<glyph unicode="p" horiz-adv-x="1091" d="M-10 -430l319 1505h113l-10 -184h8q29 39 66.5 76t82.5 67.5t99.5 49t115.5 18.5q51 0 97.5 -16.5t80 -54.5t54 -100.5t20.5 -152.5q0 -188 -51 -337.5t-135 -253t-188.5 -159t-206.5 -55.5q-76 0 -133.5 14.5t-75.5 28.5l-94 -446h-162zM276 162q37 -29 76 -39t84 -10 q84 0 161 46t136.5 132t95 205.5t35.5 269.5q0 86 -35.5 141.5t-103.5 55.5q-57 0 -110.5 -30t-97.5 -74t-79 -94t-55 -93z" />
<glyph unicode="q" horiz-adv-x="1081" d="M98 303q0 143 47.5 285.5t131 254t200.5 181.5t256 70q45 0 91 -6.5t87 -15.5t76 -21.5t53 -24.5l-309 -1456h-162l131 610h-8q-25 -35 -58.5 -70.5t-75.5 -66.5t-93 -50.5t-111 -19.5q-68 0 -118 26t-79.5 70t-44 103t-14.5 131zM270 317q0 -102 34 -153t95 -51 q55 0 109.5 31.5t101.5 79.5t84 103.5t60 100.5l106 498q-35 18 -83 24t-85 6q-84 0 -159.5 -53t-134 -142t-93.5 -205t-35 -239z" />
<glyph unicode="r" horiz-adv-x="702" d="M78 0l227 1075h113v-184h8q25 41 55.5 75.5t67.5 63.5t80 44.5t94 15.5q47 0 98 -15l-43 -141q-18 4 -38.5 6t-39.5 2q-109 0 -188.5 -68.5t-124.5 -168.5l-147 -705h-162z" />
<glyph unicode="s" horiz-adv-x="854" d="M6 43l62 135q43 -27 112.5 -46t145.5 -19q104 0 167.5 46t63.5 144q0 55 -27.5 94t-70.5 71t-93.5 61.5t-93.5 67.5t-70.5 88t-27.5 126q0 59 28.5 112.5t80 93.5t121 62.5t151.5 22.5q115 0 176.5 -15.5t112.5 -44.5l-56 -129q-86 49 -233 50q-90 0 -149.5 -37 t-59.5 -115q0 -45 27.5 -79t70.5 -63l94 -62q50 -32 93 -70.5t70.5 -93t27.5 -128.5q0 -168 -112.5 -255t-303.5 -87q-96 0 -177 19.5t-130 50.5z" />
<glyph unicode="t" horiz-adv-x="671" d="M121 938l33 137h157l45 213l172 49l-55 -262h283l-33 -137h-281l-135 -649l-7 -48q-3 -22 -3 -38q0 -51 23.5 -70.5t70.5 -19.5q51 0 94 12t86 39v-131q-45 -27 -115.5 -43.5t-136.5 -16.5q-195 0 -194 181q0 35 10 90l148 694h-162z" />
<glyph unicode="u" horiz-adv-x="1097" d="M129 207q0 76 23 170l145 698h162l-152 -717q-12 -57 -12 -106q0 -61 23.5 -100t84.5 -39q53 0 105.5 25.5t100.5 66.5t88 90t67 96l143 684h162l-135 -639q-8 -37 -17.5 -89t-16.5 -110.5t-11 -112.5t-4 -95v-29h-127v205h-10q-31 -43 -73 -84t-93.5 -74t-108.5 -53.5 t-123 -20.5q-47 0 -87 11.5t-69.5 38t-47 70.5t-17.5 114z" />
<glyph unicode="v" horiz-adv-x="960" d="M129 1075h172l113 -631l18 -202h4l92 207l365 626h184l-671 -1100h-68z" />
<glyph unicode="w" horiz-adv-x="1472" d="M123 1075h164l65 -626l-4 -207h8l86 213l357 620h119l102 -629l8 -204h2l84 209l316 624h163l-577 -1100h-82l-115 711l-2 176h-4l-80 -178l-407 -709h-78z" />
<glyph unicode="x" horiz-adv-x="1040" d="M-47 0l483 551l-229 524h182l127 -297l39 -123l88 123l260 297h197l-457 -516l256 -559h-182l-148 328l-43 129l-90 -129l-289 -328h-194z" />
<glyph unicode="y" horiz-adv-x="942" d="M-43 -422l51 150q25 -10 51 -11q63 0 126 64.5t141 218.5l-187 1075h172l107 -696l10 -207h10l82 209l357 694h172l-506 -958l-112 -206q-54 -99 -112.5 -178t-121 -126t-127.5 -47q-37 0 -63.5 4t-49.5 14z" />
<glyph unicode="z" horiz-adv-x="921" d="M-4 0l29 147l604 687l116 94h-555l33 147h725l-33 -147l-610 -695l-117 -86h562l-29 -147h-725z" />
<glyph unicode="{" horiz-adv-x="700" d="M162 432l31 146q160 0 200 184l113 520q20 100 81.5 162.5t157.5 62.5h175l-31 -149h-105q-55 0 -85.5 -30t-47.5 -97l-104 -510q-20 -94 -73.5 -144.5t-113.5 -60.5l-2 -12q43 -6 75 -49t30 -113q0 -10 -3 -26l-14 -67q-10 -52 -33 -161l-67 -305l-4 -24q-2 -11 -2 -21 q-2 -82 90 -82h100l-32 -152h-174q-76 0 -117 42t-39 120q0 31 8 64l109 512q8 37 8 67q4 70 -32 96.5t-99 26.5z" />
<glyph unicode="|" horiz-adv-x="509" d="M248 -279v1784h147v-1784h-147z" />
<glyph unicode="}" horiz-adv-x="710" d="M-135 -496l35 152h100q53 0 85 28.5t44 98.5l109 510q20 94 72 143t114 62l4 12q-47 6 -79 49t-30 113q0 10 3.5 23.5t5.5 27.5l108 508q4 12 5 22.5t1 22.5q2 82 -88 82h-98l31 149h174q74 0 115.5 -41t37.5 -120q0 -29 -8 -62l-106 -512q-10 -37 -11 -65 q-2 -70 34 -97.5t100 -27.5l-33 -148q-78 0 -129 -45t-74 -137q0 -2 -5 -26l-13 -60l-17.5 -84t-17.5 -94l-55 -256q-20 -102 -83 -165t-159 -63h-172z" />
<glyph unicode="~" horiz-adv-x="1032" d="M98 776q92 72 168 99.5t137 27.5t112.5 -18.5t99 -41t93.5 -41t95 -18.5q41 0 84 17.5t92 60.5l72 -131q-80 -55 -145.5 -77.5t-121.5 -22.5q-57 0 -105 18.5t-92 41t-88 40t-98 17.5q-49 0 -104 -23t-125 -78z" />
<glyph unicode="&#xa2;" d="M217 317q0 166 41 301.5t110.5 234.5t162 160.5t196.5 78.5l43 198h143l-43 -190q57 -8 99.5 -20.5t77.5 -28.5l-60 -133q-29 18 -69.5 28t-90.5 15l-178 -844q57 8 115.5 33.5t95.5 50.5l41 -109q-53 -45 -127 -72.5t-141 -37.5l-41 -197h-143l40 195q-80 12 -134 49 t-83.5 85t-42 101t-12.5 102zM389 385q0 -119 40 -184.5t112 -81.5l176 835q-66 -16 -125.5 -69.5t-104.5 -130t-71.5 -173t-26.5 -196.5z" />
<glyph unicode="&#xa3;" d="M80 0l33 154q63 0 122.5 31.5t104.5 87t71.5 130t26.5 164.5q0 43 -4 79t-10 71h-203l33 137h139q-8 39 -12 83t-4 99q0 123 43 216.5t114.5 154.5t169 93t205.5 32q86 0 163 -18.5t126 -47.5l-59 -137q-41 23 -111 38t-156 15q-66 0 -125 -22.5t-103 -66.5t-69.5 -107.5 t-25.5 -145.5q0 -66 5 -108.5t13 -77.5h334l-33 -137h-268q4 -27 6 -58.5t2 -74.5q0 -72 -13 -132.5t-33.5 -108.5t-47.5 -84t-49 -56l-96 -74l-4 -10l135 28h524l-33 -147h-911z" />
<glyph unicode="&#xa5;" d="M193 311l26 129h252l29 135h-250l26 130h193l-248 800h189l196 -657l6 -131h2l66 135l457 653h194l-577 -800h190l-29 -130h-243l-29 -135h246l-29 -129h-246l-63 -311h-172l63 311h-249z" />
<glyph unicode="&#xa8;" horiz-adv-x="526" d="M420 1405q0 47 26.5 77.5t71.5 30.5t72.5 -30.5t27.5 -77.5q0 -43 -27.5 -75t-72.5 -32t-71.5 32t-26.5 75zM813 1407q0 45 26.5 75.5t71.5 30.5q47 0 75 -30.5t28 -75.5t-28 -77t-75 -32q-45 0 -71.5 32t-26.5 77z" />
<glyph unicode="&#xa9;" horiz-adv-x="1732" d="M166 623q0 180 60.5 320t163 237.5t240.5 148.5t292 51q156 0 293 -51t240.5 -148.5t163.5 -237.5t60 -320q0 -178 -60 -318.5t-163.5 -238t-241 -148.5t-292.5 -51q-172 0 -311.5 51t-239 148.5t-152.5 238t-53 318.5zM315 623q0 -147 48.5 -262t129 -193t191.5 -119 t238 -41t238.5 41t192.5 119t129 192.5t48 262.5q0 150 -48 264t-129 192t-192.5 119t-238.5 41t-238 -41t-191.5 -119t-129 -192t-48.5 -264zM561 623q0 197 98.5 303t258.5 106q39 0 70.5 -4t58 -12t52.5 -19l58 -22l-55 -131q-49 23 -92 32t-72 9q-90 0 -147.5 -56.5 t-57.5 -205.5q0 -123 56.5 -192t164.5 -71q102 0 172 39l45 -127q-49 -27 -110.5 -42t-142.5 -15q-174 0 -265.5 110t-91.5 298z" />
<glyph unicode="&#xab;" horiz-adv-x="974" d="M82 557l430 494l96 -101l-266 -311l-123 -80l76 -80l143 -305l-114 -92zM457 557l424 490l96 -99l-264 -309l-121 -80l72 -80l145 -303l-117 -90z" />
<glyph unicode="&#xad;" horiz-adv-x="735" d="M135 547l35 145h494l-35 -145h-494z" />
<glyph unicode="&#xae;" horiz-adv-x="1505" d="M295 971q0 137 45 243.5t124 178t181.5 109.5t218.5 38q119 0 223.5 -38t181.5 -109.5t121 -178t44 -243.5q0 -139 -45.5 -246t-123 -178.5t-181 -109.5t-220.5 -38q-121 0 -224 38t-180 109.5t-121 178.5t-44 246zM430 971q0 -113 35 -196t93 -137t138 -83t168 -29 q92 0 172 28t138.5 82t91 137t32.5 198q0 111 -33.5 193.5t-93 138t-138.5 83t-169 27.5q-94 0 -174 -27.5t-137 -83t-90 -138t-33 -193.5zM643 692v557q35 10 97.5 16.5t117.5 6.5q90 0 154.5 -38t64.5 -130q0 -70 -44 -106.5t-107 -41.5l59 -28l160 -236h-131l-156 223 l-102 33v-256h-113zM756 1014h71q63 0 97 18.5t34 67.5q0 74 -124 74q-23 0 -44.5 -1.5t-33.5 -7.5v-151z" />
<glyph unicode="&#xb4;" horiz-adv-x="509" d="M725 1229l188 319h181l-11 -45l-264 -274h-94z" />
<glyph unicode="&#xb8;" horiz-adv-x="780" d="M510 -438l37 84q10 -2 22 -2h23q45 0 74.5 8t47 20.5t23.5 26.5t6 29q0 41 -45 60t-120 19l141 193h112l-69 -92q57 -6 95 -44t38 -108q0 -90 -67.5 -147.5t-204.5 -57.5q-25 0 -53.5 3.5z" />
<glyph unicode="&#xba;" horiz-adv-x="813" d="M129 1053q0 125 38 216t95 148.5t129 86t139 28.5q123 0 186.5 -67.5t63.5 -188.5q0 -117 -31.5 -205t-87 -148.5t-129 -91t-155.5 -30.5q-111 0 -179.5 66.5t-68.5 185.5zM276 1071q0 -70 32 -107.5t93 -37.5q45 0 87 23.5t75 67.5t51.5 107.5t18.5 141.5 q0 76 -34 108.5t-93 32.5q-45 0 -87 -27.5t-74 -72.5t-50.5 -106.5t-18.5 -129.5z" />
<glyph unicode="&#xbb;" horiz-adv-x="974" d="M82 182l264 310l121 81l-76 95l-145 303l123 76l233 -472l-426 -489zM449 180l268 312l119 81l-74 97l-150 305l125 76l240 -476l-430 -493z" />
<glyph unicode="&#x2c6;" horiz-adv-x="925" d="M655 1184l336 391h66l141 -391h-135l-51 141l-15 125l-71 -125l-123 -141h-148z" />
<glyph unicode="&#x2da;" horiz-adv-x="862" d="M848 1382q0 90 56.5 143.5t152.5 53.5q90 0 149.5 -48t59.5 -149q0 -84 -59.5 -138t-149.5 -54q-92 0 -150.5 50t-58.5 142zM963 1382q0 -43 29.5 -66.5t64.5 -23.5q41 0 67.5 21.5t26.5 68.5t-29.5 70t-64.5 23q-37 0 -65.5 -22t-28.5 -71z" />
<glyph unicode="&#x2dc;" horiz-adv-x="749" d="M698 1411q70 70 120 97.5t89 27.5q33 0 58.5 -14.5t50 -30.5t49.5 -28.5t55 -12.5q49 0 117 51l33 -92q-63 -63 -108.5 -87t-82.5 -24q-33 0 -58.5 13.5t-50 30t-50 28.5t-58.5 12q-29 0 -60.5 -13t-74.5 -48z" />
<glyph unicode="&#x410;" horiz-adv-x="1196" d="M-72 0l871 1530h78l217 -1530h-164l-62 418h-524l-231 -418h-185zM428 571h424l-64 459l-4 227h-2l-96 -231z" />
<glyph unicode="&#x411;" horiz-adv-x="1126" d="M86 14l315 1491h775l-31 -159h-608l-95 -451q37 6 89.5 12t101.5 6q213 0 325.5 -97t112.5 -271q0 -158 -57.5 -265.5t-148.5 -173t-205.5 -94t-231.5 -28.5q-35 0 -78 1t-98 5q-43 4 -86 9t-80 15zM287 152q25 -10 84 -12.5t110 -2.5q74 0 146.5 21.5t131 66.5t95.5 118 t37 173q0 131 -83 187.5t-224 56.5q-18 0 -44 -2t-50.5 -5t-46 -6.5t-31.5 -5.5z" />
<glyph unicode="&#x412;" horiz-adv-x="1193" d="M86 10l313 1483q82 12 184.5 20.5t221.5 8.5q80 0 152.5 -20.5t127 -60.5t88 -104.5t33.5 -150.5q0 -84 -25.5 -153.5t-72.5 -121t-110.5 -82t-137.5 -43.5v-8q47 -10 90 -34.5t76 -61.5t52.5 -85t19.5 -108q0 -150 -59.5 -248t-151.5 -155t-205 -79.5t-221 -22.5h-83 q-48 0 -124 4q-129 12 -168 22zM287 154q12 -6 38.5 -8.5t58.5 -4.5t64.5 -3t59.5 -1q76 0 148.5 18.5t131 57.5t93 101.5t34.5 152.5q0 66 -31.5 110t-83.5 70.5t-118 35.5t-131 9h-152zM430 840h115q37 0 86 1t84 5q49 10 104 29.5t101.5 54.5t76 90t29.5 137 q0 59 -18.5 99t-54 65t-85 36t-108.5 11q-70 0 -130.5 -3t-88.5 -9z" />
<glyph unicode="&#x413;" horiz-adv-x="903" d="M86 0l320 1505h763l-32 -159h-594l-285 -1346h-172z" />
<glyph unicode="&#x414;" horiz-adv-x="1368" d="M-135 -276l90 436h143q23 23 78 106.5t127 244.5t147.5 405.5t139.5 588.5h160h602l-285 -1345h188l-92 -436h-119l29 276h-1001l-90 -276h-117zM293 160h604l252 1186h-430q-106 -471 -217 -759t-209 -427z" />
<glyph unicode="&#x415;" horiz-adv-x="1095" d="M86 0l320 1505h778l-33 -159h-608l-107 -492h557l-32 -160h-558l-112 -534h618l-35 -160h-618h-170z" />
<glyph unicode="&#x416;" horiz-adv-x="1648" d="M-94 0l592 674l112 82l-73 73l-285 676h188l273 -676h102l143 676h162l-147 -700l78 29l553 671h208l-550 -653l-101 -70l86 -88l309 -694h-188l-311 696h-109l-145 -696h-162l152 723l-78 -29l-594 -694h-215z" />
<glyph unicode="&#x417;" horiz-adv-x="1105" d="M12 31l78 155q43 -23 123 -40t201 -17q72 0 147.5 18.5t136 59.5t97 106.5t36.5 159.5q0 63 -22.5 106.5t-61 72t-88 41t-100.5 16.5q-25 4 -48 4h-46h-113l33 147h31q39 0 95 3t91 7q57 6 117.5 27t109 57.5t80 91t31.5 125.5q0 98 -68.5 151.5t-187.5 53.5 q-111 0 -183.5 -18.5t-131.5 -38.5l-19 139q49 23 149.5 48.5t231.5 25.5q82 0 152.5 -20.5t124 -59.5t83 -97.5t29.5 -135.5q0 -92 -28.5 -163t-77.5 -123t-113.5 -83t-134.5 -41v-8q45 -12 89 -35t80 -60.5t57.5 -95t21.5 -137.5q0 -141 -58.5 -237.5t-150.5 -153.5 t-206 -83t-224 -26q-135 0 -222.5 16.5t-140.5 41.5z" />
<glyph unicode="&#x418;" horiz-adv-x="1392" d="M86 0l320 1505h172l-218 -1024l-53 -164h8l127 179l897 1009h111l-320 -1505h-172l213 1006l52 174h-6l-127 -181l-893 -999h-111z" />
<glyph unicode="&#x419;" horiz-adv-x="1392" d="M86 0l320 1505h172l-218 -1024l-53 -164h8l127 179l897 1009h111l-320 -1505h-172l213 1006l52 174h-6l-127 -181l-893 -999h-111zM678 1827l146 45q0 -80 39.5 -123t111.5 -43q90 0 148.5 44t81.5 118l157 -35q-39 -117 -140 -184.5t-255 -67.5q-147 0 -216 72t-73 174z " />
<glyph unicode="&#x41a;" horiz-adv-x="1236" d="M86 0l317 1505h172l-149 -700l86 29l616 671h213l-614 -653l-98 -68l84 -86l374 -698h-194l-379 696h-111l-145 -696h-172z" />
<glyph unicode="&#x41b;" horiz-adv-x="1275" d="M-90 10l57 156q23 -6 47 -6q41 0 83 25.5t85 88.5q39 59 84 155.5t95.5 244t103.5 352.5t110 479h168h590l-317 -1505h-172l284 1346h-421q-98 -428 -189.5 -713t-191.5 -447q-68 -104 -139.5 -150t-151.5 -46q-37 0 -69.5 5t-55.5 15z" />
<glyph unicode="&#x41c;" horiz-adv-x="1619" d="M86 0l320 1505h118l281 -770l31 -168h4l98 172l586 766h153l-319 -1505h-172l215 1012l65 225h-8l-121 -207l-516 -680h-51l-248 680l-33 207h-8l-16 -223l-215 -1014h-164z" />
<glyph unicode="&#x41d;" horiz-adv-x="1372" d="M86 0l317 1505h172l-137 -655h682l137 655h173l-318 -1505h-172l145 690h-684l-143 -690h-172z" />
<glyph unicode="&#x41e;" horiz-adv-x="1398" d="M154 551q0 197 53 376t153.5 313t240.5 213t312 79q104 0 192.5 -32t152 -99.5t98.5 -175t35 -262.5q0 -201 -53.5 -381.5t-150.5 -315.5t-231.5 -214t-296.5 -79q-254 0 -379.5 147.5t-125.5 430.5zM334 553q0 -203 84 -313.5t246 -110.5q121 0 221 66.5t172.5 180 t112.5 264.5t40 318q0 125 -27.5 207t-73.5 128t-105.5 64.5t-118.5 18.5q-123 0 -224.5 -67.5t-173 -181t-112.5 -263t-41 -311.5z" />
<glyph unicode="&#x41f;" horiz-adv-x="1347" d="M86 0l320 1505h999l-320 -1505h-172l287 1346h-657l-285 -1346h-172z" />
<glyph unicode="&#x420;" horiz-adv-x="1142" d="M86 0l315 1491q82 18 172.5 24.5t180.5 6.5q98 0 183 -21.5t147.5 -69t97.5 -121t35 -177.5q0 -162 -58.5 -272.5t-155 -176.5t-216 -93.5t-242.5 -27.5h-35q-23 0 -48.5 1t-49 3t-33.5 4l-121 -571h-172zM414 729q8 -4 28.5 -5t43 -3t43.5 -2h32q92 0 178 19.5 t151.5 66.5t105.5 121.5t40 189.5q0 78 -25.5 127t-69.5 76t-102.5 38t-121.5 11q-49 0 -96.5 -3t-75.5 -9z" />
<glyph unicode="&#x421;" horiz-adv-x="1169" d="M154 590q0 242 70.5 420t186 293.5t261 172t293.5 56.5q123 0 200.5 -17.5t126.5 -41.5l-78 -156q-43 23 -112.5 39t-159.5 16q-121 0 -231.5 -53t-194.5 -151.5t-133 -241t-49 -318.5q0 -102 26.5 -189t76.5 -150.5t125 -99.5t169 -36q100 0 167 22.5t122 53.5l12 -148 q-74 -49 -155.5 -68.5t-188.5 -19.5q-127 0 -226.5 47.5t-168 129t-104 194.5t-35.5 246z" />
<glyph unicode="&#x422;" horiz-adv-x="1134" d="M238 1346l30 159h1059l-33 -159h-444l-285 -1346h-172l285 1346h-440z" />
<glyph unicode="&#x423;" horiz-adv-x="1130" d="M117 37l84 147q33 -20 60.5 -28.5t55.5 -8.5q57 0 110.5 72t117.5 180l-293 1106h182l199 -792l12 -193h8l82 199l441 786h190l-571 -979l-153 -255q-65 -103 -119 -165.5t-107.5 -89t-118.5 -26.5q-70 0 -110.5 13.5t-69.5 33.5z" />
<glyph unicode="&#x424;" horiz-adv-x="1595" d="M135 604q0 176 46 318.5t132 242t207 153.5t266 54q29 0 70 -2t62 -6l40 184h166l-41 -190q41 10 82 12t74 2q78 0 146.5 -24.5t118.5 -76.5t80 -135t30 -198q0 -190 -52.5 -334.5t-139.5 -244t-202.5 -150.5t-244.5 -51q-29 0 -74 3t-70 11l-47 -215h-166l46 215 q-35 -8 -71 -11t-85 -3q-59 0 -125 20.5t-120 71.5t-91 137t-37 217zM315 614q0 -88 21.5 -146t57.5 -95t80 -52.5t89 -15.5q23 0 65 1t70 11l191 897q-25 4 -59.5 6.5t-63.5 2.5q-102 0 -184 -45t-141.5 -125t-92.5 -193t-33 -246zM858 311q20 -4 54 -5t65 -1 q111 0 195.5 50.5t143 135t87.5 194.5t29 228q0 168 -67 239t-175 71q-29 0 -70 -2t-71 -13z" />
<glyph unicode="&#x425;" horiz-adv-x="1263" d="M-14 0l635 770l-279 735h186l187 -510l24 -123l74 123l410 510h209l-601 -729l306 -776h-187l-207 541l-28 129l-82 -129l-440 -541h-207z" />
<glyph unicode="&#x426;" horiz-adv-x="1404" d="M86 0l320 1505h172l-285 -1345h641l283 1345h172l-283 -1345h186l-92 -436h-117l27 276h-39h-174h-635h-176z" />
<glyph unicode="&#x427;" horiz-adv-x="1236" d="M258 864q0 66 14 133l109 508h172l-104 -483q-6 -31 -10.5 -59.5t-4.5 -53.5q0 -197 203 -196q96 0 185 26.5t153 71.5l147 694h172l-317 -1505h-172l137 649q-63 -37 -150 -66.5t-208 -29.5q-66 0 -125.5 16.5t-104.5 53t-70.5 96t-25.5 145.5z" />
<glyph unicode="&#x428;" horiz-adv-x="1794" d="M86 0l320 1505h172l-285 -1345h467l282 1345h172l-284 -1345h465l284 1345h172l-319 -1505h-172h-465h-172h-465h-172z" />
<glyph unicode="&#x429;" horiz-adv-x="1865" d="M86 0l320 1505h172l-285 -1345h467l282 1345h172l-284 -1345h465l284 1345h172l-286 -1345h190l-92 -436h-119l29 276h-41h-172h-465h-172h-465h-172z" />
<glyph unicode="&#x42a;" horiz-adv-x="1284" d="M199 1346l30 159h498l-125 -585l36 6q24 4 52.5 7t57 4t53.5 1q88 0 169 -20.5t143.5 -66.5t99 -120t36.5 -178q0 -147 -50 -255t-141 -177.5t-214 -103t-271 -33.5q-27 0 -68.5 1t-98.5 5q-43 2 -86.5 8t-77.5 16l280 1332h-323zM438 152q29 -8 77 -11.5t99 -3.5 q98 0 180.5 24.5t143.5 75t96 124t35 169.5q0 72 -25.5 120t-68.5 78t-100.5 42t-118.5 12q-20 0 -47 -2l-55 -4q-28 -2 -52 -6t-35 -6z" />
<glyph unicode="&#x42b;" horiz-adv-x="1574" d="M86 14l315 1491h172l-122 -585q35 8 84 13t98 5q88 0 163.5 -23.5t132 -71.5t87.5 -118t31 -162q0 -154 -54.5 -265.5t-145.5 -181t-211 -101t-247 -31.5q-51 0 -135 4q-96 8 -168 26zM289 152q29 -8 63.5 -11.5t83.5 -3.5q84 0 163 25.5t137.5 76t94 125t35.5 177.5 q0 123 -74.5 182t-222.5 59q-37 0 -84 -6t-69 -12zM1143 0l317 1505h172l-317 -1505h-172z" />
<glyph unicode="&#x42c;" horiz-adv-x="1132" d="M86 14l315 1491h172l-122 -585l34.5 6t49 7t56.5 4t54 1q90 0 172 -21.5t144.5 -67.5t99.5 -120t37 -178q0 -147 -52.5 -255t-143.5 -177.5t-214 -102t-264 -32.5q-29 0 -71 1t-99 5q-41 2 -85 8t-83 16zM289 152q25 -8 75 -11.5t101 -3.5q88 0 170 22.5t144.5 71t99 123 t36.5 178.5q0 129 -87 189.5t-228 60.5q-16 0 -44 -2l-55 -4q-28 -2 -51.5 -6t-33.5 -6z" />
<glyph unicode="&#x42d;" horiz-adv-x="1189" d="M25 29l77 155q43 -23 118 -39t157 -16q109 0 209 37t183 108.5t139.5 176t80.5 239.5h-606l31 154h598q2 23 3 48.5t1 49.5q0 205 -93.5 319.5t-293.5 114.5q-98 0 -171 -21.5t-126 -49.5l-15 143q74 39 159 61.5t194 22.5q154 0 254 -52.5t157.5 -133t82 -180 t24.5 -195.5q0 -211 -51.5 -393.5t-154.5 -315.5t-262 -211t-378 -78q-98 0 -182 15.5t-135 40.5z" />
<glyph unicode="&#x42e;" horiz-adv-x="1851" d="M86 0l317 1505h172l-137 -655h252q100 350 281.5 516t408.5 166q213 0 338 -124t125 -376q0 -213 -51 -405.5t-147.5 -338t-235.5 -230.5t-319 -85q-113 0 -195 40t-135 112t-78 169t-25 214q0 88 15 182h-271l-143 -690h-172zM834 502q0 -76 15 -143.5t51 -119t92.5 -81 t142.5 -29.5q115 0 212 71.5t166.5 192.5t109.5 281t40 338q0 164 -75 264t-214 100q-119 0 -217 -70.5t-171 -190.5t-112.5 -278.5t-39.5 -334.5z" />
<glyph unicode="&#x42f;" horiz-adv-x="1167" d="M-29 0l430 541l146 94q-41 12 -87 39.5t-85 72t-64.5 108t-25.5 151.5q0 150 56 248t146.5 158.5t204 85t223.5 24.5q70 0 154 -6.5t154 -24.5l-314 -1491h-172l137 653l-206 -45l-490 -608h-207zM465 1020q0 -123 75.5 -191.5t217.5 -68.5h139l127 596q-27 6 -61.5 9 t-88.5 3q-74 0 -147.5 -17.5t-131.5 -57.5t-94 -107.5t-36 -165.5z" />
<glyph unicode="&#x430;" horiz-adv-x="1046" d="M96 307q0 137 36 279.5t109.5 256t191.5 187.5t284 74q59 0 146 -14.5t163 -38.5l-135 -627q-18 -80 -24.5 -162t-6.5 -151v-63q0 -30 4 -52h-121l-28 186h-10q-25 -37 -63 -73.5t-83 -67.5t-96 -49.5t-111 -18.5q-256 0 -256 334zM268 307q0 -82 33 -138t100 -56 q53 0 100.5 24.5t89.5 60t73.5 77.5t52.5 79l119 582q-63 29 -162 29q-100 0 -175 -57.5t-127.5 -151.5t-78 -212t-25.5 -237z" />
<glyph unicode="&#x431;" horiz-adv-x="1071" d="M129 369q0 227 44 422.5t121 343t179 236.5t223 108q90 14 166 21l136 13q60 6 102.5 16.5t64.5 29.5l-6 -150q-35 -27 -115.5 -45t-240.5 -31q-74 -6 -141.5 -25.5t-130 -73.5t-117 -152.5t-99.5 -260.5h17q90 133 189.5 191.5t228.5 58.5q150 0 214 -84t64 -233 q0 -180 -46 -323.5t-124 -245t-177 -157t-210 -55.5q-94 0 -159.5 33t-105.5 86t-58.5 125t-18.5 152zM301 391q0 -55 6 -104t27.5 -86t60.5 -57.5t105 -20.5q63 0 126.5 42t114 118.5t83 187.5t32.5 246q0 41 -7 76.5t-26.5 65.5t-53.5 46.5t-87 16.5q-72 0 -140.5 -41 t-122.5 -115t-86 -169t-32 -206z" />
<glyph unicode="&#x432;" horiz-adv-x="978" d="M100 299q0 33 2 60.5t9 62.5l14 81q8 46 22 109q55 242 186.5 360t323.5 118q82 0 136.5 -14.5t86 -42t45 -63.5t13.5 -81q0 -115 -75 -199t-195 -119l-6 -8q104 -4 158 -51t54 -127q0 -98 -39.5 -173t-106 -125t-153 -75.5t-178.5 -25.5q-61 0 -116.5 14t-95.5 50 t-62.5 97.5t-22.5 151.5zM256 307q0 -184 172 -184q55 0 106.5 15.5t89.5 46t60.5 75.5t22.5 109q0 55 -46.5 89t-154.5 34h-17q-10 0 -32.5 -2.5t-65.5 -4.5t-115 -8q-10 -57 -15 -97t-5 -73zM303 602l195 19q31 2 78 17t92 42t74.5 65.5t29.5 90.5q0 59 -29.5 87.5 t-115.5 28.5q-123 0 -199 -76.5t-113 -222.5z" />
<glyph unicode="&#x433;" horiz-adv-x="882" d="M57 258q0 102 45 166.5t115 107.5t148.5 72t148.5 57.5t115 66.5t45 99q0 70 -38 97.5t-130 27.5q-82 0 -141.5 -18.5t-106.5 -40.5l-33 127q70 37 152 53.5t172 16.5q86 0 142.5 -19.5t91 -51.5t49 -75t14.5 -90q0 -104 -45 -167.5t-115 -102.5t-148.5 -65.5 t-148.5 -56.5t-115 -72t-45 -114q0 -74 49.5 -118.5t127.5 -44.5q80 0 157.5 27.5t120.5 58.5l43 -107q-68 -55 -161 -87t-171 -32q-104 0 -169.5 30t-103.5 73t-51.5 92t-13.5 90z" />
<glyph unicode="&#x434;" horiz-adv-x="1062" d="M111 379q0 135 36.5 262t108.5 225.5t172 158.5t227 60q74 0 116 -13t73 -36h10q-10 164 -118.5 260.5t-297.5 96.5l31 139q158 0 262.5 -48t169 -129t92 -191.5t27.5 -233.5q0 -227 -44 -404.5t-122 -300.5t-182.5 -187.5t-225.5 -64.5q-174 0 -254.5 108t-80.5 298z M283 360q0 -104 43 -175.5t139 -71.5q104 0 178 74.5t119 187t65.5 246t20.5 245.5q-37 43 -83 62.5t-122 19.5q-70 0 -134.5 -43t-114.5 -120.5t-80.5 -186.5t-30.5 -238z" />
<glyph unicode="&#x435;" horiz-adv-x="995" d="M106 348q0 176 50.5 316.5t131.5 236.5t182 148.5t210 52.5q78 0 134 -21.5t93 -57.5t54.5 -82t17.5 -97q0 -154 -148.5 -241t-433.5 -87q-25 0 -53.5 1t-56.5 3q-10 -41 -14.5 -77.5t-4.5 -63.5q0 -119 54.5 -192.5t166.5 -73.5q96 0 174 30.5t121 65.5l52 -105 q-74 -63 -176.5 -97t-204.5 -34q-172 0 -260.5 99.5t-88.5 275.5zM315 641q82 0 170 4t161 22.5t120 58.5t47 110q0 23 -7 45t-24.5 40.5t-49.5 30t-79 11.5q-119 0 -206 -80t-132 -242z" />
<glyph unicode="&#x436;" horiz-adv-x="1513" d="M-31 4l43 148q27 -8 54 -9q86 0 160.5 92.5t117.5 309.5l17.5 109t7.5 89q0 115 -39 157t-101 42q-10 0 -20 -1t-23 -3l-18 133q31 4 56.5 7t47.5 3q121 0 181.5 -69.5t60.5 -225.5q0 -39 -4 -83t-12 -93h209l100 465h160l-101 -465h197q37 137 81 228.5t94 145.5 t104.5 76.5t111.5 22.5q47 0 92 -12l-37 -137q-10 2 -21 3t-22 1q-39 0 -73.5 -17.5t-66.5 -59.5t-59.5 -110.5t-54.5 -172.5q-12 -53 -19 -104.5t-7 -100.5q0 -104 32.5 -176t106.5 -72q23 0 55 10l25 -131q-35 -10 -65.5 -13t-57.5 -3q-74 0 -122 28.5t-77.5 76.5 t-41 111.5t-11.5 133.5q0 37 3 72.5t7 72.5h-198l-103 -483h-161l104 483h-201q-39 -143 -85 -237t-97 -151.5t-108.5 -81t-114.5 -23.5q-27 0 -53.5 4t-53.5 10z" />
<glyph unicode="&#x437;" horiz-adv-x="897" d="M-8 57l67 129q43 -27 107.5 -47t142.5 -20q125 0 210 63.5t85 171.5q0 66 -51 96.5t-176 30.5h-119l29 133h141q37 0 79 17.5t76.5 47.5t59.5 67.5t25 80.5q0 70 -41 97.5t-152 27.5q-78 0 -134 -17t-108 -40l-32 127q68 37 150.5 52.5t191.5 15.5q158 0 227.5 -56.5 t69.5 -165.5q0 -55 -19.5 -102t-53.5 -85t-76 -63.5t-87 -42.5v-8q92 -16 130 -69.5t38 -120.5q0 -94 -39 -168t-104.5 -124t-154.5 -76.5t-191 -26.5q-86 0 -166 21t-125 54z" />
<glyph unicode="&#x438;" horiz-adv-x="1097" d="M129 207q0 76 23 170l145 698h162l-152 -717q-12 -57 -12 -106q0 -61 23.5 -100t84.5 -39q53 0 105.5 25.5t100.5 66.5t88 90t67 96l143 684h162l-135 -639q-8 -37 -17.5 -89t-16.5 -110.5t-11 -112.5t-4 -95v-29h-127v205h-10q-31 -43 -73 -84t-93.5 -74t-108.5 -53.5 t-123 -20.5q-47 0 -87 11.5t-69.5 38t-47 70.5t-17.5 114z" />
<glyph unicode="&#x439;" horiz-adv-x="1097" d="M129 207q0 76 23 170l145 698h162l-152 -717q-12 -57 -12 -106q0 -61 23.5 -100t84.5 -39q53 0 105.5 25.5t100.5 66.5t88 90t67 96l143 684h162l-135 -639q-8 -37 -17.5 -89t-16.5 -110.5t-11 -112.5t-4 -95v-29h-127v205h-10q-31 -43 -73 -84t-93.5 -74t-108.5 -53.5 t-123 -20.5q-47 0 -87 11.5t-69.5 38t-47 70.5t-17.5 114zM434 1438v20l150 51q0 -100 42 -138t105 -38q68 0 126.5 41t94.5 133l117 -41q-43 -125 -145.5 -191.5t-222.5 -66.5q-53 0 -101.5 13.5t-85.5 41t-58.5 72t-21.5 103.5z" />
<glyph unicode="&#x43a;" horiz-adv-x="997" d="M76 0l227 1075h162l-105 -485l89 26l401 459h192l-393 -432l-98 -72l86 -86l240 -485h-181l-241 483h-117l-100 -483h-162z" />
<glyph unicode="&#x43b;" horiz-adv-x="1052" d="M-72 10l52 137q25 -6 49 -6q47 0 89 35t87 136.5t97 283.5t124 479h598l-229 -1075h-160l199 938h-287q-57 -231 -106.5 -407.5t-107 -295t-126 -181t-164.5 -62.5q-37 0 -66 4t-49 14z" />
<glyph unicode="&#x43c;" horiz-adv-x="1335" d="M76 0l227 1075h148l184 -481l33 -125h4l88 129l368 477h177l-228 -1075h-159l135 639l55 205h-8l-111 -166l-336 -422h-55l-168 422l-33 166h-8l-29 -203l-135 -641h-149z" />
<glyph unicode="&#x43d;" horiz-adv-x="1120" d="M76 0l227 1075h162l-94 -446h463l96 446h160l-228 -1075h-162l103 473h-465l-100 -473h-162z" />
<glyph unicode="&#x43e;" horiz-adv-x="1069" d="M106 336q0 170 45.5 310t122 241.5t179 158t219.5 56.5q90 0 153.5 -30t102.5 -80t56 -115.5t17 -137.5q0 -162 -41.5 -301t-115.5 -242.5t-173.5 -163t-213.5 -59.5q-98 0 -164 32t-108 83t-60.5 115.5t-18.5 132.5zM279 375q0 -127 48 -194.5t150 -67.5q72 0 135.5 50 t111.5 136t76.5 196.5t28.5 231.5q0 109 -39.5 172.5t-150.5 63.5q-72 0 -136.5 -48.5t-114.5 -130.5t-79.5 -188t-29.5 -221z" />
<glyph unicode="&#x43f;" horiz-adv-x="1122" d="M58 0l227 1075h113l-8 -184h8q27 35 65.5 71.5t86.5 67.5t108.5 51.5t134.5 20.5q106 0 168.5 -52.5t62.5 -181.5q0 -63 -18 -153l-154 -715h-159l143 680q8 39 14.5 76t6.5 67q0 63 -29 101.5t-109 38.5q-55 0 -109.5 -26t-101.5 -66t-84.5 -88t-62.5 -95l-141 -688 h-162z" />
<glyph unicode="&#x440;" horiz-adv-x="1091" d="M-10 -430l319 1505h113l-10 -184h8q29 39 66.5 76t82.5 67.5t99.5 49t115.5 18.5q51 0 97.5 -16.5t80 -54.5t54 -100.5t20.5 -152.5q0 -188 -51 -337.5t-135 -253t-188.5 -159t-206.5 -55.5q-76 0 -133.5 14.5t-75.5 28.5l-94 -446h-162zM276 162q37 -29 76 -39t84 -10 q84 0 161 46t136.5 132t95 205.5t35.5 269.5q0 86 -35.5 141.5t-103.5 55.5q-57 0 -110.5 -30t-97.5 -74t-79 -94t-55 -93z" />
<glyph unicode="&#x441;" horiz-adv-x="903" d="M106 317q0 184 50.5 329t133.5 246t190.5 155.5t219.5 54.5q82 0 135.5 -15.5t96.5 -35.5l-62 -133q-37 23 -90 34t-116 11q-72 0 -142.5 -49.5t-124 -130.5t-86 -184t-32.5 -214q0 -139 58 -205.5t159 -66.5q63 0 133.5 28.5t113.5 59.5l41 -109q-31 -27 -72.5 -49.5 t-85.5 -36.5t-87 -23.5t-82 -9.5q-106 0 -174 34t-107 85t-54.5 111.5t-15.5 113.5z" />
<glyph unicode="&#x442;" horiz-adv-x="1640" d="M78 0l227 1075h115l-14 -184h10q33 35 72.5 71.5t89 67.5t105.5 51.5t126 20.5q96 0 130 -60.5t34 -169.5q31 41 74 82t94 74t106.5 53.5t112.5 20.5q98 0 150.5 -47t52.5 -170q0 -92 -31 -240l-137 -645h-160l135 647q12 61 19.5 111.5t7.5 87.5q0 57 -23.5 87t-79.5 30 q-45 0 -95 -29t-98 -72t-85 -92t-60 -92l-139 -678h-162l129 608q18 76 26.5 134.5t8.5 101.5q0 57 -21.5 88t-72.5 31q-53 0 -105.5 -28t-97.5 -70t-83 -89t-58 -86l-141 -690h-162z" />
<glyph unicode="&#x443;" horiz-adv-x="942" d="M-43 -422l51 150q25 -10 51 -11q63 0 126 64.5t141 218.5l-187 1075h172l107 -696l10 -207h10l82 209l357 694h172l-506 -958l-112 -206q-54 -99 -112.5 -178t-121 -126t-127.5 -47q-37 0 -63.5 4t-49.5 14z" />
<glyph unicode="&#x444;" horiz-adv-x="1464" d="M94 317q0 184 47 327.5t129 244t189.5 152t230.5 51.5q55 0 96 -9l88 422h156l-90 -424q39 6 67.5 8.5t57.5 2.5q168 0 255 -93.5t87 -242.5q0 -203 -53.5 -350.5t-137 -242.5t-189 -142.5t-210.5 -47.5q-18 0 -54 4.5t-56 12.5l-89 -420h-153l90 422q-31 -8 -54.5 -13.5 t-54.5 -5.5q-176 0 -264 96t-88 248zM266 352q0 -106 54.5 -172.5t158.5 -66.5q25 0 50.5 4t56.5 8l174 819q-25 4 -46.5 7t-51.5 3q-63 0 -133 -40t-128.5 -116.5t-96.5 -188.5t-38 -257zM733 121q23 -4 45.5 -6t44.5 -2q70 0 142.5 37.5t132 115.5t98.5 195t39 276 q0 217 -234 217q-25 0 -44 -3t-50 -9z" />
<glyph unicode="&#x445;" horiz-adv-x="1040" d="M-47 0l483 551l-229 524h182l127 -297l39 -123l88 123l260 297h197l-457 -516l256 -559h-182l-148 328l-43 129l-90 -129l-289 -328h-194z" />
<glyph unicode="&#x446;" horiz-adv-x="1138" d="M129 207q0 76 23 170l145 698h162l-152 -717q-12 -57 -12 -106q0 -61 23.5 -100t84.5 -39q53 0 105.5 25.5t100.5 66.5t88 90t67 96l143 684h162l-74 -341q-31 -138 -49 -230t-30.5 -146.5t-17.5 -83t-6 -42t-1 -25.5q0 -70 57 -70h119l-113 -409h-129l72 272h-6 q-76 0 -113 37t-37 104q0 31 7 64h-9q-31 -41 -70.5 -82t-90 -75t-106.5 -54.5t-122 -20.5q-47 0 -87 11.5t-69.5 38t-47 70.5t-17.5 114z" />
<glyph unicode="&#x447;" horiz-adv-x="1009" d="M147 612q-6 78 86 463h164l-61 -293q-16 -76 -17 -129q0 -61 30 -99t110 -38q94 0 156.5 26.5t99.5 53.5l102 479h164l-227 -1075h-164l94 451q-37 -20 -105.5 -46t-172.5 -26q-57 0 -104.5 11t-81.5 39t-53.5 72.5t-19.5 110.5z" />
<glyph unicode="&#x448;" horiz-adv-x="1599" d="M127 188q0 94 33 242l135 645h162l-138 -647q-25 -117 -24 -190q0 -125 84 -125q51 0 101 27.5t94 70.5t79 93t56 93l143 678h162l-127 -608q-16 -72 -25.5 -130t-9.5 -99q0 -61 21.5 -93t70.5 -32q37 0 83 26.5t91 67.5t85 88t61 90l145 690h160l-158 -749 q-18 -82 -27.5 -166t-13.5 -160h-123l-6 182h-8q-72 -90 -161 -149.5t-212 -59.5q-80 0 -122 59.5t-42 160.5v8q-33 -43 -71.5 -83t-87 -73t-101.5 -52.5t-110 -19.5q-98 0 -148.5 46t-50.5 169z" />
<glyph unicode="&#x449;" horiz-adv-x="1642" d="M127 188q0 94 33 242l135 645h162l-138 -647q-10 -55 -17 -103.5t-7 -82.5q0 -63 20.5 -96t63.5 -33q51 0 101 27.5t94 70.5t79 93t56 93l143 678h162l-127 -608q-16 -72 -25.5 -130t-9.5 -99q0 -61 21.5 -93t70.5 -32q37 0 83 26.5t91 67.5t85 88t61 90l145 690h160 l-64 -305l-43 -207l-25 -126q-9 -44 -14.5 -66.5t-7.5 -29.5t-2 -11q-4 -27 -11 -59.5t-7 -63.5q0 -70 59 -70h115l-109 -409h-131l74 272h-8q-76 0 -112 37t-36 102q0 29 6 66h-8q-74 -109 -168 -170.5t-217 -61.5q-80 0 -122 59.5t-42 160.5v8q-33 -43 -71.5 -83t-87 -73 t-101.5 -52.5t-110 -19.5q-98 0 -148.5 46t-50.5 169z" />
<glyph unicode="&#x44a;" horiz-adv-x="1019" d="M113 928l28 147h410l-117 -434q51 16 111.5 27.5t124.5 11.5q123 0 201.5 -57.5t78.5 -180.5q0 -100 -41 -184t-113.5 -144.5t-171 -93t-208.5 -32.5q-123 0 -177.5 55t-54.5 143q0 23 2 45.5t11 44.5l159 652h-243zM350 223q0 -98 113 -98q66 0 124 21.5t101 60.5 t66.5 89t23.5 107q0 63 -32.5 103.5t-131.5 40.5q-20 0 -48.5 -3t-57.5 -9.5t-56.5 -14.5t-48.5 -20l-45 -209q-8 -35 -8 -68z" />
<glyph unicode="&#x44b;" horiz-adv-x="1372" d="M129 170q0 41 8 76l189 829h159l-100 -424q37 10 97.5 19.5t109.5 9.5q156 0 220.5 -63.5t64.5 -167.5q0 -111 -46.5 -197t-120 -145.5t-166.5 -89t-188 -29.5q-117 0 -172 49t-55 133zM295 215q0 -41 22.5 -65.5t73.5 -24.5q66 0 122 20.5t99 58.5t68 89t25 113 q0 68 -36 104.5t-145 36.5q-88 0 -170 -35l-55 -260q-2 -10 -3 -19.5t-1 -17.5zM954 0l230 1075h159l-227 -1075h-162z" />
<glyph unicode="&#x44c;" horiz-adv-x="962" d="M129 193q0 31 6 63l193 819h159l-100 -424q4 0 5 1t5 1q43 10 90.5 18.5t106.5 8.5q94 0 152.5 -19.5t90 -52.5t44 -76t12.5 -88q0 -113 -42 -197.5t-111.5 -143t-161 -87t-187.5 -28.5q-76 0 -125 16t-79.5 46t-44 68t-13.5 75zM295 231q0 -49 30.5 -77.5t100.5 -28.5 q59 0 112.5 20.5t94.5 57.5t64.5 88t23.5 115q0 76 -40 108.5t-144 32.5q-55 0 -98.5 -12.5l-82.5 -24.5l-55 -225q-6 -31 -6 -54z" />
<glyph unicode="&#x44d;" horiz-adv-x="946" d="M-18 41l69 131q41 -29 108.5 -44t135.5 -15q147 0 247.5 92t141.5 272h-444l26 131h428q4 23 6 45.5t2 46.5q0 135 -53 199t-151 64q-100 0 -166 -22.5t-109 -47.5l-43 111q74 47 161 72.5t194 25.5q88 0 151.5 -26.5t105.5 -73t62 -109t20 -133.5q0 -219 -49 -369.5 t-131 -243t-186.5 -133.5t-210.5 -41q-217 0 -315 68z" />
<glyph unicode="&#x44e;" horiz-adv-x="1462" d="M76 0l227 1075h162l-94 -454h198q31 111 79 198.5t112.5 150t142.5 97.5t168 35q92 0 153.5 -30t99.5 -80t53.5 -115.5t15.5 -137.5q0 -162 -42 -301t-115 -242.5t-171 -163t-207 -59.5q-96 0 -158.5 32t-99.5 83t-51 115.5t-14 132.5q0 39 4 75l8 72h-209l-100 -483 h-162zM696 375q0 -127 39 -194.5t142 -67.5q68 0 130 50t109 136t76 196.5t29 231.5q0 109 -35 172.5t-146 63.5q-70 0 -132 -48.5t-110 -130.5t-75 -188t-27 -221z" />
<glyph unicode="&#x44f;" horiz-adv-x="1001" d="M-35 0l314 369l106 77q-86 16 -144.5 72.5t-58.5 161.5q0 98 41 177t109.5 132t161 83t192.5 30q43 0 86 -6t82 -13.5t68.5 -16.5t50.5 -17l-219 -1049h-162l94 442l-166 -24l-346 -418h-209zM354 698q0 -156 224 -155h9h17q12 0 36 1t67 3l86 389q-10 10 -47 18.5 t-99 8.5q-129 0 -211 -72t-82 -193z" />
<glyph unicode="&#x2000;" horiz-adv-x="935" />
<glyph unicode="&#x2001;" horiz-adv-x="1871" />
<glyph unicode="&#x2002;" horiz-adv-x="935" />
<glyph unicode="&#x2003;" horiz-adv-x="1871" />
<glyph unicode="&#x2004;" horiz-adv-x="622" />
<glyph unicode="&#x2005;" horiz-adv-x="466" />
<glyph unicode="&#x2006;" horiz-adv-x="311" />
<glyph unicode="&#x2007;" horiz-adv-x="311" />
<glyph unicode="&#x2008;" horiz-adv-x="233" />
<glyph unicode="&#x2009;" horiz-adv-x="372" />
<glyph unicode="&#x200a;" horiz-adv-x="102" />
<glyph unicode="&#x2010;" horiz-adv-x="735" d="M135 547l35 145h494l-35 -145h-494z" />
<glyph unicode="&#x2011;" horiz-adv-x="735" d="M135 547l35 145h494l-35 -145h-494z" />
<glyph unicode="&#x2012;" horiz-adv-x="735" d="M135 547l35 145h494l-35 -145h-494z" />
<glyph unicode="&#x2013;" horiz-adv-x="1347" d="M244 547l32 145h869l-35 -145h-866z" />
<glyph unicode="&#x2014;" horiz-adv-x="1673" d="M244 547l32 145h1194l-34 -145h-1192z" />
<glyph unicode="&#x2018;" horiz-adv-x="399" d="M231 1352q0 74 29 131t67 97t78.5 62.5t67.5 30.5l33 -76q-49 -23 -86 -64.5t-45 -98.5q6 2 18 2q33 0 51.5 -26t18.5 -60q0 -61 -32 -93t-85 -32q-55 0 -85 39t-30 88z" />
<glyph unicode="&#x2019;" horiz-adv-x="401" d="M231 1149q51 25 87 65.5t47 100.5q-86 4 -86 100q0 27 12 46.5t29.5 32.5t38 20.5t38.5 7.5q66 0 88.5 -32t22.5 -93q0 -72 -28.5 -128.5t-66.5 -96t-79 -64.5t-68 -33z" />
<glyph unicode="&#x201a;" horiz-adv-x="405" d="M4 -160q51 25 87 65.5t47 100.5q-86 4 -86 100q0 27 12 46.5t29.5 32.5t38 20.5t38.5 7.5q66 0 88.5 -32t22.5 -93q0 -72 -28.5 -128.5t-66.5 -96t-79 -64.5t-68 -33z" />
<glyph unicode="&#x201c;" horiz-adv-x="698" d="M530 1352q0 74 29 131t67 97t78.5 62.5t67.5 30.5l33 -76q-49 -23 -86 -64.5t-45 -98.5q6 2 18 2q33 0 51.5 -26t18.5 -60q0 -61 -32 -93t-85 -32q-55 0 -85 39t-30 88zM231 1352q0 74 29 131t67 97t78.5 62.5t67.5 30.5l33 -76q-49 -23 -86 -64.5t-45 -98.5q6 2 18 2 q33 0 51.5 -26t18.5 -60q0 -61 -32 -93t-85 -32q-55 0 -85 39t-30 88z" />
<glyph unicode="&#x201d;" horiz-adv-x="698" d="M528 1149q51 25 87 65.5t47 100.5q-86 4 -86 100q0 27 12 46.5t29.5 32.5t38 20.5t38.5 7.5q66 0 88.5 -32t22.5 -93q0 -72 -28.5 -128.5t-66.5 -96t-79 -64.5t-68 -33zM231 1149q51 25 87 65.5t47 100.5q-86 4 -86 100q0 27 12 46.5t29.5 32.5t38 20.5t38.5 7.5 q66 0 88.5 -32t22.5 -93q0 -72 -28.5 -128.5t-66.5 -96t-79 -64.5t-68 -33z" />
<glyph unicode="&#x201e;" horiz-adv-x="702" d="M299 -160q51 25 87 65.5t47 100.5q-86 4 -86 100q0 27 12 46.5t29.5 32.5t38 20.5t38.5 7.5q66 0 88.5 -32t22.5 -93q0 -72 -28.5 -128.5t-66.5 -96t-79 -64.5t-68 -33zM4 -160q51 25 87 65.5t47 100.5q-86 4 -86 100q0 27 12 46.5t29.5 32.5t38 20.5t38.5 7.5 q66 0 88.5 -32t22.5 -93q0 -72 -28.5 -128.5t-66.5 -96t-79 -64.5t-68 -33z" />
<glyph unicode="&#x2022;" horiz-adv-x="970" d="M242 670q0 66 23.5 121t63.5 95t94 60.5t118 20.5q61 0 116.5 -19.5t94.5 -58.5t63.5 -94.5t24.5 -124.5q0 -72 -24.5 -127.5t-63.5 -93t-94.5 -58t-116.5 -20.5q-63 0 -117.5 20.5t-94.5 58t-63.5 93t-23.5 127.5z" />
<glyph unicode="&#x2026;" horiz-adv-x="1550" d="M57 98q0 59 35 92t90 33q57 0 91 -32.5t34 -92.5q0 -55 -33.5 -90t-91.5 -35q-55 0 -90 35t-35 90zM575 98q0 59 35 92t90 33q57 0 91 -32.5t34 -92.5q0 -55 -33.5 -90t-91.5 -35q-55 0 -90 35t-35 90zM1098 98q0 59 33.5 92t89.5 33q57 0 91 -32.5t34 -92.5 q0 -55 -34 -90t-91 -35q-55 0 -89 35t-34 90z" />
<glyph unicode="&#x202f;" horiz-adv-x="372" />
<glyph unicode="&#x2039;" horiz-adv-x="645" d="M121 557l430 494l94 -103l-264 -309l-121 -80l72 -84l145 -303l-119 -90z" />
<glyph unicode="&#x203a;" horiz-adv-x="608" d="M82 174l266 311l123 88l-76 91l-145 307l123 80l235 -476l-430 -493z" />
<glyph unicode="&#x205f;" horiz-adv-x="466" />
<glyph unicode="&#x20ac;" d="M12 547l68 137h151q8 33 15.5 78t15.5 78h-184l65 137h160q55 147 135 250.5t174.5 171t196.5 100.5t199 33q104 0 175.5 -17.5t123.5 -46.5l-74 -131q-82 47 -256 47q-59 0 -128 -23.5t-137.5 -72.5t-130 -126t-108.5 -185h594l-66 -137h-571q-10 -35 -17 -79l-12 -77 h525l-66 -137h-465l-2 -10q-2 -98 17.5 -172t61.5 -128.5t110.5 -85t173.5 -30.5q68 0 135 19.5t125 47.5l28 -129q-39 -25 -82.5 -41t-91 -25t-92.5 -14.5t-84 -5.5q-117 0 -205 40t-146 110t-89 166t-33 219l2 39h-211z" />
<glyph unicode="&#x2122;" horiz-adv-x="1904" d="M193 1360v145h753v-145h-293v-629h-168v629h-292zM1032 731v774h168l225 -360l62 -125h2l63 129l209 356h170v-774h-164v359l23 221h-10l-84 -183l-187 -301h-71l-191 299l-78 185h-8l29 -219v-361h-158z" />
<glyph unicode="&#xe000;" horiz-adv-x="1075" d="M0 1075h1075v-1075h-1075v1075z" />
<glyph unicode="&#xf6d1;" horiz-adv-x="612" d="M563 1827l146 45q0 -80 39.5 -123t111.5 -43q90 0 148.5 44t81.5 118l157 -35q-39 -117 -140 -184.5t-255 -67.5q-147 0 -216 72t-73 174z" />
<glyph unicode="&#xf6d4;" horiz-adv-x="612" d="M569 1438v20l150 51q0 -100 42 -138t105 -38q68 0 126.5 41t94.5 133l117 -41q-43 -125 -145.5 -191.5t-222.5 -66.5q-53 0 -101.5 13.5t-85.5 41t-58.5 72t-21.5 103.5z" />
<glyph horiz-adv-x="395" d="M-410 57l1104 1477l109 -84l-1104 -1477z" />
</font>
</defs>
</svg>
